<?xml version="1.0" encoding="UTF-8" standalone="no"?>
<!-- Created with Inkscape (http://www.inkscape.org/) -->

<svg
   version="1.1"
   id="svg1"
   width="514.56"
   height="67.839996"
   viewBox="0 0 514.56 67.839996"
   xmlns="http://www.w3.org/2000/svg"
   xmlns:svg="http://www.w3.org/2000/svg">
  <defs
     id="defs1" />
  <g
     id="g1">
    <path
       style="fill:#000000"
       d="m 133.07098,162.12295 c -0.58728,-0.42913 -0.62687,-0.98767 -0.72588,-10.24 l -0.10471,-9.78611 h -1.74983 c -2.3087,0 -3.32074,-0.90341 -3.32074,-2.96429 0,-2.06034 0.53969,-2.62325 2.27229,-2.37008 0.77424,0.11314 1.73171,0.29645 2.12771,0.40736 l 0.72,0.20165 v -9.91173 -9.91174 l -1.92803,-0.20152 c -3.15715,-0.32998 -4.15197,-1.08158 -4.15197,-3.13686 0,-2.28517 1.14252,-2.70886 4.0524,-1.50278 l 1.66476,0.69001 0.84987,-1.01001 c 0.68119,-0.80955 1.09307,-1.01001 2.07524,-1.01001 1.8486,0 2.23773,0.25078 2.23773,1.44212 0,1.05287 0.002,1.05404 2.4651,1.60207 7.8618,1.74909 15.40033,5.20523 19.08075,8.74784 2.22854,2.1451 2.91641,3.5987 2.89986,6.12797 -0.0294,4.48677 -3.07228,7.47576 -9.88571,9.71049 -2.84679,0.93372 -7.627,1.96463 -10.56,2.27741 -1.056,0.11261 -2.46,0.28206 -3.12,0.37655 l -1.2,0.1718 0.006,5.81188 c 0.003,3.19653 0.14247,7.10787 0.30965,8.69187 0.34792,3.29643 0.0422,4.9933 -1.03571,5.74828 -0.87813,0.61506 -2.16611,0.63142 -2.97846,0.0378 z m 10.85513,-25.50538 c 5.62719,-1.02619 10.1368,-2.89952 12.1979,-5.06713 0.74941,-0.78814 0.94706,-1.27549 0.92096,-2.27091 -0.11135,-4.24653 -7.27418,-8.30877 -19.39515,-10.99953 l -0.88,-0.19535 v 9.74297 9.74298 l 1.84,-0.15954 c 1.012,-0.0877 3.40433,-0.44482 5.31629,-0.79349 z m 235.35328,14.69351 c -0.46782,-0.36534 -0.57319,-1.9819 -0.89263,-13.69424 -0.58592,-21.4833 -1.19947,-32.38493 -2.13297,-37.898531 -0.26618,-1.572193 -0.40642,-3.167506 -0.31164,-3.545139 0.37312,-1.486644 3.64717,-1.994526 4.49696,-0.697585 1.22516,1.869829 1.7855,9.927675 2.04864,29.460075 l 0.20207,14.99882 1.41876,-3.47882 c 5.16316,-12.6601 10.23681,-21.7036 14.15039,-25.22224 4.83705,-4.34892 8.97892,-1.68008 10.8999,7.02342 0.55402,2.51016 0.66398,4.62649 0.85627,16.48 0.16586,10.22442 0.1258,13.84944 -0.16138,14.60496 -0.65766,1.73016 -3.33693,2.1217 -4.54638,0.6644 -0.31341,-0.37764 -0.31979,-2.47294 -0.0306,-10.03334 0.54823,-14.3307 0.11549,-20.70044 -1.6401,-24.14168 -0.79241,-1.55326 -1.24803,-1.76743 -2.43802,-1.14606 -3.256,1.70016 -8.48181,11.5333 -15.63287,29.41557 -2.619,6.5492 -3.14578,7.40296 -4.64631,7.53039 -0.61033,0.0518 -1.3484,-0.0922 -1.64013,-0.32 z M 21.606258,150.94074 c -0.620175,-0.74727 -0.947582,-3.64814 -1.160694,-10.2839 -0.186681,-5.81275 -0.27296,-6.53213 -0.940289,-7.84 -1.122492,-2.19992 -1.306561,-3.85616 -0.537253,-4.83417 0.614227,-0.78087 0.627148,-1.19416 0.447198,-14.30496 l -0.185303,-13.50087 h -0.779779 c -1.300087,0 -6.844127,1.21651 -9.5100834,2.08677 -1.379617,0.45035 -3.9295642,1.53306 -5.6665501,2.40603 -3.35732094,1.6873 -4.6546919,1.93097 -5.4691524,1.0272 -0.7208844,-0.79993 -0.9873622,-2.15124 -0.575852,-2.92015 0.7663387,-1.43192 5.5251418,-3.534234 11.6514295,-5.147297 4.5922474,-1.209147 6.5621564,-1.545789 12.3067694,-2.103127 8.557211,-0.830213 15.284182,-0.498067 20.494908,1.011942 3.773466,1.093507 6.164525,2.446672 8.191002,4.635512 2.29057,2.47409 2.856122,4.18287 2.672972,8.07625 -0.16706,3.55133 -1.068721,5.69415 -3.528473,8.38551 -3.084935,3.37541 -7.669862,6.00656 -18.393555,10.5555 -2.852449,1.20999 -5.141739,2.24452 -5.087311,2.29894 0.05443,0.0544 1.88425,0.53365 4.066271,1.06493 9.376314,2.28295 25.086652,7.18732 26.875195,8.38976 1.633579,1.09824 1.671782,2.82408 0.103764,4.68757 -1.230927,1.46287 -2.277582,1.31811 -6.565756,-0.90813 -3.988037,-2.07042 -8.542277,-3.95854 -12.765891,-5.29257 -3.213335,-1.01492 -12.242709,-3.3986 -12.374541,-3.26677 -0.272219,0.27222 0.61168,10.77898 1.026984,12.20757 0.56932,1.95839 0.259114,3.0652 -1.022787,3.64927 -1.07387,0.48929 -2.836191,0.44578 -3.273223,-0.0808 z m 7.643567,-26.99492 c 12.360856,-4.87285 18.288996,-9.86845 18.367405,-15.47808 0.031,-2.2178 -0.958391,-3.88121 -3.186268,-5.3569 -3.492106,-2.31307 -7.412175,-3.225139 -14.941137,-3.476294 l -5.68,-0.189475 7.36e-4,5.725889 c 4.05e-4,3.14923 0.09547,9.07626 0.211258,13.17118 0.207971,7.35507 0.218626,7.44292 0.879264,7.24984 0.367808,-0.1075 2.324742,-0.84827 4.348742,-1.64616 z m 69.2873,25.65031 c -1.17906,-0.6148 -1.43616,-1.00525 -1.4424,-2.19049 -0.004,-0.71323 0.4378,-1.3739 1.88632,-2.82242 1.656635,-1.65664 2.023785,-1.87852 2.959995,-1.7888 0.94865,0.0909 1.06994,0.21032 1.07912,1.06242 0.0102,0.94628 0.0376,0.96151 1.92,1.06551 6.43047,0.35529 13.66275,-4.29037 12.79929,-8.22164 -0.24841,-1.13102 -1.54941,-2.41109 -3.11529,-3.0652 -0.65212,-0.2724 -4.10909,-1.20332 -7.68216,-2.0687 -9.058655,-2.19397 -11.804167,-3.36599 -12.914443,-5.51303 -0.683491,-1.32173 -0.581744,-4.2987 0.202274,-5.91827 1.14643,-2.36821 4.524584,-5.25677 8.459989,-7.2339 4.62641,-2.32429 10.49154,-3.44741 12.1903,-2.33434 0.77291,0.50643 0.83162,0.69257 0.68843,2.18278 -0.24697,2.57028 -2.04334,3.72885 -4.23401,2.73072 -1.6627,-0.75758 -7.89336,1.3336 -10.77604,3.61672 -1.458335,1.15503 -2.188675,2.41752 -2.188675,3.78346 0,1.906 1.22145,2.46807 9.759995,4.49119 11.60898,2.75062 14.67763,4.95202 14.14167,10.145 -0.54878,5.31715 -6.2327,10.32854 -13.71536,12.09255 -2.77727,0.65473 -8.752875,0.64664 -10.019005,-0.0136 z m 389.592695,0.27472 c -1.03491,-0.37832 -1.92,-1.50358 -1.92,-2.44099 0,-0.73945 0.4275,-1.38292 1.89122,-2.84664 1.65664,-1.65664 2.02379,-1.87852 2.96,-1.7888 0.94647,0.0907 1.08025,0.22144 1.16905,1.14242 l 0.10028,1.04 h 2.09353 c 6.15569,0 12.57829,-3.86626 12.58428,-7.57545 0.002,-1.18267 -1.18761,-2.75571 -2.65937,-3.51678 -0.54163,-0.28009 -4.32234,-1.34212 -8.40159,-2.36007 -8.02692,-2.00307 -10.2728,-2.86899 -11.96239,-4.61221 -0.93629,-0.966 -1.11307,-1.3967 -1.22854,-2.99309 -0.2627,-3.63176 2.1516,-6.94981 7.26894,-9.98997 4.20363,-2.49733 10.77632,-4.33558 13.2669,-3.71048 0.45628,0.11452 1.05617,0.55402 1.3331,0.97666 0.64727,0.98787 0.18452,2.9317 -0.95215,3.99954 -0.65443,0.61481 -0.98541,0.69907 -2.0036,0.5101 -3.27015,-0.60691 -6.67957,0.15478 -10.30179,2.30148 -2.39234,1.41783 -3.55294,2.79417 -3.7763,4.47829 -0.29049,2.19025 0.92809,2.77645 10.77843,5.18499 6.41217,1.56786 9.21758,2.64968 11.04691,4.25993 1.7006,1.49693 2.2048,2.89774 1.99295,5.53698 -0.41392,5.15657 -5.87009,10.11544 -13.18962,11.98746 -2.42619,0.62052 -8.81128,0.88416 -10.09024,0.41663 z m -32.22759,-0.99012 c -1.40422,-0.89239 -1.72901,-4.71431 -2.18469,-25.70787 -0.21754,-10.02192 -0.21294,-10.1308 0.45626,-10.8 0.91975,-0.91976 2.91448,-0.92144 3.74642,-0.003 0.5473,0.60409 0.62035,1.31323 0.71481,6.93877 l 0.1052,6.26592 1.51515,-2.86851 c 2.92549,-5.53858 6.41196,-9.89806 9.24331,-11.55782 1.18696,-0.6958 1.66356,-0.78579 3.58621,-0.67715 1.82523,0.10313 2.45494,0.29334 3.56097,1.07561 1.72677,1.2213 2.49319,2.2728 2.73279,3.74933 0.17044,1.05025 0.0647,1.31149 -0.93635,2.31249 -1.66174,1.66174 -2.56569,1.54218 -4.77432,-0.6315 -1.00894,-0.99299 -2.07758,-1.76 -2.4521,-1.76 -2.15872,0 -7.05854,7.2017 -10.89034,16.00651 l -1.60435,3.68651 0.29673,3.83349 c 0.1632,2.10841 0.30014,4.95603 0.30431,6.32803 0.007,2.22726 -0.0766,2.57871 -0.77788,3.28 -0.77904,0.77904 -1.89682,1.00299 -2.64213,0.52934 z M 242.5306,148.06294 c -1.07442,-1.63977 -1.8605,-8.34229 -2.26658,-19.3261 -0.13958,-3.77528 -0.33618,-5.84 -0.55607,-5.84 -0.18709,0 -2.9407,0.51293 -6.11914,1.13985 -3.50881,0.69208 -6.18209,1.06452 -6.80513,0.9481 -1.15614,-0.21604 -2.33386,-1.5028 -2.33386,-2.54994 0,-1.39778 0.69337,-1.83102 3.38076,-2.11238 2.11211,-0.22113 8.93854,-1.4382 11.5534,-2.05983 0.68798,-0.16355 0.69368,-0.22699 0.64,-7.12541 -0.0468,-6.02123 0.0251,-7.1879 0.53359,-8.64652 0.61637,-1.76821 1.66175,-2.63892 3.15636,-2.628968 1.70899,0.01138 1.89728,0.682948 1.35081,4.817848 -0.48695,3.6846 -0.5594,6.64468 -0.25171,10.28464 l 0.2032,2.40394 5.1568,-1.08562 c 7.09115,-1.49284 7.48443,-1.61361 7.72525,-2.37235 0.33571,-1.05774 1.49095,-1.40455 2.66177,-0.7991 1.65145,0.854 2.45771,3.1561 1.64028,4.68347 -0.59034,1.10307 -2.02798,1.53162 -9.61825,2.86715 -4.11396,0.72387 -7.51185,1.34805 -7.55088,1.38707 -0.18554,0.18554 0.56527,16.59148 0.83206,18.18123 0.16735,0.99725 0.59234,2.74583 0.94442,3.88573 0.76429,2.47446 0.62909,3.20391 -0.75201,4.05747 -1.43953,0.88968 -2.8998,0.844 -3.52507,-0.11028 z m 111.74891,0.3539 c -1.24934,-0.93823 -2.07187,-6.81688 -2.46696,-17.63137 -0.15334,-4.19725 -0.35727,-7.70983 -0.45316,-7.80572 -0.0959,-0.0959 -2.9157,0.3705 -6.26624,1.03643 -6.68177,1.32803 -7.59702,1.30667 -8.72461,-0.20363 -0.46919,-0.62842 -0.57032,-1.09441 -0.40293,-1.85655 0.25558,-1.16367 1.12023,-1.61916 3.07362,-1.61916 1.08482,0 10.24407,-1.63083 11.88778,-2.11666 0.5076,-0.15003 0.55586,-0.77064 0.54218,-6.97152 -0.0171,-7.72857 0.24646,-9.38643 1.68429,-10.59628 1.09431,-0.920804 2.5335,-1.03266 3.30898,-0.25718 0.42194,0.42194 0.49204,0.85441 0.32415,2 -0.57542,3.92653 -0.77115,7.57358 -0.59559,11.09751 l 0.19309,3.87586 5.15285,-1.09345 c 2.83407,-0.60139 5.64017,-1.17951 6.23577,-1.2847 0.74117,-0.13089 1.24609,-0.47904 1.6,-1.10323 0.2844,-0.5016 0.76189,-0.99104 1.0611,-1.08766 0.69864,-0.2256 2.31316,0.60809 2.95656,1.52669 0.57047,0.81445 0.656,2.56013 0.16994,3.46835 -0.58472,1.09257 -2.0588,1.55163 -8.68546,2.70486 -3.57778,0.62264 -6.90105,1.21222 -7.38505,1.31017 l -0.88,0.17809 v 5.20811 c 0,7.39021 0.49544,12.90471 1.47266,16.39164 0.91955,3.28111 0.812,3.89891 -0.82626,4.74609 -1.13673,0.58782 -2.26294,0.61934 -2.97671,0.0833 z M 67.113561,147.41285 c -3.362736,-1.09336 -5.845327,-3.62252 -6.871249,-7.00014 -0.586709,-1.93161 -0.652696,-2.76277 -0.510271,-6.42719 0.18496,-4.75877 0.757977,-7.01545 2.856269,-11.24868 2.471767,-4.9867 6.405156,-9.23049 10.342072,-11.15821 3.532846,-1.72987 7.994134,-1.81237 10.650468,-0.19695 3.259569,1.98226 3.02069,6.5629 -0.499153,9.57157 -3.216495,2.74937 -9.93658,5.74631 -15.32729,6.83546 l -2.184582,0.44137 -0.419671,2.21338 c -0.869595,4.58631 0.199551,9.39037 2.439429,10.96124 2.319376,1.62662 6.250459,1.7411 9.452264,0.27527 3.086067,-1.41285 6.805137,-5.95662 9.415051,-11.50282 1.245297,-2.64632 2.093614,-3.33079 2.848544,-2.29836 0.594805,0.81344 0.537448,1.44839 -0.376877,4.17212 -2.305658,6.86844 -6.58446,12.38679 -11.35874,14.64932 -1.877445,0.88972 -2.422787,0.99357 -5.6,1.0664 -2.303598,0.0528 -3.981772,-0.0694 -4.856264,-0.35378 z m 2.478183,-24.06615 c 6.002089,-1.76164 12.356654,-5.8856 11.50916,-7.46916 -0.80569,-1.50544 -4.437862,-1.67386 -7.075785,-0.32809 -1.831589,0.9344 -4.749209,3.8858 -6.003108,6.07261 -0.553399,0.96513 -1.007532,1.86278 -1.009183,1.99478 -0.0045,0.36236 0.661738,0.29257 2.578916,-0.27014 z m 103.537886,23.87084 c -3.29681,-1.28763 -5.27258,-3.29316 -6.46334,-6.5607 -0.45595,-1.25114 -0.57993,-2.50703 -0.56866,-5.76 0.0123,-3.5592 0.13732,-4.56615 0.86545,-6.97226 1.62916,-5.38356 4.38674,-9.92326 8.08773,-13.31454 4.56242,-4.18063 10.1857,-5.54753 14.43678,-3.50927 2.38004,1.14115 3.3527,3.37472 2.6412,6.06512 -1.03707,3.92144 -9.48858,8.91646 -17.9887,10.6317 l -2.01027,0.40565 -0.41463,1.5868 c -0.64221,2.45776 -0.36418,7.65437 0.49792,9.30655 0.83488,1.59999 2.21615,2.81182 3.80126,3.33495 1.79898,0.59372 5.44178,0.20921 7.5739,-0.79945 2.98753,-1.41332 6.49132,-5.70271 9.22428,-11.29247 1.42032,-2.905 1.59241,-3.09632 2.52013,-2.80187 1.03488,0.32846 0.83878,2.61049 -0.51895,6.03942 -2.77649,7.01192 -7.36398,12.14621 -12.18241,13.63447 -2.79656,0.86377 -7.29807,0.86657 -9.50169,0.006 z m 3.83763,-24.16309 c 4.43723,-1.48953 9.74794,-4.60088 10.43791,-6.11519 0.55646,-1.2213 -0.51781,-2.10685 -2.78382,-2.29476 -1.53059,-0.12693 -2.0786,-0.004 -3.82577,0.85578 -2.35549,1.1596 -5.28042,4.08615 -6.68573,6.68941 -0.88263,1.63501 -0.8868,1.66715 -0.21642,1.66715 0.37595,0 1.75918,-0.36108 3.07383,-0.80239 z m 25.85705,24.19903 c -1.39849,-0.85279 -2.91433,-2.79925 -3.48556,-4.47572 -2.22435,-6.5281 3.35348,-23.36887 10.14444,-30.62843 4.03444,-4.31282 7.84321,-4.78233 10.61884,-1.309 0.84838,1.06163 0.99225,1.52729 1.08752,3.52 0.1458,3.04956 -0.42522,4.82018 -1.59821,4.95569 -1.11324,0.12861 -1.47579,-0.55598 -1.84293,-3.47984 -0.15696,-1.25004 -0.3597,-2.34712 -0.45055,-2.43796 -0.47456,-0.47457 -2.78286,0.81816 -4.36804,2.44624 -3.10916,3.19333 -6.16385,9.49159 -7.98871,16.47141 -1.17891,4.50917 -1.40994,6.38722 -1.00659,8.18252 0.59468,2.64693 2.56145,3.23825 5.78301,1.73867 1.95844,-0.91161 7.49792,-6.25159 10.70786,-10.32223 1.01575,-1.28811 2.06835,-2.42703 2.33912,-2.53093 0.71411,-0.27403 1.51057,0.336 1.62038,1.24108 0.18955,1.56241 -5.65849,9.32909 -10.0643,13.36621 -3.02392,2.77088 -5.35948,3.86597 -8.24188,3.86445 -1.65498,-8.7e-4 -2.53555,-0.1638 -3.2544,-0.60216 z m 222.68924,0.15937 c -2.81756,-0.9161 -5.37399,-3.15775 -6.49293,-5.69345 -0.97096,-2.20032 -1.34979,-5.87704 -0.96004,-9.31758 1.06677,-9.41697 7.37474,-18.69922 14.54924,-21.40936 2.77769,-1.04927 6.45465,-1.02044 8.63954,0.0677 2.77821,1.38368 3.76872,4.03422 2.57512,6.8909 -1.50834,3.60998 -9.2794,7.98008 -17.27727,9.71599 -3.07888,0.66825 -3.10245,0.71369 -3.17079,6.10975 -0.0427,3.37387 0.0218,3.8131 0.77601,5.28 0.49924,0.97104 1.35917,1.97738 2.18756,2.56 1.27613,0.89753 1.55579,0.96 4.29739,0.96 2.49209,0 3.19673,-0.1248 4.69244,-0.8311 3.09043,-1.45935 6.34225,-5.35488 9.18974,-11.0089 1.44782,-2.87481 1.80965,-3.34586 2.57712,-3.3551 0.91646,-0.011 1.16288,1.5054 0.58443,3.5966 -1.88815,6.82609 -6.77053,13.38046 -11.71129,15.72189 -1.87745,0.88972 -2.42279,0.99356 -5.6,1.0664 -2.3036,0.0528 -3.98177,-0.0694 -4.85627,-0.35378 z m 2.98256,-24.22869 c 5.09795,-1.56324 11.64822,-5.76325 11.12298,-7.13201 -0.32094,-0.83635 -1.86394,-1.47562 -3.55338,-1.47218 -3.09318,0.006 -6.90157,2.67663 -9.35285,6.55797 -1.92812,3.05296 -1.83781,3.15659 1.78325,2.04622 z M 299.32982,147.0597 c -5.01509,-1.13426 -8.984,-4.17082 -10.95411,-8.38085 -1.72635,-3.68911 -1.6352,-9.75594 0.24467,-16.28651 2.00423,-6.9626 7.26553,-15.67095 13.16265,-21.78643 1.60406,-1.663452 2.12256,-2.00408 3.32367,-2.183464 1.46416,-0.21867 3.12904,0.198244 3.57171,0.894415 0.13288,0.20899 0.2446,0.667981 0.24825,1.019979 0.006,0.58636 0.24119,0.64472 2.8049,0.69631 11.22676,0.22591 19.93636,5.8045 21.17584,13.56336 0.50683,3.17263 -0.10548,7.67279 -1.59944,11.75513 -3.3632,9.19008 -12.81515,17.98249 -21.89814,20.37013 -2.83146,0.7443 -7.57946,0.90348 -10.08,0.33793 z m 10.55309,-5.60808 c 9.78057,-3.29341 17.39845,-11.9779 18.54976,-21.14698 0.33881,-2.6983 -0.0374,-5.59051 -0.98345,-7.56074 -0.85761,-1.78601 -3.34791,-3.98477 -5.98056,-5.2804 l -2.12675,-1.04666 h -5.78011 c -4.99458,0 -5.8978,-0.0771 -6.64605,-0.56738 -0.55547,-0.36395 -0.86593,-0.85155 -0.86593,-1.36 0,-1.12697 -0.47936,-0.98827 -1.96084,0.56738 -2.74219,2.87948 -6.12226,7.78487 -7.97389,11.57228 -5.27172,10.78295 -5.01254,20.72636 0.62808,24.097 0.9511,0.56834 2.31818,1.17533 3.03796,1.34886 2.15439,0.51941 7.72979,0.17536 10.10178,-0.62336 z"
       id="path1" />
  </g>
</svg>
