<?xml version="1.0" encoding="UTF-8" standalone="no"?>
<!-- Created with Inkscape (http://www.inkscape.org/) -->

<svg
   version="1.1"
   id="svg1"
   width="559.35999"
   height="197.75999"
   viewBox="0 0 559.35999 197.75999"
   sodipodi:docname="WALTS religion WHITE.svg"
   inkscape:version="1.4.2 (f4327f4, 2025-05-13)"
   xmlns:inkscape="http://www.inkscape.org/namespaces/inkscape"
   xmlns:sodipodi="http://sodipodi.sourceforge.net/DTD/sodipodi-0.dtd"
   xmlns="http://www.w3.org/2000/svg"
   xmlns:svg="http://www.w3.org/2000/svg">
  <defs
     id="defs1" />
  <sodipodi:namedview
     id="namedview1"
     pagecolor="#505050"
     bordercolor="#eeeeee"
     borderopacity="1"
     inkscape:showpageshadow="0"
     inkscape:pageopacity="0"
     inkscape:pagecheckerboard="0"
     inkscape:deskcolor="#505050"
     inkscape:zoom="2.41"
     inkscape:cx="279.87552"
     inkscape:cy="98.962656"
     inkscape:window-width="1920"
     inkscape:window-height="1057"
     inkscape:window-x="-8"
     inkscape:window-y="-8"
     inkscape:window-maximized="1"
     inkscape:current-layer="g1" />
  <g
     inkscape:groupmode="layer"
     inkscape:label="Image"
     id="g1">
    <path
       style="fill:#000000"
       d="m 448.16894,197.266 c -0.56927,-0.24961 -1.27399,-0.99341 -1.73147,-1.82747 -0.4243,-0.7736 -1.89749,-3.15547 -3.27373,-5.29305 -1.37625,-2.13759 -2.99028,-5.08959 -3.58674,-6.56 -0.59646,-1.47042 -1.42728,-3.37643 -1.84626,-4.23559 l -0.7618,-1.5621 -8.22665,0.15655 c -6.72606,0.12799 -8.36569,0.24765 -8.98893,0.65602 -1.52344,0.9982 -3.31917,1.2659 -5.12294,0.7637 -0.91382,-0.25441 -2.05225,-0.55164 -2.52985,-0.6605 -0.96071,-0.21897 -2.49163,-2.46936 -2.49163,-3.66259 0,-0.38214 0.432,-1.14685 0.96,-1.69935 0.528,-0.5525 0.96,-1.25356 0.96,-1.5579 0,-0.30435 0.2113,-0.72872 0.46955,-0.94306 0.4767,-0.39562 6.60026,-10.37434 9.88755,-16.11237 l 1.80102,-3.14371 -0.90877,-1.33629 c -0.49983,-0.73496 -1.31096,-2.41629 -1.80252,-3.73629 -0.49156,-1.32 -1.38441,-3.22109 -1.98413,-4.22465 -0.59971,-1.00355 -1.44419,-2.86488 -1.87663,-4.13629 -0.94973,-2.79233 -1.49694,-3.67808 -2.45755,-3.97792 -0.94374,-0.29458 -1.19762,-0.71011 -1.20362,-1.97001 -0.009,-1.96264 4.0015,-5.21113 6.43407,-5.21113 0.59458,0 3.45705,-0.36059 6.36104,-0.8013 2.904,-0.44072 6.83329,-0.89502 8.73176,-1.00957 l 3.45177,-0.20827 3.34931,-6.59043 c 3.5877,-7.05952 6.27854,-11.00068 8.15886,-11.94994 1.38674,-0.70007 5.07666,-0.75876 6.34868,-0.10098 0.53741,0.27791 1.3136,1.25805 1.96395,2.48 0.59144,1.11127 2.03142,3.4723 3.19996,5.24675 1.16854,1.77444 2.5206,4.22244 3.00458,5.44 0.48399,1.21755 1.23978,3.02197 1.67953,4.00981 l 0.79956,1.79607 3.84549,0.22493 c 2.11501,0.12371 5.88115,0.1216 8.36919,-0.005 3.75698,-0.19071 4.79606,-0.35645 6.13053,-0.97788 0.88375,-0.41153 1.93264,-0.74965 2.33087,-0.75137 0.66229,-0.003 5.21014,1.14502 5.34515,1.34912 0.0319,0.0483 0.37142,0.54199 0.75443,1.09716 0.99009,1.43514 0.90153,2.83244 -0.26363,4.15949 -0.528,0.60136 -0.96,1.33108 -0.96,1.62162 0,0.29053 -0.28986,0.83678 -0.64414,1.21389 -0.94917,1.01035 -11.20444,18.10611 -11.19004,18.65405 0.003,0.12185 0.42655,0.84233 0.94076,1.60106 0.51422,0.75873 1.17671,2.12673 1.4722,3.04 0.29549,0.91327 1.22304,2.95649 2.06122,4.54049 0.83817,1.584 1.75742,3.6 2.04277,4.48 0.6674,2.05821 1.66091,3.68 2.25438,3.68 0.59781,0 1.46285,1.22815 1.46285,2.07691 0,1.98527 -4.33318,5.28309 -6.94173,5.28309 -0.74596,0 -3.7129,0.35768 -6.59321,0.79485 -2.88031,0.43716 -6.67382,0.88901 -8.43003,1.0041 l -3.1931,0.20926 -3.24552,6.43589 c -3.59072,7.12043 -6.1256,10.83823 -8.1518,11.95589 -1.51056,0.83324 -4.57826,0.9696 -6.16461,0.27401 z m 6.21112,-16.87111 1.00155,-1.7971 -1.20634,-0.19938 c -1.44144,-0.23823 -3.28633,-0.26769 -3.28633,-0.0525 0,0.51437 2.09365,4.27692 2.27192,4.08292 0.1197,-0.13028 0.66834,-1.04556 1.2192,-2.03397 z m 22.17783,-9.76551 c 0.13679,-0.0845 0.0535,-0.54153 -0.18499,-1.01554 -0.23853,-0.47402 -0.74392,-1.89854 -1.1231,-3.1656 -0.37918,-1.26707 -0.81084,-2.37881 -0.95925,-2.47053 -0.20923,-0.12931 -3.55799,5.47357 -4.16393,6.96676 -0.1212,0.29867 5.91685,0.003 6.43127,-0.31509 z m -16.07361,-2.02106 c 0.44256,-0.95903 1.63906,-3.33503 2.6589,-5.28 1.01983,-1.94498 2.58223,-5.01924 3.47202,-6.83168 l 1.61778,-3.29536 -2.47056,-5.02464 c -1.35881,-2.76356 -3.77793,-7.29264 -5.37584,-10.06464 l -2.90527,-5.04 h -6.4803 -6.4803 l -0.73588,1.67719 c -0.40474,0.92246 -1.29518,2.75846 -1.97876,4.08 -0.68357,1.32154 -2.2821,4.43673 -3.55228,6.92265 l -2.30943,4.51984 2.9346,5.88016 c 3.75069,7.5154 7.24032,13.44666 8.21282,13.9592 0.54288,0.2861 2.43125,0.37667 6.6725,0.32 l 5.91535,-0.079 z m -27.83534,0.76778 c 0,-0.35488 -1.0747,-2.26121 -2.02856,-3.5983 l -0.98032,-1.3742 -0.56215,1.0542 c -0.68882,1.29174 -0.74345,2.60762 -0.12943,3.11722 0.80371,0.66702 3.70046,1.29412 3.70046,0.80108 z m -0.37947,-33.47065 1.98013,-3.56655 -3.22481,0.17769 c -1.77365,0.0977 -3.28013,0.23302 -3.34774,0.30062 -0.11114,0.11115 0.17759,1.02687 1.66943,5.29479 0.26147,0.748 0.58057,1.36 0.70913,1.36 0.12855,0 1.12479,-1.60495 2.21386,-3.56655 z m 43.06472,1.64007 c 0.28311,-0.70756 0.51475,-1.47724 0.51475,-1.7104 0,-0.75153 -1.07859,-1.4221 -2.78156,-1.72931 l -1.66155,-0.29974 0.81956,1.61733 c 0.91746,1.81053 2.02812,3.4086 2.36898,3.4086 0.12379,0 0.45671,-0.57892 0.73982,-1.28648 z m -22.91195,-14.34816 c -0.57932,-1.07509 -1.15073,-1.95711 -1.26982,-1.96004 -0.21407,-0.005 -2.18348,3.25893 -2.18348,3.61901 0,0.15344 4.10911,0.466 4.4133,0.3357 0.0513,-0.022 -0.38069,-0.91959 -0.96,-1.99467 z m -125.38549,69.31463 c -1.07322,-0.54119 -1.61377,-1.09484 -2.17663,-2.22935 -0.6768,-1.3642 -0.79282,-2.28737 -1.20648,-9.6 -0.25172,-4.44985 -0.54738,-14.01735 -0.65703,-21.26111 -0.19651,-12.98215 -0.209,-13.17504 -0.87351,-13.4908 -1.31192,-0.62337 -6.97312,-1.01879 -14.65546,-1.02364 l -7.7787,-0.005 -0.83969,-2.15509 c -0.56724,-1.45583 -0.74894,-2.32997 -0.56,-2.69406 0.15383,-0.29643 0.27969,-1.02732 0.27969,-1.62422 0,-1.12055 0.82514,-2.16259 2.06069,-2.60237 0.34137,-0.12151 5.16537,-0.36047 10.72,-0.53101 11.31819,-0.3475 12.02314,-0.41555 12.34848,-1.19214 0.12703,-0.30321 0.36115,-3.86329 0.52027,-7.91129 0.15913,-4.048 0.5011,-8.8982 0.75994,-10.77821 0.25884,-1.88001 0.47062,-4.21727 0.47062,-5.1939 0,-1.64642 0.0607,-1.79094 0.83385,-1.98498 0.45861,-0.11511 1.94217,-0.11685 3.29678,-0.004 1.44376,0.1204 4.38572,0.0121 7.10957,-0.26166 5.77095,-0.58006 6.04047,-0.5256 6.03771,1.21995 -0.006,3.54795 -0.96576,12.807 -1.3962,13.46394 -0.28365,0.4329 -0.54262,1.99551 -0.6699,4.04222 -0.11412,1.83508 -0.35582,4.01216 -0.53711,4.83794 -0.18129,0.82578 -0.23139,1.81093 -0.11132,2.18921 0.46306,1.45899 3.5534,1.90973 8.95662,1.30637 1.232,-0.13758 4.04,-0.11667 6.24,0.0465 2.2,0.16314 4.828,0.2748 5.84,0.24815 l 1.84,-0.0485 v 4.47225 c 0,2.45973 -0.09,4.70676 -0.19999,4.9934 -0.18002,0.46913 -1.30634,0.51578 -11.28,0.46726 -11.76954,-0.0573 -12.54794,0.0276 -13.8678,1.51147 -1.47399,1.65718 -1.69006,2.84544 -1.737,9.55246 -0.0429,6.13509 -0.47997,18.95676 -1.01295,29.71798 l -0.2515,5.07799 -1.18068,1.08201 c -1.05779,0.9694 -1.37395,1.08201 -3.03757,1.08201 -1.28929,0 -2.29335,-0.22008 -3.2847,-0.72 z m -112.62781,-1.86341 c -3.38545,-0.38029 -6.10743,-1.1182 -11.74626,-3.18434 -12.85529,-4.71033 -17.03437,-7.40558 -22.31573,-14.39224 -5.01184,-6.63014 -5.84258,-8.49011 -6.43158,-14.4 -0.21925,-2.2 -0.62358,-4.576 -0.89849,-5.28 -1.14063,-2.92094 -0.41677,-9.37082 1.7418,-15.52 0.52515,-1.496 1.52377,-4.36025 2.21917,-6.36499 2.86524,-8.26011 7.44754,-15.12472 13.2545,-19.85618 3.13006,-2.55035 4.47924,-3.34581 8.16594,-4.81459 8.09777,-3.22614 14.41304,-4.37596 22.06311,-4.01703 4.21599,0.19781 5.23369,0.37766 11.84,2.09239 3.97515,1.03179 8.15485,2.24598 9.28822,2.69819 1.13337,0.45221 2.35737,0.82537 2.72,0.82923 1.1346,0.0121 3.27349,1.16365 5.96033,3.20897 3.68712,2.80676 3.82811,3.10663 3.65963,7.78354 -0.0758,2.10411 -0.2867,3.97453 -0.46866,4.15649 -0.76461,0.76461 -2.44654,0.24644 -5.61198,-1.72894 -1.76,-1.09832 -3.43137,-2.19638 -3.71415,-2.44012 -0.84109,-0.72498 -4.0058,-1.70745 -6.53145,-2.02767 -2.17902,-0.27628 -2.70063,-0.21375 -6.77755,0.8124 -6.14741,1.54728 -11.68049,3.9357 -14.93603,6.4473 -0.72645,0.56045 -2.04082,1.44434 -2.92082,1.9642 -1.73207,1.02322 -7.18889,5.91965 -9.57931,8.59556 -1.94824,2.18092 -3.47523,4.75726 -4.69632,7.92363 -0.77773,2.01674 -1.09102,3.54814 -1.44104,7.04413 -0.49094,4.90355 -0.35881,6.34009 0.95099,10.33885 1.12298,3.42842 2.57922,5.54798 6.28568,9.14881 9.14089,8.88036 19.43325,12.18625 32.05902,10.29731 5.97236,-0.89352 7.51947,-1.68582 12.98827,-6.65148 1.30837,-1.188 2.66832,-2.16 3.02212,-2.16 0.58512,0 0.62326,0.13737 0.42199,1.52 -0.1217,0.836 -0.41704,1.82519 -0.65633,2.1982 -0.23928,0.37301 -2.80289,2.91237 -5.69692,5.64301 -5.53772,5.22508 -7.4508,6.55073 -12.01729,8.3272 -1.34247,0.52226 -3.52086,1.14631 -4.84086,1.3868 -3.12718,0.56972 -11.89742,0.81032 -15.36,0.42137 z M 72.474101,187.03471 c -0.712165,-0.2292 -2.353428,-1.04561 -3.647251,-1.81426 -2.029417,-1.20565 -2.4539,-1.61934 -3.091612,-3.013 -0.846238,-1.84936 -1.609772,-4.66295 -2.16216,-7.96746 l -0.382467,-2.28799 -2.870832,-0.23261 c -4.972799,-0.40291 -8.797796,-1.50059 -11.51599,-3.30483 -1.991813,-1.32209 -4.471685,-4.73411 -5.565425,-7.65739 -0.810324,-2.16579 -0.917002,-6.31318 -0.206147,-8.01449 0.846085,-2.02497 4.801846,-6.40477 6.809667,-7.53963 3.205358,-1.81174 5.580226,-3.53335 5.40599,-3.91896 -3.29037,-7.28202 -4.602597,-12.33915 -4.233174,-16.314 0.541901,-5.83063 6.206772,-12.12733 11.355537,-12.62206 1.805096,-0.17345 7.584833,1.19126 9.154983,2.16166 l 1.03885,0.64205 0.892473,-1.35987 c 1.76634,-2.69139 5.939351,-6.63454 8.312403,-7.85454 2.229161,-1.14601 2.260129,-1.15163 6.4,-1.1609 3.597225,-0.008 4.406825,0.0894 5.984522,0.72032 2.562185,1.02465 4.925125,3.22597 5.496435,5.1205 0.24792,0.82211 0.754117,2.25608 1.124897,3.18659 0.50047,1.256 0.67415,2.39452 0.67415,4.41938 v 2.72753 l 2.16,-0.20802 c 3.38123,-0.32563 7.68772,0.55037 10.59876,2.15593 3.0896,1.70405 4.24967,2.7598 6.18668,5.63032 2.78239,4.12332 3.24073,5.43777 3.39694,9.74176 l 0.13641,3.75874 -1.2985,1.71985 c -0.71417,0.94592 -2.51959,2.84644 -4.01202,4.22339 l -2.71353,2.50353 0.88884,1.29787 c 1.39376,2.03517 2.12535,3.6539 2.90057,6.41788 0.6134,2.18704 0.68848,3.01455 0.51531,5.68011 -0.24257,3.73399 -0.61862,4.91667 -2.65063,8.3363 -2.10506,3.54255 -3.95964,5.34009 -7.18018,6.95935 -2.45705,1.23538 -2.80832,1.32618 -4.46186,1.15335 -1.93276,-0.20202 -6.568407,-1.72684 -9.018077,-2.96636 l -1.51128,-0.7647 -0.532413,1.04097 c -0.718738,1.40527 -3.398338,4.75808 -4.75396,5.94833 -0.605625,0.53175 -2.355981,1.58913 -3.88968,2.34973 l -2.788544,1.38291 -4.82642,0.0697 c -3.266122,0.0472 -5.245021,-0.065 -6.121265,-0.347 z m 12.437738,-8.25147 c 0.848591,-0.7261 2.251909,-2.32978 3.118485,-3.56374 l 1.575593,-2.24356 -3.416126,-2.35197 c -1.87887,-1.29359 -3.555295,-2.35197 -3.725389,-2.35197 -0.170095,0 -1.657878,0.432 -3.306186,0.96 -1.648308,0.528 -3.175201,0.9622 -3.393096,0.9649 -1.572511,0.0195 -1.250299,1.78363 0.955312,5.23057 3.682141,5.75446 4.835731,6.22705 8.191407,3.35577 z M 112.29569,166.9385 c 1.35876,-0.84856 1.65886,-2.96518 0.85693,-6.04399 -0.65083,-2.49872 -1.69377,-5.13677 -2.38324,-6.02828 l -0.59223,-0.76577 -5.2441,3.06315 -5.244107,3.06316 -0.20761,1.86261 c -0.11419,1.02444 -0.31003,2.3198 -0.4352,2.87858 l -0.22757,1.01597 2.195187,0.64657 c 1.20736,0.35562 2.7712,0.71184 3.4752,0.79162 2.14138,0.24266 7.13958,-0.067 7.80674,-0.48362 z m -49.319388,-9.18189 0.08736,-5.87539 -1.793017,-2.1916 -1.793017,-2.1916 -2.934339,2.30156 c -6.368491,4.99517 -8.50805,7.79774 -7.702592,10.08949 0.372069,1.05865 3.063481,2.87887 4.604211,3.11387 0.618223,0.0943 1.700043,0.29563 2.404043,0.44741 0.704,0.15178 2.575999,0.25474 4.159999,0.22881 l 2.88,-0.0472 z m 10.312644,3.81427 c 0,-0.16561 -0.144,-0.39011 -0.32,-0.49888 -0.176,-0.10878 -0.32,0.0267 -0.32,0.30111 0,0.27439 0.144,0.49889 0.32,0.49889 0.176,0 0.32,-0.13551 0.32,-0.30112 z m 14.472898,-5.56873 c 4.921695,-2.5601 6.905238,-3.81943 7.135333,-4.53015 0.113959,-0.352 0.284436,-3.45341 0.378836,-6.89201 l 0.17164,-6.252 -1.239355,-0.94734 c -0.681644,-0.52103 -2.655277,-1.90869 -4.385852,-3.08368 l -3.146499,-2.13634 -2.082913,0.784 c -3.834027,1.44313 -6.006096,2.43227 -8.501638,3.8716 -1.362653,0.78593 -2.536319,1.52499 -2.608147,1.64236 -0.07183,0.11737 -0.312603,2.43895 -0.535056,5.15907 l -0.404459,4.94566 1.892606,1.73263 c 2.660518,2.43562 9.17762,7.35332 9.805505,7.39907 0.128094,0.009 1.712094,-0.75245 3.519999,-1.69287 z m 15.607106,-9.81455 c 0,-0.11222 -0.34062,-0.52404 -0.75694,-0.91515 l -0.75693,-0.7111 -0.20307,1.01532 c -0.11168,0.55843 -0.20306,1.28964 -0.20306,1.62491 0,0.57717 0.051,0.57185 0.96,-0.10018 0.528,-0.39037 0.96,-0.80158 0.96,-0.9138 z m 6.15842,-5.6756 c 1.17418,-1.2328 3.8069,-6.82066 3.99001,-8.46869 0.12745,-1.14696 0.0271,-1.48829 -0.61329,-2.08628 -1.27436,-1.18996 -4.25191,-2.0376 -7.85514,-2.23618 l -3.28,-0.18077 v 4.16741 4.16741 l 1.52,1.22721 c 0.836,0.67497 1.63405,1.41034 1.77344,1.63416 0.29598,0.47524 3.09798,2.65573 3.4127,2.65573 0.11777,0 0.59129,-0.396 1.05228,-0.88 z m -45.298656,-4.16712 c 0.53143,-0.41988 0.903389,-1.46829 1.546208,-4.35815 0.465542,-2.0929 1.328032,-5.18751 1.916644,-6.87692 0.588611,-1.68941 1.029148,-3.11271 0.97897,-3.16289 -0.05018,-0.0502 -1.299562,-0.58893 -2.776411,-1.19722 -2.911184,-1.19908 -4.502039,-1.36994 -6.189699,-0.66479 -1.2966,0.54175 -1.634079,1.11138 -1.911883,3.22709 -0.26438,2.01347 0.753873,5.5765 2.699633,9.44642 2.248231,4.47151 2.414443,4.63104 3.736538,3.58646 z m 13.886692,-7.47173 c 2.115315,-1.07493 2.116881,-1.04531 -0.11768,-2.22576 l -1.211219,-0.63985 -0.447053,1.06995 c -0.711523,1.70291 -0.920415,2.79451 -0.534769,2.79451 0.189816,0 1.22964,-0.44948 2.310721,-0.99885 z m 11.17354,-4.736 c 2.962934,-1.00858 4.973511,-2.06869 4.904655,-2.58605 -0.45071,-3.38649 -1.227093,-7.43212 -1.609853,-8.38873 -0.598362,-1.49546 -2.414091,-3.13037 -3.476575,-3.13037 -1.423232,0 -3.774406,1.47601 -5.486208,3.44411 -1.560424,1.79406 -3.932019,5.44807 -3.932019,6.05823 0,0.28905 7.214125,5.16704 7.68,5.193 0.088,0.005 0.952,-0.26068 1.92,-0.59019 z M 249.93976,57.80109 c -0.43663,-0.23082 -0.92228,-0.88125 -1.08709,-1.45592 -0.40323,-1.40598 0.22846,-2.05553 3.04608,-3.1322 4.28068,-1.63574 7.8764,-4.67366 9.41375,-7.95342 1.78892,-3.81645 1.73502,-8.056677 -0.22115,-17.397796 l -1.02409,-4.890248 -1.54248,2.920252 c -1.96741,3.724737 -3.97991,6.538341 -6.80092,9.508135 -2.58181,2.717969 -4.29184,3.827984 -6.3269,4.106917 -2.81611,0.38599 -4.37963,-1.233901 -4.66887,-4.837208 -0.42814,-5.333678 4.05229,-14.869207 9.0913,-19.348666 3.69117,-3.281296 7.92399,-3.73456 9.06866,-0.971101 l 0.40924,0.988013 0.60829,-0.652922 c 0.72707,-0.780419 1.26108,-0.815332 2.51925,-0.164706 0.85428,0.441764 0.94411,0.640279 0.94411,2.086337 0,0.878965 0.73673,5.015267 1.63717,9.191782 1.30303,6.043837 1.67029,8.410041 1.79944,11.593663 0.19768,4.872638 -0.15964,6.805028 -1.91087,10.334138 -3.06942,6.18551 -11.5302,11.88544 -14.95492,10.07495 z m -2.93198,-23.268089 c 1.35255,-0.690017 4.19212,-3.627341 6.34913,-6.567691 1.41181,-1.924516 4.89203,-8.58676 4.89203,-9.364885 0,-0.224632 -0.28293,-0.408423 -0.62874,-0.408423 -0.34581,0 -0.79108,-0.303344 -0.98951,-0.674098 -0.48062,-0.898063 -1.78325,-0.640571 -3.69126,0.729659 -4.33872,3.115831 -9.32392,13.436564 -7.8345,16.219567 0.44525,0.831966 0.40398,0.830537 1.90285,0.06587 z M 84.808946,46.352 c -0.352,-0.352 -0.64,-0.9784 -0.64,-1.392 0,-0.72884 3.07994,-10.125546 4.459688,-13.606224 0.464374,-1.171474 0.55022,-1.668 0.269779,-1.560385 -0.226231,0.08681 -1.460126,0.412752 -2.74199,0.724309 -1.806616,0.439099 -2.505948,0.486602 -3.110241,0.211268 -1.503331,-0.684963 -1.451374,-3.231823 0.07869,-3.857415 0.486239,-0.198806 2.252071,-0.654537 3.924071,-1.012734 4.191019,-0.897855 4.050149,-0.828914 4.407191,-2.156834 1.464067,-5.445187 5.000319,-17.0129105 5.377259,-17.5899825 0.33175,-0.507889 0.7836,-0.72 1.53376,-0.72 0.58491,0 1.50718,-0.221356 2.049497,-0.491901 1.29718,-0.647122 2.46106,-0.330669 3.41951,0.92975 1.37041,1.802179 3.36953,6.3537145 4.86749,11.0821515 0.80846,2.551999 1.52605,4.703159 1.59463,4.780353 0.0686,0.07719 0.74836,-0.162643 1.51061,-0.532973 1.15524,-0.561259 1.51358,-0.60998 2.15298,-0.292725 0.61661,0.305949 0.78591,0.670217 0.86314,1.857109 0.0833,1.280033 -0.0183,1.56644 -0.76316,2.15237 -0.47257,0.371726 -1.1913,0.675865 -1.59718,0.675865 -0.40588,0 -0.81267,0.120885 -0.90399,0.268632 -0.0913,0.147747 0.40868,2.991747 1.11109,6.32 0.7024,3.328252 1.4346,6.79792 1.62709,7.710376 0.45044,2.1351 0.18993,3.124 -0.94701,3.59493 -1.2494,0.51752 -2.40161,0.0187 -3.03368,-1.31324 -0.2799,-0.58985 -0.88213,-3.157814 -1.33828,-5.706579 -1.12089,-6.263016 -1.78734,-9.384423 -2.06745,-9.683122 -0.12843,-0.136951 -3.05361,0.21049 -6.50039,0.772092 l -6.266883,1.021094 -2.257742,6.907908 c -1.241757,3.79935 -2.480478,7.729197 -2.752713,8.732987 -0.541568,1.99689 -1.354383,2.81492 -2.796971,2.81492 -0.488839,0 -1.176798,-0.288 -1.528798,-0.64 z m 16.526734,-23.064503 4.81072,-0.756844 -1.08078,-3.689325 c -1.09464,-3.736623 -3.66357,-9.6093255 -4.20348,-9.6093255 -0.42794,0 -1.363527,2.3610495 -3.233467,8.1600005 -0.90805,2.815999 -1.78616,5.532324 -1.95136,6.036275 -0.26193,0.799015 -0.22691,0.897066 0.27364,0.766169 0.31571,-0.08256 2.73883,-0.490686 5.384727,-0.90695 z M 273.07661,43.15227 c -0.88384,-0.3564 -0.98585,-1.45385 -1.21962,-13.120268 -0.2194,-10.949841 -0.67871,-19.272458 -1.31326,-23.7966535 -0.45726,-3.26007 -0.45278,-3.515173 0.0719,-4.094955 0.42825,-0.473211 0.90142,-0.596019 2.01642,-0.523346 1.36519,0.08898 1.48098,0.168819 1.84001,1.268696 0.5644,1.729025 1.05356,10.2490255 1.08058,18.8207975 0.013,4.139004 0.12105,8.160877 0.24,8.937496 l 0.21628,1.412034 1.56242,-3.652034 c 4.11,-9.606803 8.51252,-15.901889 11.51504,-16.465166 1.79098,-0.335991 3.36282,0.640345 4.44694,2.762185 1.57011,3.073019 1.84699,5.290882 2.05629,16.471237 l 0.19207,10.260287 -0.88953,0.69971 c -1.04035,0.81834 -1.98997,0.88943 -2.94505,0.22046 -0.68034,-0.47653 -0.68325,-0.53517 -0.5116,-10.319999 0.17727,-10.105257 0.0115,-12.407894 -1.05482,-14.655072 -0.28856,-0.608122 -0.71091,-1.105676 -0.93854,-1.105676 -1.05775,0 -3.50882,3.502828 -5.9338,8.479999 -2.42252,4.972118 -6.49769,14.444919 -6.89476,16.026978 -0.23892,0.95193 -1.81777,2.70071 -2.41302,2.67274 -0.23739,-0.0112 -0.74317,-0.14591 -1.12395,-0.29945 z m 83.52384,10e-4 c -0.82696,-0.33362 -0.95416,-1.80565 -1.23058,-14.241689 -0.23015,-10.354256 -0.68816,-18.327553 -1.3026,-22.6766535 -0.46093,-3.262582 -0.45672,-3.514726 0.0684,-4.094955 0.42825,-0.473211 0.90142,-0.596019 2.01642,-0.523346 1.36138,0.08873 1.48166,0.170886 1.83498,1.253349 0.54626,1.673553 1.06163,9.9244405 1.06355,17.0270625 9.1e-4,3.373999 0.095,7.543766 0.20902,9.266149 l 0.20737,3.131607 1.21051,-2.891113 c 4.27698,-10.214879 8.80635,-16.837213 11.91473,-17.420348 2.65047,-0.49723 4.58723,1.585674 5.73464,6.167354 0.51509,2.056767 0.63937,4.081166 0.78972,12.863813 l 0.17843,10.42292 -0.88619,0.69708 c -1.03522,0.8143 -1.98729,0.88633 -2.93561,0.22211 -0.67217,-0.47081 -0.67666,-0.56128 -0.51215,-10.320003 0.17031,-10.102658 0.003,-12.418948 -1.06037,-14.659349 -0.2886,-0.608101 -0.71095,-1.105655 -0.93859,-1.105655 -1.01122,0 -3.44212,3.438197 -5.74241,8.121893 -2.35702,4.799194 -5.57869,12.202783 -6.75742,15.528894 -0.64142,1.80997 -2.00388,3.5636 -2.74175,3.52893 -0.23738,-0.0112 -0.74143,-0.14527 -1.1201,-0.29803 z m 74.55294,-1.29589 c -3.75736,-0.74294 -4.46993,-2.44083 -2.30208,-5.485302 0.53391,-0.749812 0.86639,-0.916486 1.67203,-0.838206 0.7592,0.07377 1.03044,0.272521 1.10699,0.811136 0.1443,1.015316 2.10971,1.466659 5.65861,1.299464 3.40408,-0.160372 5.411,-1.017722 7.31458,-3.124761 1.40621,-1.556504 1.80542,-2.480392 1.80542,-4.178295 0,-1.001983 -0.22283,-1.471325 -1.1285,-2.377 -1.53726,-1.537262 -2.69337,-2.077635 -9.26551,-4.330782 -6.30459,-2.161418 -8.23865,-3.043475 -9.93052,-4.528959 -1.58755,-1.393879 -2.07547,-2.492079 -2.07547,-4.671358 0,-1.540682 0.18317,-2.175527 1.04,-3.604481 2.53161,-4.2220285 10.2054,-8.2942005 17.48208,-9.2770325 4.73355,-0.63934299 6.11792,0.02586 6.11792,2.939721 0,2.031772 -0.70011,2.454453 -2.76148,1.667209 -1.22993,-0.469715 -1.77024,-0.501879 -3.58341,-0.213316 -3.15304,0.501799 -7.32067,2.139674 -10.11901,3.976756 -3.7929,2.4900015 -4.60504,4.4012845 -2.6561,6.2508095 1.44013,1.366669 2.1387,1.673838 8.96203,3.940703 10.0065,3.324391 12.52799,5.401778 12.50194,10.300031 -0.0143,2.693469 -1.09367,5.057087 -3.33102,7.294439 -1.80601,1.806004 -5.40568,3.694514 -7.93663,4.163814 -2.01166,0.37301 -6.65156,0.36511 -8.57187,-0.0146 z m 55.10856,-0.0967 c -0.63807,-0.46657 -0.70984,-1.15185 -1.44628,-13.809083 -0.19456,-3.344 -0.57945,-7.989202 -0.85529,-10.322672 -0.465,-3.933479 -0.46265,-4.302032 0.0322,-5.057198 0.29353,-0.447989 0.74163,-0.894316 0.99577,-0.991838 0.84325,-0.323585 2.04271,0.208828 2.51112,1.114624 0.5499,1.063393 1.04981,6.151825 1.34919,13.732986 l 0.21782,5.515902 1.70649,-4.555902 c 4.02585,-10.748057 6.12992,-14.462015 8.66762,-15.299532 1.52377,-0.502889 2.82805,0.09403 3.62689,1.659871 0.67821,1.329409 1.23066,5.522181 1.28122,9.723759 0.0266,2.207591 0.0771,2.427847 0.36734,1.6 1.17394,-3.348812 2.98378,-7.569775 3.77349,-8.800621 2.19902,-3.427409 5.30882,-3.391716 7.0806,0.08127 1.61585,3.167333 2.40336,8.198279 2.72436,17.404364 l 0.21357,6.12501 -0.83499,0.83499 c -0.94217,0.94216 -1.69759,1.04798 -2.66152,0.37282 -0.62207,-0.43572 -0.67214,-0.87994 -0.87457,-7.760002 -0.26383,-8.966665 -0.77964,-13.23678 -1.78837,-14.805103 -0.46249,-0.71905 -1.43378,0.332876 -2.61982,2.837309 -1.13184,2.390009 -4.07465,11.058826 -5.06149,14.909966 -0.7134,2.784026 -1.41814,3.68 -2.89458,3.68 -1.64759,0 -1.6666,-0.14022 -1.41941,-10.472057 0.1257,-5.254248 0.12462,-10.246237 -0.002,-11.093308 l -0.23096,-1.540128 -0.82301,0.752747 c -1.47007,1.344554 -6.02911,12.113496 -8.7656,20.705293 -1.10839,3.480013 -2.59321,4.682153 -4.26934,3.456533 z M 9.8073269,40.352 C 9.5361479,39.516 8.5779069,35.520002 7.6779039,31.472002 4.1610804,15.654159 2.404022,9.4753505 0.95269646,7.8223825 c -1.9113868,-2.176949 -0.8252565,-4.35038 2.17401904,-4.35038 2.0092824,0 2.3858244,0.342409 3.2497364,2.955155 0.589677,1.783373 4.0581921,15.7147945 5.7175711,22.9648445 l 0.622549,2.72 1.138555,-3.52 c 0.626205,-1.936 1.65925,-5.464 2.295655,-7.84 1.631936,-6.092787 3.294478,-11.2130635 4.037654,-12.4351185 0.724147,-1.190765 2.586935,-2.102926 3.715886,-1.819577 0.420463,0.105529 1.044375,0.652126 1.386471,1.214658 0.986394,1.621995 3.367818,8.4052125 5.81383,16.5600375 1.240579,4.136 2.357965,7.708362 2.483081,7.938582 0.296374,0.545346 1.183254,-3.146651 1.784132,-7.427169 0.688504,-4.904748 1.210385,-15.1688395 0.985963,-19.3914125 -0.229885,-4.325347 0.04355,-5.22320599 1.638068,-5.37875499 1.331173,-0.129859 2.914601,0.714337 3.15787,1.68360099 0.239199,0.953043 -0.362198,11.8177475 -1.001626,18.0951535 -1.08568,10.658353 -3.751354,19.448366 -6.07479,20.031508 C 31.807055,40.39331 31.3133,39.62044 28.639715,31.312002 26.121744,23.487156 23.819749,16.662187 23.191554,15.15926 L 22.659571,13.886517 19.82152,23.45687 C 14.595382,41.08023 14.240999,41.872 11.57928,41.872 c -1.243168,0 -1.292672,-0.0425 -1.7719531,-1.52 z m 224.6898031,0.32 c -1.40265,-1.599738 -2.47591,-5.381515 -2.48346,-8.750838 -0.003,-1.160962 -0.0987,-3.435222 -0.21363,-5.05391 l -0.20891,-2.94307 -1.51847,2.874792 c -3.03623,5.748247 -7.2755,11.659876 -9.38827,13.091896 -0.8395,0.569 -1.43968,0.71614 -2.61058,0.64 -2.64735,-0.17214 -3.3248,-1.823929 -3.33723,-8.136951 -0.014,-7.136507 2.22325,-16.535739 4.39477,-18.463105 0.44586,-0.395724 1.03742,-0.548898 1.8538,-0.48 1.92994,0.162879 2.04877,0.782311 0.70511,3.675825 -2.32121,4.998653 -3.10758,8.666262 -3.11008,14.505363 -0.002,3.93158 0.23761,4.59965 1.31356,3.667276 3.38842,-2.936253 9.65211,-13.800615 11.14671,-19.333931 0.35457,-1.312661 0.83905,-2.581045 1.07664,-2.818631 0.56222,-0.562222 1.88124,-0.232715 2.69148,0.672361 0.564,0.630026 0.65279,1.535311 0.97812,9.972925 0.1968,5.104 0.52029,9.856 0.71888,10.56 0.19859,0.704 0.79154,1.958466 1.31769,2.787702 0.69048,1.088251 0.89449,1.711432 0.7333,2.239996 -0.38835,1.27348 -1.13445,1.8523 -2.38762,1.8523 -0.72419,0 -1.37067,-0.21655 -1.67181,-0.56 z m -47.28818,-0.29997 c -1.35702,-0.70278 -2.23883,-2.342941 -2.23951,-4.165472 -0.002,-5.909708 10.21045,-19.869801 16.68529,-22.807854 1.81393,-0.823098 2.94052,-0.807753 4.48646,0.06111 1.89043,1.062484 2.58753,2.406797 2.456,4.736248 -0.0595,1.054409 -0.0114,1.916844 0.10694,1.916524 0.55536,-0.0015 0.86335,2.632948 1.04298,8.921566 0.15742,5.511021 0.29748,7.014874 0.7199,7.729975 0.44265,0.749339 0.46198,1.038648 0.12395,1.854717 -0.59988,1.448246 -1.40379,2.033346 -2.63208,1.915666 -0.85605,-0.082 -1.18179,-0.32641 -1.62944,-1.222508 -0.46968,-0.940201 -0.55958,-2.03415 -0.56,-6.814385 l -5e-4,-5.694384 -2.55055,3.815677 c -4.27002,6.388024 -8.67811,9.82787 -13.04993,10.18351 -1.37514,0.11186 -2.12225,0.003 -2.95951,-0.43039 z m 6.39,-5.054963 c 2.101,-1.064656 5.90429,-5.209851 8.45514,-9.215213 3.16046,-4.962601 3.79051,-7.194198 2.41849,-8.56622 -0.82599,-0.82599 -1.5371,-0.632684 -3.66364,0.99591 -5.1363,3.933614 -12.49197,15.490006 -11.19507,17.588433 0.30968,0.501061 2.13926,0.132439 3.98508,-0.80291 z m 261.91356,5.119783 c -1.99698,-1.02916 -2.74554,-3.555936 -1.90748,-6.438753 1.39185,-4.787791 5.25641,-10.674759 10.39294,-15.831782 5.36491,-5.386312 8.04979,-6.477411 10.91632,-4.436259 1.37921,0.982081 2.34247,3.21413 2.08418,4.829403 -0.1335,0.834849 -0.0468,1.475703 0.26489,1.956954 0.35118,0.542282 0.51812,2.498096 0.68933,8.075589 0.16496,5.373973 0.34335,7.530324 0.66109,7.991202 0.60212,0.873386 0.54279,1.748349 -0.20134,2.968796 -0.51776,0.8492 -0.83624,1.04 -1.73594,1.04 -2.35909,0 -2.86926,-1.643374 -2.69449,-8.679593 l 0.13016,-5.240405 -2.45854,3.685942 c -2.91623,4.372128 -6.64025,8.112402 -9.35658,9.397436 -2.31017,1.09288 -5.38664,1.4019 -6.78454,0.68147 z m 6.25315,-5.05846 c 2.81312,-1.327065 7.68317,-7.179464 10.70735,-12.867157 1.12865,-2.122711 1.13804,-4.41342 0.0211,-5.14528 -0.75303,-0.493402 -0.86735,-0.478316 -2.17281,0.286735 -3.85497,2.259163 -10.65743,11.226711 -12.24425,16.141344 -0.89697,2.778075 0.17873,3.240117 3.68863,1.584358 z M 49.412259,40.09305 c -1.95788,-0.72193 -3.768777,-2.436077 -4.613625,-4.367127 -0.620714,-1.418754 -0.73703,-2.213741 -0.716043,-4.893921 0.04261,-5.441493 2.09903,-10.389651 5.947486,-14.310852 2.581466,-2.630262 5.044399,-3.768559 8.154761,-3.768895 1.436922,-1.55e-4 2.688357,0.182015 3.251745,0.473354 2.428757,1.255959 3.021066,4.129206 1.331913,6.461014 -1.720858,2.375575 -6.415865,4.857028 -11.496961,6.076491 -2.611365,0.626728 -2.611676,0.627245 -2.618219,4.364779 -0.0067,3.822613 1.264263,5.633972 4.147513,5.911016 4.257908,0.409131 7.160871,-1.986693 10.768053,-8.886907 0.720276,-1.377823 1.104754,-1.781369 1.770595,-1.858411 0.706765,-0.08178 0.883281,0.05345 1.044288,0.8 0.208983,0.969007 -0.0025,1.86884 -1.062065,4.519442 -1.495442,3.740906 -4.610959,7.440817 -7.525355,8.936927 -2.038107,1.04626 -6.275142,1.32072 -8.384086,0.54309 z m 5.482104,-19.318675 c 1.410979,-0.655025 3.111466,-1.670393 3.778861,-2.256374 1.080007,-0.948258 1.160525,-1.118339 0.732206,-1.546658 -0.641318,-0.641317 -3.02767,-0.586496 -4.355311,0.100053 -1.235415,0.638858 -3.439687,2.860719 -4.27922,4.313367 l -0.598047,1.034804 1.078047,-0.227119 c 0.592926,-0.124915 2.232485,-0.763048 3.643464,-1.418073 z M 389.62744,40.11452 c -2.611,-0.930123 -4.39565,-2.93239 -5.12486,-5.74975 -0.95966,-3.70774 -0.31508,-7.91283 1.92468,-12.556134 1.65155,-3.423892 4.69938,-6.781374 7.34168,-8.087591 1.86877,-0.923823 5.52652,-1.254147 7.32283,-0.66131 2.47041,0.815309 3.44297,3.43032 2.22802,5.99065 -1.0799,2.275724 -6.22571,5.243298 -11.4046,6.577001 -3.22265,0.829918 -3.19742,0.794336 -3.23046,4.556166 -0.0347,3.947253 1.67028,5.92845 5.10184,5.92845 3.57059,0 6.68409,-2.695678 9.51433,-8.237522 1.17375,-2.298309 1.45733,-2.63977 2.19335,-2.64103 1.21793,-0.0021 1.39835,1.13089 0.57229,3.593966 -1.72243,5.135837 -5.52398,9.803424 -9.0296,11.086654 -2.17047,0.7945 -5.48983,0.8843 -7.4095,0.20045 z m 4.16698,-18.759535 c 2.17197,-0.812638 5.69905,-3.139347 5.83016,-3.845983 0.13774,-0.742378 -1.50032,-1.249739 -2.96695,-0.91896 -2.08818,0.470961 -4.65044,2.673129 -5.91684,5.085298 -0.38253,0.72862 -0.36221,0.753663 0.44673,0.550632 0.46612,-0.116988 1.63922,-0.508932 2.6069,-0.870987 z M 528.96686,40.29301 c -2.58956,-0.78771 -4.76311,-2.927271 -5.48009,-5.394403 -0.54954,-1.890978 -0.53908,-6.075932 0.021,-8.386605 0.95675,-3.947439 3.83382,-8.805859 6.51641,-11.004037 2.27268,-1.862289 4.53935,-2.749241 7.03506,-2.752836 1.19366,-0.0017 2.64548,0.195424 3.22628,0.438096 3.15674,1.318972 3.28065,5.372191 0.24172,7.907167 -1.78553,1.489428 -6.61365,3.741262 -9.71828,4.532598 -2.75944,0.703351 -2.80329,0.72996 -3.02593,1.836352 -0.12426,0.617463 -0.21303,2.009198 -0.19728,3.092745 0.0527,3.62231 1.83588,5.549915 5.1342,5.549915 3.51273,0 6.64833,-2.730119 9.46097,-8.237522 1.17376,-2.298309 1.45734,-2.63977 2.19336,-2.64103 1.14008,-0.002 1.36863,1.026296 0.71926,3.235949 -1.45219,4.941459 -5.62385,10.144201 -9.17658,11.444671 -1.89959,0.69535 -5.30033,0.88077 -6.95007,0.37894 z m 2.59917,-18.538723 c 2.48759,-0.855857 4.88056,-2.124179 6.20995,-3.291399 1.02414,-0.899206 1.09776,-1.063226 0.66944,-1.491545 -0.64022,-0.640219 -3.02687,-0.586909 -4.34971,0.09716 -1.31464,0.679826 -3.63895,2.993393 -4.30896,4.289043 -0.60215,1.164446 -0.5111,1.184749 1.77928,0.396741 z M 120.6849,39.59688 c -1.33061,-1.42825 -1.4305,-3.052814 -1.2079,-19.644878 0.12144,-9.052003 0.34933,-16.1764205 0.53912,-16.8543925 0.61057,-2.18102899 2.39546,-3.32070699 3.70109,-2.36319399 0.72123,0.52893299 0.72919,1.05965299 0.18269,12.17758749 -0.19898,4.048 -0.39985,10.383999 -0.44637,14.079999 -0.0805,6.394283 -0.0475,6.82273 0.68028,8.839459 0.98297,2.72383 0.79194,3.649139 -0.84736,4.104399 -1.65657,0.46006 -1.88483,0.43032 -2.60155,-0.33898 z m 11.09447,0.29298 c -0.30226,-0.22982 -0.80192,-0.993858 -1.11036,-1.697858 -0.51064,-1.165531 -0.55252,-2.49623 -0.46836,-14.88 0.10587,-15.5774315 0.36313,-20.4160665 1.14925,-21.6158415 1.07464,-1.64011099 3.20051,-1.76004599 3.5952,-0.20283 0.1197,0.472269 0.0452,4.314672 -0.16568,8.5386725 -0.21082,4.224 -0.47144,11.135999 -0.57915,15.359999 l -0.19585,7.68 0.84227,2.486737 c 0.46324,1.367706 0.84226,2.677387 0.84226,2.910404 0,1.171507 -2.86705,2.213377 -3.90958,1.420717 z m 201.02957,0.0689 c -0.41484,-0.26224 -0.48266,-2.302225 -0.49963,-15.028064 -0.0108,-8.098552 -0.0956,-14.80066 -0.18856,-14.893573 -0.22219,-0.2221965 -9.46314,1.011326 -12.05167,1.60871 -3.09671,0.714664 -4.36441,0.618991 -5.48367,-0.413855 -1.26322,-1.165697 -1.54509,-2.3913795 -0.736,-3.2004715 0.49807,-0.498065 1.2689,-0.655884 4.0281,-0.824707 3.31428,-0.202786 10.82777,-0.984499 12.93143,-1.345401 0.92444,-0.158596 1.04,-0.294465 1.04,-1.22276 0,-0.574386 0.19724,-1.314074 0.4383,-1.64375 0.64264,-0.878865 2.39876,-0.307783 3.2417,1.054187 0.51349,0.829657 0.80266,1.005178 1.46285,0.887917 4.22756,-0.750897 8.52311,-1.188268 10.76575,-1.096168 2.50364,0.10282 2.7648,0.17856 3.47911,1.009003 0.97168,1.129645 0.98104,2.183777 0.0292,3.290349 l -0.74309,0.863889 -2.14099,-0.425561 c -1.7367,-0.3452 -2.98225,-0.353508 -6.59607,-0.044 -5.14512,0.440662 -5.54826,0.54508 -5.28667,1.369292 0.10405,0.3278175 0.21634,6.6827645 0.24954,14.1221045 0.0472,10.581679 -0.0314,13.743427 -0.36127,14.524563 -0.60646,1.436216 -2.41082,2.146326 -3.57837,1.408296 z M 159.92347,39.072002 c -0.89839,-0.996901 -1.00505,-2.189472 -0.26225,-2.932269 0.6485,-0.648502 0.66771,-0.955701 0.66734,-10.667731 -2.8e-4,-7.279694 -0.14273,-11.175172 -0.52366,-14.319999 -0.72248,-5.9647295 -0.71152,-6.3629705 0.19543,-7.0973735 1.07263,-0.868562 2.60758,-0.667151 3.12091,0.409517 0.83688,1.755269 1.1151,5.6730855 1.27595,17.9678555 0.15034,11.491441 0.2169,12.719203 0.68909,12.711744 1.80685,-0.02854 7.64299,-0.752336 11.86288,-1.471231 l 4.94022,-0.841609 0.57978,0.715999 c 1.27702,1.577044 0.1625,4.477031 -1.72567,4.490233 -0.404,0.0028 -5.05454,0.361111 -10.33454,0.796191 -5.28,0.435079 -9.68569,0.792771 -9.79041,0.794861 -0.10472,0.002 -0.4175,-0.24819 -0.69507,-0.556188 z M 548.16894,13.072003 v -2.56 h -0.96 c -0.64,0 -0.96,-0.16 -0.96,-0.48 0,-0.3890205 0.51555,-0.4800005 2.72,-0.4800005 2.20444,0 2.72,0.09098 2.72,0.4800005 0,0.335238 -0.33778,0.48 -1.12,0.48 h -1.12 v 2.56 c 0,2.346666 -0.0533,2.56 -0.64,2.56 -0.58667,0 -0.64,-0.213334 -0.64,-2.56 z m 3.84,-0.48 c 0,-2.6843245 0.0655,-3.0392575 0.56,-3.0336505 0.32947,0.0037 0.95518,0.6730485 1.52,1.6259055 1.44722,2.441522 1.52018,2.448903 2.85353,0.288693 1.72695,-2.7978765 2.10647,-2.5962605 2.10647,1.119052 0,2.488888 -0.087,3.04 -0.48,3.04 -0.37432,0 -0.48238,-0.440352 -0.4908,-2 l -0.0108,-2 -1.02633,1.68 c -0.56448,0.924 -1.2108,1.68 -1.43626,1.68 -0.22545,0 -0.83875,-0.676193 -1.36287,-1.50265 l -0.95295,-1.50265 v 1.82265 c 0,1.609316 -0.0749,1.82265 -0.64,1.82265 -0.59509,0 -0.64,-0.213334 -0.64,-3.04 z"
       id="path1" />
  </g>
</svg>
