<?xml version="1.0" encoding="UTF-8" standalone="no"?>
<!-- Created with Inkscape (http://www.inkscape.org/) -->

<svg
   version="1.1"
   id="svg1"
   width="559.35999"
   height="225.60001"
   viewBox="0 0 559.35999 225.60001"
   xmlns="http://www.w3.org/2000/svg"
   xmlns:svg="http://www.w3.org/2000/svg">
  <defs
     id="defs1" />
  <g
     id="g1">
    <path
       style="fill:#000000"
       d="m 155.15551,224.4823 c -1.11461,-0.58834 -2.45857,-1.17409 -2.98657,-1.30167 -1.5068,-0.36407 -2.4,-1.08352 -2.4,-1.93313 0,-1.36011 0.77644,-1.77548 3.31885,-1.77548 1.37245,0 2.46931,-0.15617 2.69715,-0.384 0.75031,-0.75032 0.37559,-1.37892 -1.29714,-2.176 -1.41401,-0.6738 -1.74479,-1.00191 -2.09675,-2.07982 -0.55078,-1.68679 -0.33063,-2.51701 2.88513,-10.88018 3.408,-8.86312 15.15441,-35.81606 20.11807,-46.16227 0.86608,-1.80525 1.57469,-3.55161 1.57469,-3.88082 0,-1.03404 -0.85185,-1.3767 -4.07347,-1.63856 -3.70727,-0.30135 -4.50496,-0.57249 -5.63491,-1.91536 -0.99716,-1.18506 -1.08088,-2.38989 -0.39345,-5.66208 0.47343,-2.25352 1.58793,-8.9689 1.9552,-11.78092 0.20792,-1.59193 0.20617,-1.59596 -0.34779,-0.8 -0.30621,0.44 -1.58024,1.85488 -2.83117,3.14418 -2.81437,2.90069 -8.19382,6.18388 -12.83441,7.83311 -4.67274,1.66066 -6.12273,1.688 -7.57036,0.14271 -0.77247,-0.82457 -0.93295,-0.90021 -0.77474,-0.36517 0.12489,0.42236 0.0138,0.829 -0.29706,1.08696 -0.41458,0.34408 -0.61921,0.29696 -1.23895,-0.28525 -0.6218,-0.58415 -0.88349,-0.64374 -1.61145,-0.36697 -1.4191,0.53954 -3.53702,0.40914 -4.13785,-0.25476 -0.9305,-1.0282 -0.55244,-2.42407 0.85649,-3.16234 0.50682,-0.26557 -0.20727,-1.07448 -5.28,-5.98106 -6.43715,-6.22632 -6.74835,-6.35017 -5.21003,-2.07336 4.41308,12.26921 5.09943,15.1562 4.85535,20.42325 -0.17868,3.8557 -0.78804,6.29248 -2.33884,9.35285 -0.52895,1.04383 -0.70593,1.799 -0.57502,2.45357 0.38616,1.93079 -1.74608,2.8572 -4.2083,1.82841 -0.6106,-0.25512 -1.92679,-0.61482 -2.92486,-0.79932 -2.14575,-0.39667 -3.30438,-1.07442 -3.30438,-1.93292 0,-1.22165 1.88978,-1.6469 3.53589,-0.79567 1.19818,0.61961 1.18824,0.31009 -0.0501,-1.5594 -0.81095,-1.22432 -0.92167,-1.58825 -0.60081,-1.97486 0.21634,-0.26068 0.6587,-0.47396 0.98302,-0.47396 0.7997,0 2.68387,1.70166 3.16182,2.85554 0.82107,1.98223 1.69806,1.56245 3.07051,-1.46973 1.69902,-3.7537 2.24529,-8.68039 1.44872,-13.06581 -0.37317,-2.05445 -2.0238,-7.30892 -4.17176,-13.28 -1.02626,-2.85286 -1.28257,-3.95872 -1.14038,-4.92007 0.24788,-1.67581 0.70183,-2.43993 1.44952,-2.43993 0.3806,0 3.19199,2.51988 7.20823,6.46082 l 6.58427,6.46082 0.70051,-0.85807 c 0.52959,-0.6487 1.51063,-1.09662 4.02058,-1.83573 7.13049,-2.09972 9.19702,-3.94652 13.95124,-12.46784 3.54616,-6.35603 5.21921,-8.62089 9.58374,-12.97384 3.67504,-3.66529 4.54838,-4.36063 7.16763,-5.70678 2.99811,-1.54086 6.95789,-3.04718 8.19337,-3.11679 0.36518,-0.0206 -0.11947,-0.16733 -1.07699,-0.32614 -4.44878,-0.73781 -5.98794,-3.565072 -5.00525,-9.194062 0.55583,-3.18384 1.19286,-4.32925 2.29102,-4.11932 0.72687,0.13895 0.70885,0.0811 -0.33441,-1.07369 -1.33294,-1.47539 -2.41041,-3.50796 -2.41041,-4.54704 0,-1.85204 2.437,-2.42802 5.12,-1.21008 1.66183,0.75439 2.75611,0.80413 6.81869,0.30996 3.66703,-0.44605 5.33839,-0.0741 6.84481,1.52313 1.53973,1.6326 1.79412,2.98938 1.24537,6.64225 -0.43091,2.86839 -0.55674,3.18737 -1.96388,4.97844 -1.13354,1.44282 -1.45719,2.09334 -1.31534,2.64382 0.10348,0.40158 0.39694,1.63669 0.65213,2.744692 0.50534,2.19406 0.95354,2.94532 1.7574,2.94571 1.07162,5.1e-4 4.44582,1.88698 6.92081,3.86932 1.408,1.12773 4.40016,3.83929 6.64925,6.02569 l 4.08924,3.97526 2.66733,5.30474 c 2.13158,4.23924 2.70856,5.69038 2.87259,7.22473 0.11289,1.056 0.33803,2.568 0.50032,3.36 1.25502,6.12489 1.35487,7.21127 0.97348,10.59181 -0.27423,2.43078 -0.58266,3.6887 -1.14384,4.66518 -0.42846,0.74552 -0.76837,1.85617 -0.76837,2.5106 0,0.68277 -0.28368,1.57202 -0.67829,2.12619 -0.37306,0.52392 -0.87786,1.61569 -1.12178,2.42617 -0.58635,1.94829 -1.25668,2.64005 -2.55826,2.64005 -1.35749,0 -1.78121,-0.75623 -1.5144,-2.70282 0.14602,-1.06536 0.0478,-1.81682 -0.3541,-2.70799 -0.41609,-0.92271 -0.4722,-1.39043 -0.22273,-1.85658 0.45835,-0.85642 -0.38299,-7.21803 -1.56064,-11.80049 -1.07132,-4.16874 -2.58665,-7.75695 -2.78881,-6.60377 -0.0702,0.4006 0.0254,1.71469 0.21239,2.92021 0.52029,3.35336 0.73066,10.02118 0.44415,14.07815 -0.2431,3.44244 -0.30549,3.68245 -1.11369,4.28469 -0.47089,0.35088 -1.55469,0.70509 -2.40845,0.78713 l -1.5523,0.14915 -0.56746,2.44616 c -3.06821,13.22611 -4.7464,25.05275 -3.96555,27.94622 0.26301,0.97457 5.88011,5.53052 8.9806,7.28403 2.46198,1.39241 5.94329,4.21504 8.55829,6.93904 2.99589,3.12076 3.49103,3.8622 3.49103,5.22754 0,0.97689 0.22421,1.38562 1.28,2.33343 0.84382,0.7575 1.28,1.42095 1.28,1.9469 0,0.4388 -0.48158,2.50134 -1.07018,4.58341 -0.5886,2.08208 -1.20514,4.2896 -1.37009,4.9056 -0.25016,0.93421 -0.46201,1.13598 -1.27708,1.21634 -1.4636,0.1443 -1.85875,-0.57993 -2.04265,-3.74366 l -0.16,-2.75268 -1.81293,0.0956 c -2.30622,0.12161 -3.4839,-0.37518 -6.06065,-2.55664 -2.48293,-2.10204 -4.76677,-3.66437 -9.76429,-6.67957 -4.66719,-2.8159 -9.81124,-6.80008 -12.33313,-9.55228 -1.07483,-1.17299 -2.40578,-3.10628 -3.0807,-4.47492 l -1.18829,-2.40969 0.0856,-4.33125 0.0856,-4.33126 -1.24373,3.10046 c -0.68405,1.70526 -1.6058,3.72126 -2.04833,4.48 -0.44254,0.75875 -1.32891,2.64978 -1.96973,4.20229 -0.64081,1.55251 -1.75875,4.00051 -2.4843,5.44 -0.72556,1.43949 -2.85026,5.85726 -4.72156,9.81726 -1.8713,3.96 -3.86169,7.8675 -4.42309,8.68334 -0.56141,0.81584 -1.15638,2.08705 -1.32217,2.82491 -0.36335,1.61717 -0.37538,1.63063 -1.69869,1.90128 -1.10183,0.22535 -1.18953,0.37431 -1.88462,3.20103 -0.19077,0.77581 -0.7561,1.81981 -1.25629,2.32 -1.23702,1.23702 -2.60523,1.19462 -5.17209,-0.16028 z m 8.40966,-11.1523 c 0.81193,-1.35411 2.6619,-5.09811 4.11103,-8.32 1.44913,-3.22189 3.32152,-7.15398 4.16086,-8.73798 1.64845,-3.11094 8.01188,-16.58483 8.01188,-16.96432 0,-0.12713 0.55739,-1.47417 1.23865,-2.99342 0.68126,-1.51925 1.47674,-3.58839 1.76773,-4.59811 0.57441,-1.99313 1.40623,-2.56525 2.71294,-1.86592 1.05848,0.56647 1.35192,2.51119 1.51684,10.05232 l 0.15504,7.08945 1.31363,2.24 c 2.65826,4.53285 8.71878,9.4768 16.41516,13.39089 1.936,0.98457 4.86499,2.80241 6.50886,4.03962 1.64387,1.23722 3.18855,2.24949 3.43262,2.24949 0.54536,0 1.34006,-1.17063 1.73899,-2.56161 0.37647,-1.31269 0.17681,-1.6972 -2.60793,-5.0223 -1.74459,-2.08311 -3.23572,-3.36461 -7.23502,-6.21784 -8.55074,-6.10039 -10.71386,-8.00202 -11.1737,-9.82292 -0.43308,-1.71493 0.55988,-9.09588 2.6256,-19.51675 1.53761,-7.75678 2.02009,-10.77385 1.77091,-11.0741 -0.23701,-0.28558 -1.84506,-0.47616 -5.22141,-0.61884 -2.6834,-0.11339 -6.60691,-0.29292 -8.71891,-0.39895 -3.66554,-0.18402 -3.89089,-0.15854 -4.96,0.56075 -1.21671,0.8186 -3.40422,4.86248 -4.90773,9.07255 -1.27921,3.58199 -4.80341,11.9284 -6.24617,14.7929 -0.72936,1.44809 -1.32601,2.81609 -1.32589,3.04 1.2e-4,0.22391 -0.50345,1.4151 -1.11904,2.6471 -1.77752,3.55738 -5.9571,13.56605 -8.28511,19.84001 -1.17552,3.168 -2.40119,6.33605 -2.72371,7.04011 -0.8756,1.9114 -1.09355,3.20016 -0.60658,3.58676 0.86013,0.68285 3.97794,1.67241 5.05423,1.60415 1.03131,-0.0654 1.23689,-0.26598 2.59623,-2.53304 z m 41.16961,-63.24538 c 0.22322,-0.14168 0.54722,-0.75053 0.72,-1.35299 0.40309,-1.4055 0.38718,-7.16396 -0.0278,-10.05962 -0.17656,-1.232 -0.39278,-3.59564 -0.48048,-5.25254 -0.0877,-1.6569 -0.44254,-4.28338 -0.78852,-5.83662 -0.82506,-3.70404 -0.81893,-4.9467 0.0266,-5.39922 1.66676,-0.89202 4.51415,1.315 6.4261,4.98087 0.63897,1.22513 1.67859,3.17313 2.31027,4.32888 1.60792,2.94194 3.09374,7.64822 3.42819,10.85863 0.50459,4.84372 0.69672,6.08 0.94487,6.08 0.39446,0 0.67735,-2.11289 0.66671,-4.97964 -0.0116,-3.12934 -1.24264,-9.59592 -2.59762,-13.64528 -1.31298,-3.92383 -3.16612,-7.45515 -5.36306,-10.21976 -3.2795,-4.12693 -13.21493,-11.79532 -15.2824,-11.79532 -0.48024,0 -1.32216,-0.2702 -1.87093,-0.60044 -1.31967,-0.79417 -5.83091,-1.45383 -8.33995,-1.21954 -3.99997,0.37353 -8.59883,2.89239 -12.9246,7.079 -3.2955,3.18948 -5.02883,5.5203 -8.22561,11.06098 -1.37087,2.376 -3.02708,5.112 -3.68046,6.08 -2.30288,3.41175 -6.10101,6.34354 -10.38715,8.01787 -2.49357,0.97409 -2.59462,1.07745 -1.9761,2.02143 0.78891,1.20402 1.57109,1.27887 4.04374,0.38693 4.61277,-1.66392 9.04794,-4.45086 11.90781,-7.48254 2.29724,-2.43525 6.5165,-8.88552 7.00928,-10.71554 0.38377,-1.42523 1.82083,-2.46511 3.40917,-2.46695 1.41186,-0.002 1.62077,0.99212 0.94043,4.47355 -0.82107,4.20161 -1.12027,6.43502 -1.65113,12.32525 -0.26966,2.992 -0.71745,6.57205 -0.99509,7.95566 -0.27764,1.38361 -0.38405,2.62591 -0.23646,2.76067 0.14759,0.13475 1.04977,0.49872 2.00484,0.80882 1.42945,0.46413 2.41963,0.53105 5.6,0.37852 2.80044,-0.13432 5.40438,-0.0118 9.46351,0.44529 9.43682,1.06264 15.23698,1.42088 15.92584,0.98365 z M 189.2369,101.50953 c 0.81251,-0.11137 1.40011,-0.32737 1.30578,-0.48 -0.249,-0.40289 -1.66016,-0.33017 -3.49374,0.18004 -1.57365,0.43788 -1.58097,0.44569 -0.44467,0.47383 0.63544,0.0157 1.82012,-0.0625 2.63263,-0.17387 z m -0.46636,-4.362042 c 0.63712,-0.60123 1.82856,-1.47414 2.64766,-1.93979 3.07507,-1.74817 4.1576,-6.9097 1.98956,-9.48627 l -0.81572,-0.96942 h -5.09155 c -4.78551,0 -5.09155,0.0365 -5.09155,0.60685 0,0.98936 2.08495,2.59315 3.37113,2.59315 1.93848,0 1.22957,1.47458 -0.86258,1.79423 -0.71476,0.1092 -1.4858,-0.0536 -2.32875,-0.49168 -0.6931,-0.36021 -1.0891,-0.48385 -0.88,-0.27474 0.23527,0.23526 0.3802,1.4404 0.3802,3.1615 0,3.11759 -0.1996,2.88855 2.90705,3.33612 0.80689,0.11625 1.67089,0.33784 1.92,0.49243 0.83442,0.51779 -0.70241,1.61472 -2.62588,1.87426 l -1.72117,0.23225 1.44,0.31695 c 1.95472,0.43025 3.3809,0.0571 4.7616,-1.24584 z M 419.84893,222.67202 c -0.85873,-0.85874 -0.86094,-3.57578 -0.005,-5.74816 0.34943,-0.88651 0.57911,-1.61184 0.51041,-1.61184 -0.0687,0 -0.51712,0.684 -0.99647,1.52 -1.37555,2.39898 -2.98589,3.92 -4.15021,3.92 -0.54509,0 -1.16386,-0.1728 -1.37506,-0.384 -0.78067,-0.78067 -0.42747,-3.38481 0.93809,-6.91662 1.87503,-4.84949 4.58561,-13.98646 6.30719,-21.26059 0.36463,-1.54067 1.17212,-4.06067 1.79442,-5.6 1.90087,-4.70203 2.05174,-6.50842 1.10348,-13.2124 l -0.34139,-2.4136 -2.94732,0.1289 c -6.57535,0.28758 -11.41785,-2.18796 -22.11847,-11.30722 -7.58613,-6.46503 -13.25462,-9.29689 -21.15387,-10.568 -2.30565,-0.37102 -3.17412,-0.39909 -3.69657,-0.11948 -0.39768,0.21283 -1.2982,0.28863 -2.15622,0.18149 -3.82425,-0.47752 -4.68814,-0.6438 -4.87973,-0.93923 -0.11351,-0.17505 -1.37184,-0.42073 -2.79627,-0.54597 -2.17675,-0.19139 -2.88398,-0.40797 -4.43361,-1.35775 -1.01405,-0.62153 -2.77973,-1.5985 -3.92373,-2.17106 -3.4761,-1.73975 -5.49047,-3.1483 -7.9302,-5.54519 -2.66497,-2.61817 -2.89244,-2.57358 -3.01338,0.59071 -0.12995,3.40001 0.0687,4.95229 1.19683,9.35412 1.23715,4.82702 1.35578,6.44557 0.56993,7.77591 -0.72528,1.2278 -0.31443,2.53258 2.01326,6.3937 0.99146,1.6446 2.19605,4.15256 2.67687,5.57323 0.48083,1.42067 1.33327,3.4913 1.89433,4.60139 1.35755,2.68603 3.71477,9.31822 4.83349,13.59936 0.49695,1.90173 1.11531,3.98973 1.37414,4.64 0.64896,1.63042 2.98885,12.4236 3.41283,15.7423 0.19112,1.496 0.57068,3.32884 0.84348,4.07299 0.2728,0.74414 0.4014,1.65105 0.28577,2.01535 -0.34963,1.10161 0.38786,1.64508 1.9205,1.41525 2.33392,-0.34999 3.02275,1.21984 1.48154,3.37641 -0.95707,1.33919 -5.61417,2.55234 -9.81823,2.55758 -2.19423,0.003 -2.88484,-0.36607 -3.63025,-1.93866 -0.34198,-0.72149 -1.08849,-1.40015 -2.25778,-2.05259 l -1.74688,-0.97471 -0.41423,-3.35581 c -0.50837,-4.1184 -2.04179,-10.40853 -3.45286,-14.16374 -1.28408,-3.41725 -8.04595,-15.53423 -10.84142,-19.42738 -2.28634,-3.18408 -3.90702,-6.00719 -5.01072,-8.72831 -0.41128,-1.01399 -0.84053,-1.73399 -0.95388,-1.6 -0.30778,0.36381 -1.55209,3.79915 -2.2325,6.16361 -1.15171,4.00222 -2.66096,7.85107 -3.59136,9.15858 -0.94235,1.32431 -5.69938,5.84246 -8.08928,7.68307 -2.255,1.73672 -6.89501,4.75932 -12.32,8.02549 -2.904,1.74839 -6.38685,3.86915 -7.73968,4.7128 -2.11218,1.3172 -2.69355,1.53391 -4.11501,1.53391 -1.33453,0 -1.92761,-0.19192 -3.06032,-0.99033 -0.77274,-0.54468 -1.40499,-0.85214 -1.40499,-0.68326 0,0.16889 0.38677,1.24886 0.85948,2.39994 1.26788,3.08736 0.53514,4.65266 -1.95896,4.18477 -1.80281,-0.33821 -3.4332,-2.29853 -4.80723,-5.78003 -0.62622,-1.58671 -1.13739,-3.15392 -1.13594,-3.48269 10e-4,-0.32877 0.44086,-1.09684 0.97644,-1.70683 l 0.97378,-1.10908 -0.58269,-1.01317 c -0.32048,-0.55724 -1.11868,-1.27702 -1.77378,-1.59952 -2.69129,-1.32487 -1.43714,-2.34383 9.55669,-7.7645 11.79065,-5.81355 18.0369,-10.18744 20.44207,-14.31441 1.4698,-2.522 2.68351,-5.82212 3.86129,-10.49901 1.42574,-5.6615 1.41977,-5.92224 -0.17115,-7.47573 -0.704,-0.68743 -1.28,-1.4811 -1.28,-1.76369 0,-0.28259 0.42543,-1.6795 0.94539,-3.10422 0.51996,-1.42473 1.23463,-4.0083 1.58814,-5.74125 0.35352,-1.73296 0.93791,-4.15884 1.29864,-5.39084 0.66093,-2.25726 1.92783,-8.16819 1.92783,-8.99458 0,-0.71414 -1.04033,-0.51794 -2.643,0.49843 -0.81856,0.51912 -2.61075,1.55069 -3.98265,2.29239 -4.08619,2.20913 -9.53429,6.45254 -10.87294,8.4687 -0.77324,1.16458 -1.43752,1.80535 -1.99092,1.92045 -1.45851,0.30335 -1.78268,0.64909 -2.14736,2.2902 -0.46439,2.08976 -0.5768,2.24288 -1.91856,2.61336 -2.83569,0.78297 -4.24307,-1.47472 -2.53152,-4.06104 1.10927,-1.67622 1.3549,-3.12563 0.65985,-3.89366 -0.70272,-0.77649 -0.42097,-1.71403 0.76997,-2.56204 0.49775,-0.35444 1.89324,-2.04997 3.10107,-3.76784 4.29279,-6.10556 9.45669,-10.77638 17.39606,-15.73501 5.87639,-3.67016 8.98702,-5.00997 15.36,-6.61587 0.968,-0.24392 3.14392,-0.44574 4.83538,-0.44849 3.50729,-0.006 11.54199,0.82017 12.81717,1.31744 0.91763,0.35785 1.01283,0.5592 2.32502,4.91756 1.08712,3.61077 1.67091,4.79635 3.95391,8.02962 4.4284,6.27166 6.32097,8.17196 10.99989,11.04488 1.46775,0.90122 3.17263,2.10911 3.78863,2.68421 0.616,0.57509 1.44424,1.21184 1.84053,1.415 0.39629,0.20316 0.91677,0.83218 1.15661,1.39784 0.41431,0.97709 1.47185,2.07847 3.52601,3.67222 0.54249,0.42089 1.37277,0.71623 2.0135,0.71623 1.55338,0 5.59195,0.85242 8.58335,1.81169 5.71786,1.83357 10.23699,4.63117 17.32247,10.72361 8.86873,7.62575 14.54756,10.40568 19.74488,9.6656 l 1.97265,-0.2809 -0.0912,-1.12 c -0.0502,-0.616 -0.38749,-1.733 -0.74962,-2.48222 -0.56182,-1.1624 -0.99847,-1.52579 -2.97674,-2.47729 -2.66135,-1.28006 -3.47768,-2.0387 -3.32814,-3.09292 0.086,-0.60605 0.39423,-0.80622 1.65068,-1.07189 l 1.54496,-0.32668 -1.34036,-1.24015 c -1.40152,-1.29673 -2.22956,-2.83352 -2.22956,-4.13789 0,-0.42328 -0.30269,-1.45389 -0.67265,-2.29023 -0.66887,-1.5121 -0.66914,-1.52534 -0.0474,-2.35805 1.04642,-1.40156 2.31799,-1.5517 4.80673,-0.56754 1.83367,0.72512 2.5809,0.84277 5.03335,0.79247 4.25062,-0.0872 5.14706,0.27313 8.74854,3.51649 1.7003,1.53123 3.71479,3.18777 4.47665,3.68119 2.47322,1.60181 2.98533,4.71517 1.45479,8.84435 l -0.84002,2.26625 1.01568,2.06313 c 0.55862,1.13472 1.59184,2.79204 2.29604,3.68292 0.70421,0.89089 1.55307,2.25597 1.88637,3.03352 0.57068,1.33134 2.07977,2.94691 4.24753,4.54725 0.52353,0.38648 1.31823,1.25048 1.76601,1.92 0.44778,0.66951 1.20642,1.67215 1.68586,2.22809 0.47944,0.55594 1.12356,1.77994 1.43138,2.72 0.30782,0.94006 0.9208,2.42921 1.36218,3.30921 0.44138,0.88 0.99191,2.32 1.2234,3.2 1.04708,3.98052 1.73605,6.35712 1.88653,6.5076 0.16949,0.1695 5.05336,-4.92038 7.25418,-7.56018 1.6731,-2.00682 3.74093,-6.22681 4.06442,-8.29461 0.46785,-2.99049 1.51453,-3.45604 2.62283,-1.1666 1.52436,3.14892 1.12939,12.33682 -0.7444,17.31629 -1.92617,5.11868 -3.91622,7.43391 -9.91837,11.53905 -1.9923,1.36262 -4.55676,3.54167 -6.53337,5.55147 -2.85168,2.89957 -3.52392,3.41296 -5.44,4.15456 -4.231,1.63755 -11.47887,2.12763 -13.47421,0.91107 -1.40071,-0.85401 -1.81003,-1.9923 -1.35963,-3.78102 0.30835,-1.22455 0.27153,-1.52186 -0.29814,-2.40736 -2.10437,-3.27107 -2.37466,-5.11697 -1.27203,-8.68689 0.53046,-1.71742 0.61734,-2.56311 0.43667,-4.25022 l -0.22555,-2.10619 -0.54678,1.73651 c -0.4606,1.46283 -4.28246,10.49656 -6.81604,16.11106 -0.82309,1.82401 -3.19967,4.34546 -4.09578,4.34546 -0.33811,0 -0.90274,-0.288 -1.25474,-0.64 z m 24.68607,-2.06175 c 2.9331,-0.62168 4.54958,-1.52593 5.6894,-3.1826 2.06002,-2.99414 3.35658,-9.14172 3.34826,-15.87565 -0.003,-2.36781 -0.19964,-3.7122 -0.88963,-6.08 -1.96676,-6.74913 -4.45777,-11.05387 -8.96159,-15.48664 -2.75428,-2.71083 -3.13637,-3.25209 -5.49628,-7.78575 -1.9768,-3.79767 -2.6774,-4.87379 -3.17623,-4.87871 -0.352,-0.003 -2.44,0.61354 -4.64,1.37114 -3.67994,1.26724 -3.99774,1.43998 -3.97171,2.15871 0.0156,0.42968 0.22156,2.76339 0.45776,5.18602 0.47878,4.91056 0.27703,6.74871 -1.20238,10.95523 -0.43328,1.232 -1.28679,4.04 -1.89667,6.24 -0.60988,2.2 -1.59344,5.584 -2.18569,7.52 -0.59225,1.936 -1.51591,5.19383 -2.05258,7.23962 -0.53667,2.0458 -1.39516,4.7818 -1.90776,6.08 -1.30615,3.30796 -1.47779,3.93506 -0.99541,3.63694 0.61133,-0.37782 3.60502,-6.85883 5.54142,-11.99656 3.76265,-9.98324 4.45463,-11.69964 4.9347,-12.24 0.5427,-0.61087 1.52694,-0.74383 1.83357,-0.24769 0.38598,0.62452 -1.28555,7.46368 -3.20847,13.12769 -3.91833,11.54147 -4.72304,14.4 -4.05378,14.4 0.55316,0 1.60043,-1.97153 2.91214,-5.48224 0.68179,-1.82477 1.74655,-4.46976 2.36612,-5.87776 1.74797,-3.97229 4.06874,-11.18078 4.06874,-12.63781 0,-2.41815 1.44062,-4.16219 3.43806,-4.16219 1.54225,0 1.92819,1.01346 1.2097,3.17662 -0.41451,1.24799 -0.4828,2.04244 -0.2847,3.31255 0.14332,0.91896 0.21779,1.95883 0.16547,2.31083 -0.0523,0.352 0.0824,1.61165 0.29936,2.79923 0.37915,2.07532 0.36006,2.24473 -0.49112,4.3591 -1.09927,2.73064 -0.95315,3.61474 0.96974,5.86746 1.56819,1.8372 1.8014,3.05585 0.91338,4.77308 -0.77791,1.50433 -0.23402,1.88225 2.69929,1.87557 1.34245,-0.003 3.39755,-0.20834 4.56689,-0.45619 z m -87.28401,-8.25414 c 0.52332,-0.27089 0.57631,-0.55794 0.40521,-2.19492 -0.28494,-2.72624 -2.626,-14.42682 -3.93141,-19.64919 -2.12544,-8.50294 -6.35347,-20.0038 -10.14209,-27.588 -0.7726,-1.5466 -1.58029,-3.35311 -1.79487,-4.01446 -0.21458,-0.66135 -0.66065,-1.34723 -0.99127,-1.52416 -0.37879,-0.20273 -4.7159,-0.29058 -11.72675,-0.23755 l -11.12565,0.0842 -0.21951,0.8 c -0.12073,0.44 -0.50309,1.808 -0.84969,3.04 -0.34659,1.232 -0.63275,2.77175 -0.63591,3.42167 -0.008,1.71707 -1.1904,5.08071 -3.06798,8.73013 -2.06891,4.02131 -3.97227,5.97342 -9.2131,9.44911 -3.9011,2.58719 -14.56791,8.06287 -19.06904,9.78888 -1.276,0.48929 -2.32,1.07346 -2.32,1.29815 0,0.42749 6.98784,7.50043 8.24417,8.34456 0.69209,0.46502 1.06776,0.2802 8.48,-4.17195 4.26571,-2.56219 8.93707,-5.50182 10.3808,-6.53251 3.95302,-2.82208 8.80516,-7.16185 9.96473,-8.91248 0.57328,-0.86549 1.65239,-3.47774 2.43143,-5.88584 0.77038,-2.38135 1.93697,-5.55372 2.59242,-7.04972 0.65546,-1.496 1.31185,-3.44 1.45864,-4.32 0.18426,-1.10454 0.52339,-1.82295 1.0952,-2.32 0.91904,-0.79887 2.6196,-0.95908 3.39661,-0.32 0.90858,0.74731 2.50003,3.62733 3.23678,5.85759 0.8967,2.71441 2.92299,6.21797 4.81678,8.32845 0.7768,0.86568 1.91506,2.36596 2.52946,3.33396 1.92069,3.02604 7.88154,13.57823 8.90161,15.75805 1.42472,3.04458 2.83092,8.54544 3.19802,12.51027 0.40499,4.37394 0.60261,4.78372 2.17063,4.50082 0.6505,-0.11735 1.45365,-0.35362 1.78478,-0.52502 z m 102.14293,-3.22179 c 2.81085,-1.83461 4.7976,-3.93056 6.28136,-6.6266 1.31681,-2.39269 1.62084,-3.27247 2.46006,-7.11879 l 0.6116,-2.80307 -5.06867,4.8262 c -5.79512,5.5179 -6.67992,6.56736 -6.93564,8.22632 -0.10119,0.65649 -0.37556,1.57451 -0.6097,2.04004 -0.23414,0.46553 -0.62266,1.80413 -0.86338,2.97467 l -0.43767,2.12826 1.14852,-1.08435 c 0.63169,-0.59639 2.16777,-1.74959 3.41352,-2.56268 z m -25.31579,-43.6491 c 1.62307,-0.16752 1.71795,-0.22757 1.85617,-1.17488 0.0801,-0.54909 0.38522,-1.87966 0.67801,-2.95683 0.66777,-2.4567 0.38665,-3.31293 -1.47095,-4.48018 -0.75484,-0.47431 -2.59643,-1.9003 -4.09243,-3.16885 -1.496,-1.26855 -3.03453,-2.46982 -3.41896,-2.66947 -0.38443,-0.19966 -1.64898,-0.36302 -2.8101,-0.36302 -1.28975,0 -2.87777,-0.25826 -4.08156,-0.66378 -2.44271,-0.82289 -3.44938,-0.53407 -3.44938,0.98967 0,2.59097 2.80162,5.56639 5.85945,6.22295 0.78643,0.16886 0.88696,0.32101 0.8,1.21086 -0.0943,0.96472 -0.19587,1.03695 -1.95048,1.38672 -1.01807,0.20294 -1.93879,0.45674 -2.04606,0.564 -0.10726,0.10727 0.74436,0.6165 1.89249,1.13163 1.89468,0.85008 2.1645,1.09462 2.92098,2.64728 0.45841,0.94087 0.92099,2.15485 1.02796,2.69773 l 0.19448,0.98706 3.18994,-1.09218 c 1.75446,-0.60069 3.95966,-1.17161 4.90044,-1.26871 z m -95.64674,-12.12871 c 1.59635,-0.0966 3.07974,-0.28519 3.29644,-0.41911 0.30556,-0.18885 0.23913,-0.99107 -0.29601,-3.57445 -0.60998,-2.94468 -0.6612,-3.85049 -0.44165,-7.81096 0.13659,-2.464 0.23015,-5.5249 0.20789,-6.80201 -0.0374,-2.14944 0.0194,-2.36125 0.76502,-2.84979 0.44301,-0.29027 1.4123,-0.54136 2.15399,-0.55798 1.31291,-0.0294 1.45811,0.0788 5.50019,4.09752 4.07643,4.05292 4.22997,4.16652 8.47167,6.26783 2.376,1.17705 4.77697,2.41187 5.33549,2.74405 0.99556,0.59209 1.02862,0.59205 1.68496,-0.002 l 0.66948,-0.60587 -0.72496,-0.78223 c -0.39874,-0.43022 -2.52497,-1.97087 -4.72497,-3.42365 -2.2,-1.45278 -4.75389,-3.31989 -5.67531,-4.14912 -3.49714,-3.14724 -8.13606,-10.25439 -10.54722,-16.15905 -0.75064,-1.83823 -1.58907,-3.56623 -1.86319,-3.84 -0.41625,-0.41572 -1.48536,-0.49593 -6.48634,-0.48664 -8.98575,0.0167 -11.51175,0.80641 -20.80345,6.50386 -2.23547,1.37073 -4.94591,2.95978 -6.02321,3.53121 -2.09563,1.11159 -8.10218,6.95912 -11.16598,10.87036 -0.87741,1.12011 -1.87045,2.37346 -2.20674,2.78522 -0.5064,0.62005 -0.54091,0.83367 -0.20082,1.24345 0.70776,0.8528 1.30981,0.56293 3.82825,-1.84318 3.51636,-3.35951 5.41934,-4.69932 10.03075,-7.06224 4.44822,-2.2793 9.42748,-4.03981 11.42583,-4.03981 2.20922,0 2.21052,0.29737 0.0398,9.05079 -1.05694,4.26207 -2.14684,9.11721 -2.422,10.78921 -0.27516,1.672 -0.81047,3.72359 -1.18958,4.55907 -0.37911,0.83549 -0.58399,1.62438 -0.45529,1.75308 0.61045,0.61045 13.21041,0.7331 21.81698,0.21237 z m -227.38245,66.85223 c -0.264,-0.095 -1.59068,-1.30849 -2.94818,-2.69664 -2.96861,-3.03564 -3.29222,-3.91196 -2.96613,-8.03204 0.21192,-2.67757 -0.12793,-4.72806 -0.78364,-4.72806 -0.9583,0 -8.859665,-8.20267 -10.962195,-11.38021 -1.552989,-2.34702 -4.099849,-8.17265 -4.099849,-9.3779 0,-0.5129 0.31317,-0.8454 1.109722,-1.17822 1.853505,-0.77445 2.531115,-0.59 4.730732,1.28774 2.414515,2.06118 4.263784,4.34057 7.75954,9.56432 2.79985,4.18384 3.83629,5.19505 5.02013,4.89792 0.95337,-0.23928 3.22739,-3.68461 6.26609,-9.49365 2.84602,-5.44071 3.17253,-6.90612 2.6557,-11.91906 -0.45736,-4.43608 -0.23144,-5.36095 1.30953,-5.36095 0.60871,0 1.32378,0.27854 1.75493,0.68358 l 0.72763,0.68357 0.36026,-0.79068 c 0.19815,-0.43488 0.77307,-1.03454 1.27762,-1.33259 0.50455,-0.29804 1.22208,-0.96984 1.59452,-1.49288 0.64482,-0.90557 1.97783,-1.3037 2.34981,-0.70182 0.0847,0.13705 -0.0457,1.18105 -0.28987,2.32 -0.93966,4.38387 -0.34639,5.09852 0.78934,0.95082 0.87556,-3.19756 1.92216,-4.10818 3.4731,-3.02185 0.94684,0.66319 0.98274,3.1551 0.0712,4.94185 -0.352,0.68998 -0.64,1.73545 -0.64,2.32326 0,0.58781 -0.12435,1.20554 -0.27633,1.37274 -0.58922,0.64823 -1.06799,2.66894 -1.32304,5.584 -0.15278,1.74622 -0.6216,4.11046 -1.10158,5.55524 -0.89549,2.69551 -4.96067,12.64969 -6.02977,14.76477 -0.8617,1.70476 -2.46928,7.33543 -2.46928,8.64882 0,0.5754 0.432,1.86743 0.96,2.87118 1.52558,2.90019 1.21962,4 -1.1128,4 -0.71764,0 -1.62518,-0.22441 -2.01676,-0.49868 -0.89796,-0.62896 -3.1207,-3.8836 -3.99316,-5.84697 l -0.66404,-1.49435 -0.41219,0.96 c -0.59137,1.37731 -0.56308,1.51078 0.71346,3.36655 1.95496,2.84201 2.16369,4.81703 0.50392,4.76818 -0.47214,-0.0139 -1.07443,-0.10299 -1.33843,-0.19799 z m 6.4,-5.04113 c 0,-0.0794 -0.216,-0.97367 -0.48,-1.98723 -0.82819,-3.17961 -0.64092,-5.70743 0.67536,-9.11627 0.63545,-1.64566 1.48268,-3.64011 1.88275,-4.43211 0.40007,-0.792 1.68015,-4.27312 2.84464,-7.73581 1.76348,-5.24384 2.11725,-6.65021 2.11725,-8.41683 0,-2.07583 -0.748,-6.1756 -1.32958,-7.28737 -0.41934,-0.80162 -1.4775,-0.69157 -2.7606,0.28709 l -1.1106,0.84709 0.2105,2.91291 c 0.26835,3.71357 -0.0917,4.95476 -3.2092,11.06355 -2.67107,5.23397 -4.63375,8.46463 -6.02039,9.90981 -0.76255,0.79475 -1.19912,0.97956 -2.314,0.97956 -1.2541,0 -1.56999,-0.18476 -3.61617,-2.11502 -1.55585,-1.46771 -2.98698,-3.30403 -4.676096,-6 -2.156118,-3.44133 -6.617664,-8.86785 -6.987145,-8.49837 -0.378202,0.37821 1.888516,5.08046 3.426141,7.10746 3.000814,3.95586 8.7229,9.72994 10.07334,10.16486 0.65659,0.21146 1.3738,0.52734 1.5938,0.70195 0.51222,0.40655 0.52619,3.75781 0.0293,7.02265 -0.29937,1.9669 -0.29249,2.56291 0.0341,2.95648 0.63147,0.76087 0.97659,0.28673 0.97659,-1.3417 0,-1.7226 1.15285,-3.67065 2.62184,-4.43029 1.38114,-0.71422 2.49816,0.0972 2.49816,1.81478 0,0.85189 1.60558,4.7772 1.95403,4.7772 0.15728,0 0.28597,0.216 0.28597,0.48 0,0.26666 0.28444,0.48 0.64,0.48 0.352,0 0.64,-0.065 0.64,-0.14439 z M 339.41276,111.29645 c -1.73589,-0.33336 -3.35589,-0.77186 -3.6,-0.97446 -0.60163,-0.4993 -0.56214,-1.7761 0.0623,-2.01574 0.90668,-0.34792 2.70467,-0.20507 3.66421,0.29113 1.27354,0.65858 3.68354,0.96989 3.96631,0.51235 0.14025,-0.22693 -0.0694,-0.35772 -0.57325,-0.35772 -0.99437,0 -2.76344,-1.45219 -2.76344,-2.26844 0,-0.73871 0.36542,-0.7547 3.51602,-0.15387 1.31782,0.25131 2.46982,0.38345 2.56,0.29363 0.35943,-0.35794 0.37167,-6.46429 0.0143,-7.132042 -0.33643,-0.62863 -0.53552,-0.66868 -2.34895,-0.47252 -3.40647,0.36848 -3.93455,0.72987 -5.20579,3.562472 -1.78167,3.96997 -2.13561,4.55121 -3.59331,5.90095 -2.46399,2.2815 -5.06117,3.15804 -7.7587,2.61854 -1.263,-0.2526 -6.70357,-5.58006 -6.70357,-6.5642 0,-0.33749 0.35346,-0.96706 0.78546,-1.39906 0.92668,-0.92668 2.30573,-1.02364 3.77234,-0.26522 0.97892,0.50622 1.02496,0.49822 1.7089,-0.29692 0.38659,-0.44943 1.01892,-1.79953 1.40518,-3.000232 0.87822,-2.72997 1.64191,-3.9843 3.14669,-5.16833 2.15359,-1.69453 3.8227,-2.32079 7.60063,-2.85181 7.58647,-1.06633 10.07934,0.81117 10.72433,8.07705 0.34407,3.876022 0.014,6.246862 -1.2156,8.730842 -1.57212,3.17596 -3.9456,3.93576 -9.1641,2.9336 z m -8.33414,-3.05997 c 1.54055,-0.73104 2.74318,-2.22559 4.44978,-5.52988 2.47871,-4.799242 4.85143,-6.849432 7.26854,-6.280512 0.9283,0.2185 1.68301,-0.25896 1.43421,-0.90733 -0.10507,-0.27381 -0.7932,-0.80503 -1.52917,-1.1805 -1.23782,-0.63149 -1.49687,-0.65379 -3.45559,-0.29748 -4.52411,0.82298 -6.38488,2.44294 -7.46411,6.498122 -0.91214,3.42737 -2.75626,5.65311 -4.68384,5.65311 -1.1008,0 -1.05934,0.52996 0.12266,1.56777 1.2704,1.11542 2.25509,1.2371 3.85752,0.4767 z M 249.93975,57.801098 c -0.43663,-0.23083 -0.92228,-0.88125 -1.08709,-1.45592 -0.40323,-1.40598 0.22846,-2.05553 3.04608,-3.1322 4.28068,-1.63574 7.8764,-4.67367 9.41375,-7.95342 1.78892,-3.81645 1.73502,-8.05668 -0.22115,-17.3978 l -1.02409,-4.89025 -1.54248,2.92025 c -1.96741,3.72474 -3.97991,6.53835 -6.80092,9.50814 -2.58181,2.71797 -4.29184,3.82798 -6.3269,4.10692 -2.81611,0.38599 -4.37963,-1.2339 -4.66887,-4.83721 -0.42814,-5.33368 4.05229,-14.86921 9.0913,-19.34867 3.69117,-3.28129 7.92399,-3.73456 9.06866,-0.9711 l 0.40924,0.98801 0.60829,-0.65292 c 0.72707,-0.78042 1.26108,-0.81533 2.51925,-0.1647 0.85428,0.44176 0.94411,0.64027 0.94411,2.08633 0,0.87897 0.73673,5.01527 1.63717,9.19178 1.30303,6.04384 1.67029,8.41005 1.79944,11.59367 0.19768,4.87264 -0.15964,6.80502 -1.91087,10.33414 -3.06942,6.18551 -11.5302,11.88544 -14.95492,10.07495 z m -2.93198,-23.26809 c 1.35255,-0.69002 4.19212,-3.62734 6.34913,-6.56769 1.41181,-1.92452 4.89203,-8.58676 4.89203,-9.36489 0,-0.22463 -0.28293,-0.40842 -0.62874,-0.40842 -0.34581,0 -0.79108,-0.30335 -0.98951,-0.6741 -0.48062,-0.89806 -1.78325,-0.64057 -3.69126,0.72966 -4.33872,3.11583 -9.32392,13.43656 -7.8345,16.21957 0.44525,0.83196 0.40398,0.83053 1.90285,0.0659 z m -162.198824,11.819 c -0.352,-0.352 -0.64,-0.9784 -0.64,-1.39201 0,-0.72884 3.07994,-10.12554 4.459688,-13.60622 0.464374,-1.17147 0.55022,-1.668 0.269779,-1.56038 -0.226231,0.0868 -1.460126,0.41275 -2.74199,0.72431 -1.806616,0.4391 -2.505948,0.4866 -3.110241,0.21126 -1.503331,-0.68496 -1.451374,-3.23182 0.07869,-3.85741 0.486239,-0.19881 2.252071,-0.65454 3.924071,-1.01274 4.191019,-0.89785 4.050149,-0.82891 4.407191,-2.15683 1.464067,-5.44519 5.000323,-17.0129103 5.377263,-17.5899803 0.33175,-0.50789 0.783593,-0.72 1.533758,-0.72 0.584903,0 1.507179,-0.22136 2.049495,-0.4919 1.29718,-0.64713 2.46106,-0.33067 3.41951,0.92975 1.37041,1.80218 3.36953,6.3537103 4.86749,11.0821503 0.80846,2.552 1.52605,4.70316 1.59463,4.78035 0.0686,0.0772 0.74836,-0.16264 1.51061,-0.53297 1.15524,-0.56126 1.51358,-0.60998 2.15298,-0.29273 0.61661,0.30595 0.78591,0.67022 0.86314,1.85711 0.0833,1.28004 -0.0183,1.56644 -0.76316,2.15237 -0.47257,0.37173 -1.1913,0.67587 -1.59718,0.67587 -0.40588,0 -0.81267,0.12088 -0.90399,0.26863 -0.0913,0.14775 0.40868,2.99175 1.11109,6.32 0.7024,3.32825 1.4346,6.79792 1.62709,7.71037 0.45044,2.1351 0.18993,3.124 -0.94701,3.59494 -1.2494,0.51752 -2.40161,0.0187 -3.03368,-1.31324 -0.2799,-0.58986 -0.88213,-3.15782 -1.33828,-5.70658 -1.12089,-6.26302 -1.78734,-9.38443 -2.06745,-9.68312 -0.12843,-0.13696 -3.05361,0.21048 -6.50039,0.77209 l -6.266883,1.02109 -2.257742,6.90791 c -1.241757,3.79935 -2.480478,7.72919 -2.752713,8.73299 -0.541568,1.99689 -1.354383,2.81492 -2.796971,2.81492 -0.488839,0 -1.176798,-0.288 -1.528798,-0.64 z m 16.526724,-23.06451 4.81072,-0.75684 -1.08078,-3.68933 c -1.09464,-3.73662 -3.66357,-9.6093203 -4.20348,-9.6093203 -0.42794,0 -1.363516,2.3610503 -3.233455,8.1600003 -0.908051,2.816 -1.786166,5.53232 -1.951366,6.03627 -0.261924,0.79902 -0.226903,0.89707 0.273647,0.76617 0.315706,-0.0826 2.738831,-0.49068 5.384714,-0.90695 z m 171.74093,19.86477 c -0.88384,-0.35639 -0.98585,-1.45385 -1.21962,-13.12026 -0.2194,-10.94984 -0.67871,-19.27246 -1.31326,-23.7966603 -0.45726,-3.26007 -0.45278,-3.51517 0.0719,-4.09495 0.42825,-0.47321 0.90142,-0.59602 2.01642,-0.52335 1.36519,0.089 1.48098,0.16882 1.84001,1.2687 0.5644,1.72902 1.05356,10.2490203 1.08058,18.8208003 0.013,4.139 0.12105,8.16087 0.24,8.93749 l 0.21628,1.41204 1.56242,-3.65204 c 4.11,-9.6068 8.51252,-15.90189 11.51504,-16.46516 1.79098,-0.33599 3.36282,0.64034 4.44694,2.76218 1.57011,3.07302 1.84699,5.29088 2.05629,16.47124 l 0.19207,10.26029 -0.88953,0.69971 c -1.04035,0.81834 -1.98997,0.88942 -2.94505,0.22046 -0.68034,-0.47653 -0.68325,-0.53517 -0.5116,-10.32 0.17727,-10.10526 0.0115,-12.4079 -1.05482,-14.65508 -0.28856,-0.60812 -0.71091,-1.10567 -0.93854,-1.10567 -1.05775,0 -3.50882,3.50283 -5.9338,8.48 -2.42252,4.97212 -6.49769,14.44492 -6.89476,16.02698 -0.23892,0.95193 -1.81777,2.70071 -2.41302,2.67274 -0.23739,-0.0112 -0.74317,-0.14591 -1.12395,-0.29946 z m 83.52384,10e-4 c -0.82696,-0.33361 -0.95416,-1.80565 -1.23058,-14.24168 -0.23015,-10.35426 -0.68816,-18.32756 -1.3026,-22.6766603 -0.46093,-3.26258 -0.45672,-3.51472 0.0684,-4.09495 0.42825,-0.47321 0.90142,-0.59602 2.01642,-0.52335 1.36138,0.0887 1.48166,0.17089 1.83498,1.25335 0.54626,1.67355 1.06163,9.9244403 1.06355,17.0270603 9.1e-4,3.374 0.095,7.54377 0.20902,9.26615 l 0.20737,3.13161 1.21051,-2.89111 c 4.27698,-10.21488 8.80635,-16.83722 11.91473,-17.42035 2.65047,-0.49723 4.58723,1.58567 5.73464,6.16735 0.51509,2.05677 0.63937,4.08117 0.78972,12.86382 l 0.17843,10.42291 -0.88619,0.69709 c -1.03522,0.8143 -1.98729,0.88633 -2.93561,0.2221 -0.67217,-0.47081 -0.67666,-0.56127 -0.51215,-10.32 0.17031,-10.10266 0.003,-12.41895 -1.06037,-14.65935 -0.2886,-0.6081 -0.71095,-1.10565 -0.93859,-1.10565 -1.01122,0 -3.44212,3.4382 -5.74241,8.12189 -2.35702,4.7992 -5.57869,12.20279 -6.75742,15.5289 -0.64142,1.80997 -2.00388,3.5636 -2.74175,3.52893 -0.23738,-0.0112 -0.74143,-0.14528 -1.1201,-0.29804 z m 74.55294,-1.29586 c -3.75736,-0.74294 -4.46993,-2.44084 -2.30208,-5.4853 0.53391,-0.74982 0.86639,-0.91649 1.67203,-0.83821 0.7592,0.0738 1.03044,0.27252 1.10699,0.81114 0.1443,1.01531 2.10971,1.46665 5.65861,1.29946 3.40408,-0.16037 5.411,-1.01772 7.31458,-3.12476 1.40621,-1.55651 1.80542,-2.48039 1.80542,-4.1783 0,-1.00198 -0.22283,-1.47132 -1.1285,-2.377 -1.53726,-1.53726 -2.69337,-2.07763 -9.26551,-4.33078 -6.30459,-2.16142 -8.23865,-3.04347 -9.93052,-4.52896 -1.58755,-1.39388 -2.07547,-2.49208 -2.07547,-4.67136 0,-1.54068 0.18317,-2.17552 1.04,-3.60448 2.53161,-4.2220303 10.2054,-8.2942003 17.48208,-9.2770303 4.73355,-0.63934005 6.11792,0.0259 6.11792,2.93972 0,2.03177 -0.70011,2.45445 -2.76148,1.66721 -1.22993,-0.46971 -1.77024,-0.50188 -3.58341,-0.21332 -3.15304,0.5018 -7.32067,2.13968 -10.11901,3.97676 -3.7929,2.4900003 -4.60504,4.4012803 -2.6561,6.2508103 1.44013,1.36667 2.1387,1.67384 8.96203,3.9407 10.0065,3.32439 12.52799,5.40178 12.50194,10.30003 -0.0143,2.69347 -1.09367,5.05709 -3.33102,7.29444 -1.80601,1.80601 -5.40568,3.69451 -7.93663,4.16382 -2.01166,0.37301 -6.65156,0.36511 -8.57187,-0.0146 z m 55.10856,-0.0967 c -0.63807,-0.46657 -0.70984,-1.15185 -1.44628,-13.80909 -0.19456,-3.344 -0.57945,-7.9892 -0.85529,-10.32267 -0.465,-3.93348 -0.46265,-4.30203 0.0322,-5.0572 0.29353,-0.44799 0.74163,-0.89431 0.99577,-0.99184 0.84325,-0.32358 2.04271,0.20883 2.51112,1.11463 0.5499,1.06339 1.04981,6.15182 1.34919,13.73299 l 0.21782,5.5159 1.70649,-4.5559 c 4.02585,-10.74806 6.12992,-14.46202 8.66762,-15.29954 1.52377,-0.50289 2.82805,0.094 3.62689,1.65987 0.67821,1.32941 1.23066,5.52219 1.28122,9.72376 0.0266,2.2076 0.0771,2.42785 0.36734,1.6 1.17394,-3.34881 2.98378,-7.56977 3.77349,-8.80062 2.19902,-3.42741 5.30882,-3.39171 7.0806,0.0813 1.61585,3.16734 2.40336,8.19828 2.72436,17.40437 l 0.21357,6.12501 -0.83499,0.83499 c -0.94217,0.94216 -1.69759,1.04798 -2.66152,0.37282 -0.62207,-0.43572 -0.67214,-0.87995 -0.87457,-7.76001 -0.26383,-8.96666 -0.77964,-13.23678 -1.78837,-14.8051 -0.46249,-0.71905 -1.43378,0.33288 -2.61982,2.83731 -1.13184,2.39001 -4.07465,11.05883 -5.06149,14.90997 -0.7134,2.78402 -1.41814,3.68 -2.89458,3.68 -1.64759,0 -1.6666,-0.14023 -1.41941,-10.47206 0.1257,-5.25425 0.12462,-10.24624 -0.002,-11.09331 l -0.23096,-1.54013 -0.82301,0.75275 c -1.47007,1.34455 -6.02911,12.1135 -8.7656,20.70529 -1.10839,3.48002 -2.59321,4.68216 -4.26934,3.45654 z M 9.8073268,40.352008 c -0.271179,-0.836 -1.2294199,-4.832 -2.1294227,-8.88 C 4.1610803,15.654158 2.4040219,9.4753577 0.9526964,7.8223877 c -1.91138671,-2.17695 -0.82525641,-4.35038 2.174019,-4.35038 2.0092827,0 2.3858244,0.34241 3.2497362,2.95515 0.5896773,1.78338 4.0581924,15.7148003 5.7175714,22.9648503 l 0.622549,2.72 1.138555,-3.52 c 0.626205,-1.936 1.65925,-5.464 2.295655,-7.84 1.631936,-6.09279 3.294478,-11.2130703 4.037654,-12.4351203 0.724147,-1.19077 2.586935,-2.10293 3.715886,-1.81958 0.420463,0.10553 1.044375,0.65213 1.386471,1.21466 0.986394,1.622 3.367818,8.4052103 5.81383,16.5600403 1.240579,4.136 2.357965,7.70836 2.483081,7.93858 0.296374,0.54535 1.183254,-3.14665 1.784132,-7.42717 0.688504,-4.90475 1.210385,-15.1688403 0.985963,-19.3914103 -0.229885,-4.3253501 0.04355,-5.22321005 1.638068,-5.37876005 1.331173,-0.12986 2.914601,0.71434 3.15787,1.68360005 0.239199,0.95305 -0.362198,11.8177503 -1.001626,18.0951603 -1.08568,10.65835 -3.751354,19.44837 -6.07479,20.03151 -2.270266,0.5698 -2.764021,-0.20308 -5.437606,-8.51151 -2.517971,-7.82485 -4.819966,-14.64982 -5.448161,-16.15274 l -0.531983,-1.27275 -2.838051,9.57036 c -5.226138,17.62335 -5.580521,18.41513 -8.24224,18.41513 -1.243168,0 -1.292672,-0.0425 -1.7719532,-1.52 z m 224.6897932,0.32 c -1.40265,-1.59974 -2.47591,-5.38152 -2.48346,-8.75084 -0.003,-1.16096 -0.0987,-3.43522 -0.21363,-5.05391 l -0.20891,-2.94307 -1.51847,2.87479 c -3.03623,5.74825 -7.2755,11.65988 -9.38827,13.0919 -0.8395,0.56899 -1.43968,0.71613 -2.61058,0.64 -2.64735,-0.17215 -3.3248,-1.82393 -3.33723,-8.13695 -0.014,-7.13651 2.22325,-16.53574 4.39477,-18.46311 0.44586,-0.39572 1.03742,-0.5489 1.8538,-0.48 1.92994,0.16288 2.04877,0.78231 0.70511,3.67582 -2.32121,4.99866 -3.10758,8.66627 -3.11008,14.50537 -0.002,3.93158 0.23761,4.59965 1.31356,3.66727 3.38842,-2.93625 9.65211,-13.80061 11.14671,-19.33393 0.35457,-1.31266 0.83905,-2.58104 1.07664,-2.81863 0.56222,-0.56222 1.88124,-0.23271 2.69148,0.67236 0.564,0.63003 0.65279,1.53531 0.97812,9.97293 0.1968,5.104 0.52029,9.856 0.71888,10.56 0.19859,0.704 0.79154,1.95846 1.31769,2.7877 0.69048,1.08825 0.89449,1.71143 0.7333,2.24 -0.38835,1.27348 -1.13445,1.8523 -2.38762,1.8523 -0.72419,0 -1.37067,-0.21655 -1.67181,-0.56 z m -47.28818,-0.29997 c -1.35702,-0.70278 -2.23883,-2.34294 -2.23951,-4.16548 -0.002,-5.9097 10.21045,-19.8698 16.68529,-22.80785 1.81393,-0.8231 2.94052,-0.80775 4.48646,0.0611 1.89043,1.06248 2.58753,2.4068 2.456,4.73625 -0.0595,1.05441 -0.0114,1.91684 0.10694,1.91652 0.55536,-10e-4 0.86335,2.63295 1.04298,8.92157 0.15742,5.51102 0.29748,7.01487 0.7199,7.72997 0.44265,0.74934 0.46198,1.03865 0.12395,1.85472 -0.59988,1.44824 -1.40379,2.03334 -2.63208,1.91567 -0.85605,-0.082 -1.18179,-0.32641 -1.62944,-1.22251 -0.46968,-0.9402 -0.55958,-2.03415 -0.56,-6.81439 l -5e-4,-5.69438 -2.55055,3.81568 c -4.27002,6.38802 -8.67811,9.82787 -13.04993,10.1835 -1.37514,0.11187 -2.12225,0.003 -2.95951,-0.43038 z m 6.39,-5.05497 c 2.101,-1.06465 5.90429,-5.20985 8.45514,-9.21521 3.16046,-4.9626 3.79051,-7.1942 2.41849,-8.56622 -0.82599,-0.82599 -1.5371,-0.63268 -3.66364,0.99591 -5.1363,3.93361 -12.49197,15.49001 -11.19507,17.58843 0.30968,0.50106 2.13926,0.13244 3.98508,-0.80291 z m 261.91356,5.11979 c -1.99698,-1.02917 -2.74554,-3.55594 -1.90748,-6.43876 1.39185,-4.78779 5.25641,-10.67476 10.39294,-15.83178 5.36491,-5.38631 8.04979,-6.47741 10.91632,-4.43626 1.37921,0.98208 2.34247,3.21413 2.08418,4.8294 -0.1335,0.83485 -0.0468,1.47571 0.26489,1.95696 0.35118,0.54228 0.51812,2.4981 0.68933,8.07559 0.16496,5.37397 0.34335,7.53032 0.66109,7.9912 0.60212,0.87339 0.54279,1.74835 -0.20134,2.9688 -0.51776,0.8492 -0.83624,1.04 -1.73594,1.04 -2.35909,0 -2.86926,-1.64338 -2.69449,-8.6796 l 0.13016,-5.2404 -2.45854,3.68594 c -2.91623,4.37213 -6.64025,8.1124 -9.35658,9.39744 -2.31017,1.09288 -5.38664,1.4019 -6.78454,0.68147 z m 6.25315,-5.05846 c 2.81312,-1.32707 7.68317,-7.17947 10.70735,-12.86716 1.12865,-2.12271 1.13804,-4.41342 0.0211,-5.14528 -0.75303,-0.4934 -0.86735,-0.47832 -2.17281,0.28673 -3.85497,2.25917 -10.65743,11.22672 -12.24425,16.14135 -0.89697,2.77807 0.17873,3.24012 3.68863,1.58436 z m -412.353391,4.71465 c -1.95788,-0.72193 -3.768777,-2.43607 -4.613625,-4.36712 -0.620714,-1.41875 -0.73703,-2.21374 -0.716043,-4.89392 0.04261,-5.44149 2.09903,-10.38965 5.947486,-14.31085 2.581466,-2.63027 5.044399,-3.76856 8.154761,-3.7689 1.436922,-1.5e-4 2.688357,0.18202 3.251745,0.47335 2.428757,1.25596 3.021066,4.12921 1.331913,6.46102 -1.720858,2.37557 -6.415865,4.85703 -11.496961,6.07649 -2.611365,0.62673 -2.611676,0.62725 -2.618219,4.36478 -0.0067,3.82261 1.264263,5.63397 4.147513,5.91102 4.257908,0.40913 7.160871,-1.9867 10.768053,-8.88691 0.720276,-1.37782 1.104754,-1.78137 1.770595,-1.85841 0.706765,-0.0818 0.883281,0.0534 1.044288,0.8 0.208983,0.969 -0.0025,1.86884 -1.062065,4.51944 -1.495442,3.74091 -4.610959,7.44082 -7.525355,8.93692 -2.038107,1.04627 -6.275142,1.32073 -8.384086,0.54309 z m 5.482104,-19.31867 c 1.410979,-0.65502 3.111466,-1.67039 3.778861,-2.25637 1.080007,-0.94826 1.160525,-1.11834 0.732206,-1.54666 -0.641318,-0.64132 -3.02767,-0.5865 -4.355311,0.10005 -1.235415,0.63886 -3.439687,2.86072 -4.27922,4.31337 l -0.598047,1.0348 1.078047,-0.22712 c 0.592926,-0.12491 2.232485,-0.76304 3.643464,-1.41807 z m 334.733067,19.34015 c -2.611,-0.93013 -4.39565,-2.93239 -5.12486,-5.74975 -0.95966,-3.70774 -0.31508,-7.91283 1.92468,-12.55614 1.65155,-3.42389 4.69938,-6.78137 7.34168,-8.08759 1.86877,-0.92382 5.52652,-1.25415 7.32283,-0.66131 2.47041,0.81531 3.44297,3.43032 2.22802,5.99065 -1.0799,2.27572 -6.22571,5.2433 -11.4046,6.577 -3.22265,0.82992 -3.19742,0.79434 -3.23046,4.55617 -0.0347,3.94725 1.67028,5.92845 5.10184,5.92845 3.57059,0 6.68409,-2.69568 9.51433,-8.23752 1.17375,-2.29831 1.45733,-2.63977 2.19335,-2.64103 1.21793,-0.002 1.39835,1.13089 0.57229,3.59396 -1.72243,5.13584 -5.52398,9.80343 -9.0296,11.08666 -2.17047,0.7945 -5.48983,0.8843 -7.4095,0.20045 z m 4.16698,-18.75954 c 2.17197,-0.81264 5.69905,-3.13935 5.83016,-3.84598 0.13774,-0.74238 -1.50032,-1.24974 -2.96695,-0.91896 -2.08818,0.47096 -4.65044,2.67313 -5.91684,5.0853 -0.38253,0.72862 -0.36221,0.75366 0.44673,0.55063 0.46612,-0.11699 1.63922,-0.50893 2.6069,-0.87099 z m 135.17244,18.93803 c -2.58956,-0.78771 -4.76311,-2.92727 -5.48009,-5.39441 -0.54954,-1.89097 -0.53908,-6.07593 0.021,-8.3866 0.95675,-3.94744 3.83382,-8.80586 6.51641,-11.00404 2.27268,-1.86229 4.53935,-2.74924 7.03506,-2.75284 1.19366,-0.002 2.64548,0.19543 3.22628,0.4381 3.15674,1.31897 3.28065,5.37219 0.24172,7.90717 -1.78553,1.48943 -6.61365,3.74126 -9.71828,4.5326 -2.75944,0.70335 -2.80329,0.72996 -3.02593,1.83635 -0.12426,0.61746 -0.21303,2.0092 -0.19728,3.09274 0.0527,3.62231 1.83588,5.54992 5.1342,5.54992 3.51273,0 6.64833,-2.73012 9.46097,-8.23752 1.17376,-2.29831 1.45734,-2.63977 2.19336,-2.64103 1.14008,-0.002 1.36863,1.02629 0.71926,3.23594 -1.45219,4.94146 -5.62385,10.14421 -9.17658,11.44468 -1.89959,0.69535 -5.30033,0.88077 -6.95007,0.37894 z m 2.59917,-18.53873 c 2.48759,-0.85585 4.88056,-2.12418 6.20995,-3.2914 1.02414,-0.8992 1.09776,-1.06322 0.66944,-1.49154 -0.64022,-0.64022 -3.02687,-0.58691 -4.34971,0.0972 -1.31464,0.67982 -3.63895,2.99339 -4.30896,4.28904 -0.60215,1.16445 -0.5111,1.18475 1.77928,0.39674 z m -410.88113,17.84259 c -1.33061,-1.42824 -1.4305,-3.05281 -1.2079,-19.64487 0.12144,-9.05201 0.34933,-16.1764203 0.53912,-16.8543903 0.61057,-2.18103005 2.39546,-3.32071005 3.70109,-2.36320005 0.72123,0.52892995 0.72919,1.05965005 0.18269,12.17759035 -0.19898,4.048 -0.39985,10.384 -0.44637,14.08 -0.0805,6.39428 -0.0475,6.82273 0.68028,8.83946 0.98297,2.72383 0.79194,3.64914 -0.84736,4.1044 -1.65657,0.46006 -1.88483,0.43032 -2.60155,-0.33899 z m 11.09447,0.29298 c -0.30226,-0.22982 -0.80192,-0.99385 -1.11036,-1.69785 -0.51064,-1.16553 -0.55252,-2.49623 -0.46836,-14.88 0.10587,-15.5774303 0.36313,-20.4160703 1.14925,-21.6158403 1.07464,-1.64012005 3.20051,-1.76005005 3.5952,-0.20283 0.1197,0.47227 0.0452,4.31467 -0.16568,8.5386703 -0.21082,4.224 -0.47144,11.136 -0.57915,15.36 l -0.19585,7.68 0.84227,2.48674 c 0.46324,1.3677 0.84226,2.67738 0.84226,2.9104 0,1.17151 -2.86705,2.21337 -3.90958,1.42071 z m 201.02957,0.0689 c -0.41484,-0.26223 -0.48266,-2.30222 -0.49963,-15.02806 -0.0108,-8.09855 -0.0956,-14.80066 -0.18856,-14.89357 -0.22219,-0.2222003 -9.46314,1.01132 -12.05167,1.60871 -3.09671,0.71466 -4.36441,0.61899 -5.48367,-0.41386 -1.26322,-1.16569 -1.54509,-2.3913803 -0.736,-3.2004703 0.49807,-0.49806 1.2689,-0.65588 4.0281,-0.82471 3.31428,-0.20278 10.82777,-0.98449 12.93143,-1.3454 0.92444,-0.15859 1.04,-0.29446 1.04,-1.22276 0,-0.57438 0.19724,-1.31407 0.4383,-1.64375 0.64264,-0.87886 2.39876,-0.30778 3.2417,1.05419 0.51349,0.82966 0.80266,1.00518 1.46285,0.88792 4.22756,-0.7509 8.52311,-1.18827 10.76575,-1.09617 2.50364,0.10282 2.7648,0.17856 3.47911,1.009 0.97168,1.12965 0.98104,2.18378 0.0292,3.29035 l -0.74309,0.86389 -2.14099,-0.42556 c -1.7367,-0.3452 -2.98225,-0.35351 -6.59607,-0.044 -5.14512,0.44067 -5.54826,0.54508 -5.28667,1.3693 0.10405,0.3278103 0.21634,6.6827603 0.24954,14.1221003 0.0472,10.58168 -0.0314,13.74343 -0.36127,14.52456 -0.60646,1.43622 -2.41082,2.14633 -3.57837,1.40829 z m -172.88547,-0.88678 c -0.89839,-0.9969 -1.00505,-2.18947 -0.26225,-2.93227 0.6485,-0.6485 0.66771,-0.9557 0.66734,-10.66773 -2.8e-4,-7.2797 -0.14273,-11.17517 -0.52366,-14.32 -0.72248,-5.9647303 -0.71152,-6.3629703 0.19543,-7.0973703 1.07263,-0.86857 2.60758,-0.66716 3.12091,0.40951 0.83688,1.75527 1.1151,5.6730903 1.27595,17.9678603 0.15034,11.49144 0.2169,12.7192 0.68909,12.71174 1.80685,-0.0285 7.64299,-0.75233 11.86288,-1.47123 l 4.94022,-0.84161 0.57978,0.716 c 1.27702,1.57705 0.1625,4.47703 -1.72567,4.49023 -0.404,0.003 -5.05454,0.36112 -10.33454,0.7962 -5.28,0.43508 -9.68569,0.79276 -9.79041,0.79486 -0.10472,0.002 -0.4175,-0.24819 -0.69507,-0.55619 z m 388.24547,-26 v -2.56 h -0.96 c -0.64,0 -0.96,-0.16 -0.96,-0.48 0,-0.3890203 0.51555,-0.4800003 2.72,-0.4800003 2.20444,0 2.72,0.091 2.72,0.4800003 0,0.33524 -0.33778,0.48 -1.12,0.48 h -1.12 v 2.56 c 0,2.34666 -0.0533,2.56 -0.64,2.56 -0.58667,0 -0.64,-0.21334 -0.64,-2.56 z m 3.84,-0.48 c 0,-2.6843303 0.0655,-3.0392603 0.56,-3.0336503 0.32947,0.004 0.95518,0.6730503 1.52,1.6259003 1.44722,2.44153 1.52018,2.44891 2.85353,0.2887 1.72695,-2.7978803 2.10647,-2.5962603 2.10647,1.11905 0,2.48889 -0.087,3.04 -0.48,3.04 -0.37432,0 -0.48238,-0.44035 -0.4908,-2 l -0.0108,-2 -1.02633,1.68 c -0.56448,0.924 -1.2108,1.68 -1.43626,1.68 -0.22545,0 -0.83875,-0.67619 -1.36287,-1.50265 l -0.95295,-1.50265 v 1.82265 c 0,1.60931 -0.0749,1.82265 -0.64,1.82265 -0.59509,0 -0.64,-0.21334 -0.64,-3.04 z"
       id="path1" />
  </g>
</svg>
