<?xml version="1.0" encoding="UTF-8" standalone="no"?>
<!-- Created with Inkscape (http://www.inkscape.org/) -->

<svg
   version="1.1"
   id="svg1"
   width="559.35999"
   height="196.48"
   viewBox="0 0 559.35999 196.48"
   sodipodi:docname="WALTS drinks WHITE.svg"
   inkscape:version="1.4.2 (f4327f4, 2025-05-13)"
   xmlns:inkscape="http://www.inkscape.org/namespaces/inkscape"
   xmlns:sodipodi="http://sodipodi.sourceforge.net/DTD/sodipodi-0.dtd"
   xmlns="http://www.w3.org/2000/svg"
   xmlns:svg="http://www.w3.org/2000/svg">
  <defs
     id="defs1" />
  <sodipodi:namedview
     id="namedview1"
     pagecolor="#505050"
     bordercolor="#eeeeee"
     borderopacity="1"
     inkscape:showpageshadow="0"
     inkscape:pageopacity="0"
     inkscape:pagecheckerboard="0"
     inkscape:deskcolor="#505050"
     inkscape:zoom="2.25"
     inkscape:cx="279.77778"
     inkscape:cy="98.444444"
     inkscape:window-width="1920"
     inkscape:window-height="1057"
     inkscape:window-x="-8"
     inkscape:window-y="-8"
     inkscape:window-maximized="1"
     inkscape:current-layer="g1" />
  <g
     inkscape:groupmode="layer"
     inkscape:label="Image"
     id="g1">
    <path
       style="fill:#000000"
       d="m 259.46487,195.9568 c -1.00324,-0.2545 -3.79544,-0.7471 -6.20488,-1.09465 -2.40945,-0.34756 -4.52862,-0.77973 -4.70927,-0.96037 -0.49008,-0.49009 -0.39648,-2.23223 0.14926,-2.77797 0.26274,-0.26273 1.61874,-0.87076 3.01334,-1.35116 1.94116,-0.66868 3.54843,-1.59825 6.85562,-3.965 2.376,-1.70035 5.13043,-3.85747 6.12094,-4.7936 l 1.80094,-1.70205 0.22051,-3.04 c 0.12128,-1.672 0.42862,-5.2 0.68299,-7.84 0.75928,-7.88027 1.05738,-14.49352 0.82939,-18.4 l -0.21477,-3.68 -2.88,-0.39843 c -1.584,-0.21914 -3.4927,-0.62732 -4.24155,-0.90707 -2.89238,-1.08049 -9.18019,-6.55646 -11.3349,-9.87142 -1.85339,-2.85139 -2.47792,-5.30093 -2.86013,-11.21815 -0.18207,-2.81871 -0.23959,-6.34893 -0.12782,-7.84493 0.24627,-3.29605 1.272,-10.01824 2.11338,-13.85009 0.55869,-2.544424 0.57136,-2.898394 0.13402,-3.744114 -1.1335,-2.19196 -0.27072,-4.72887 1.84201,-5.416168 2.05185,-0.6675 7.72175,-0.97768 24.35604,-1.33243 16.3719,-0.34916 16.94722,-0.34133 17.72754,0.24126 0.44357,0.33117 1.0859,1.1015 1.42741,1.71184 0.58644,1.048058 0.61172,1.627748 0.45525,10.437312 -0.15259,8.59114 -0.229,9.57652 -0.96765,12.48 -0.44109,1.73381 -1.18605,4.86024 -1.65547,6.94762 -1.42496,6.33646 -3.51882,10.68633 -7.04005,14.62533 -2.43258,2.72119 -3.52997,3.52731 -7.6902,5.64903 -1.9905,1.01516 -3.11069,1.78975 -3.36407,2.32618 -0.24272,0.51386 -0.47693,4.09704 -0.64868,9.92423 -0.31035,10.52939 -0.68189,15.19807 -1.38558,17.41085 -0.92175,2.89849 -0.49047,6.288 1.01123,7.94735 0.2895,0.3199 1.61601,1.17893 2.94779,1.90896 1.33179,0.73004 3.64685,2.0809 5.14458,3.00193 1.49773,0.92102 3.33373,1.91889 4.08,2.21749 0.74627,0.2986 1.35685,0.74327 1.35685,0.98816 0,0.24489 -0.1353,0.44526 -0.30068,0.44526 -0.16538,0 -0.34538,0.54 -0.4,1.2 l -0.0993,1.2 -1.92,0.0219 c -1.47634,0.0168 -2.43675,0.26588 -4.15632,1.0778 -3.93464,1.85778 -7.65168,2.63238 -13.28368,2.76822 -3.61276,0.0871 -5.45545,-0.006 -6.78407,-0.3431 z m 12.06407,-4.01916 c 1.232,-0.17692 3.08674,-0.5583 4.12164,-0.84751 1.72331,-0.48159 1.83101,-0.56306 1.28,-0.9683 -0.88654,-0.65198 -9.2996,-4.88983 -9.70741,-4.88983 -0.19198,0 -2.00583,1.13889 -4.03077,2.53087 l -3.68171,2.53087 2.00913,0.66425 c 3.70471,1.22482 6.43858,1.4924 10.00912,0.97965 z m -2.41054,-52.29786 c 1.54908,-1.14288 3.06164,-1.55456 4.9081,-1.33588 l 1.60946,0.19062 2.26649,-2.31946 c 2.53291,-2.59211 4.35323,-5.57939 6.29147,-10.3248 2.33991,-5.72881 3.07606,-9.19383 4.10849,-19.33826 0.34929,-3.432 0.87434,-6.931814 1.16679,-7.777354 0.29245,-0.84553 0.45571,-1.61335 0.3628,-1.70626 -0.0929,-0.0929 -3.1691,0.12575 -6.83599,0.48591 -3.66689,0.36016 -8.75507,0.80902 -11.30707,0.99747 -2.552,0.18844 -5.936,0.57362 -7.52,0.85595 -2.64978,0.47229 -2.98588,0.61867 -4.20458,1.831274 -1.52167,1.51406 -1.79317,2.28485 -3.56222,10.11301 -1.13401,5.01808 -1.18934,5.52583 -1.11544,10.23561 0.0428,2.72558 0.22406,5.74958 0.40286,6.72 0.45905,2.49134 1.7201,4.88622 3.63361,6.90069 1.80427,1.89945 6.93813,5.2637 8.03243,5.2637 0.37895,0 1.17221,-0.3565 1.7628,-0.79222 z m 0.0356,-4.50428 c -0.77821,-0.44484 -1.82266,-0.85627 -2.32101,-0.91429 -1.93377,-0.22515 -5.24459,-3.10393 -6.74928,-5.86855 -1.27257,-2.33814 -1.85665,-5.3895 -2.12852,-11.12004 -0.21052,-4.43717 -0.16542,-5.4196 0.33786,-7.36062 0.31945,-1.232 0.5864,-2.6 0.59324,-3.04 0.0208,-1.33576 0.45302,-1.64323 3.32344,-2.36405 2.32633,-0.58418 3.22326,-0.65652 5.71911,-0.46124 5.98951,0.46862 14.51912,0.9822 15.86579,0.9553 2.3962,-0.0479 3.83701,2.23385 2.29294,3.63121 -0.88852,0.8041 -1.15634,2.02473 -1.89545,8.63878 l -0.64367,5.76 -1.90895,3.85674 c -2.16179,4.36756 -3.57551,5.93862 -7.12257,7.91521 -2.5085,1.39785 -3.453,1.46329 -5.36293,0.37155 z m -3.70738,-25.04943 c -0.0566,-0.0583 -0.40322,0.0548 -0.77029,0.25126 -0.46336,0.24798 -0.66791,0.6717 -0.66906,1.38593 -9.1e-4,0.5658 -0.0683,2.46874 -0.14972,4.22874 l -0.14807,3.2 0.92001,-4.48 c 0.506,-2.464 0.87371,-4.52767 0.81713,-4.58593 z m -118.71767,85.67794 c -2.10614,-0.33722 -6.27797,-1.70932 -8.48,-2.78904 -1.67327,-0.82045 -1.76478,-0.92856 -1.85698,-2.19382 -0.0928,-1.27418 -0.052,-1.34049 0.96,-1.55742 1.62634,-0.34862 5.7653,-2.51566 11.67434,-6.11235 0.68424,-0.41648 0.69981,-0.59172 0.82757,-9.31193 0.10876,-7.42375 0.54506,-13.75112 1.28473,-18.63152 0.0423,-0.27937 -0.6308,-0.80351 -1.69129,-1.31692 -3.96915,-1.92155 -20.40709,-18.59084 -22.69955,-23.01901 -0.3189,-0.616 -1.0457,-2.056 -1.61511,-3.2 -1.49866,-3.01097 -2.16837,-3.83045 -3.64914,-4.46518 -0.72566,-0.31106 -1.7863,-0.95844 -2.35698,-1.43864 -0.88499,-0.74467 -1.03759,-1.08332 -1.03759,-2.30262 0,-1.39469 0.0371,-1.44647 1.52,-2.12357 1.43292,-0.65426 2.18913,-0.70838 13.2,-0.94478 6.424,-0.13792 15.82077,-0.29401 20.88171,-0.34687 l 9.2017,-0.0961 1.15416,-1.10112 c 0.63478,-0.60561 1.94035,-2.07839 2.90127,-3.27283 l 1.74712,-2.17173 -0.50298,-2.21144 c -1.23113,-5.41287 -0.30257,-6.51013 5.34282,-6.31353 l 3.2742,0.11403 1.71627,-1.552394 c 0.94395,-0.85382 2.36212,-1.99674 3.15147,-2.53983 1.22403,-0.84216 1.54828,-0.93592 2.20373,-0.63728 0.42269,0.19259 0.76853,0.61462 0.76853,0.93785 0,0.32323 -1.16329,1.72307 -2.58509,3.110764 -2.25217,2.19814 -2.55812,2.62819 -2.37563,3.33918 0.46035,1.79356 0.87285,5.76513 0.679,6.53747 -0.11321,0.45109 -0.48264,0.96829 -0.82095,1.14935 -1.23375,0.66028 -5.29274,1.32933 -6.89733,1.1369 l -1.6,-0.19188 -1.05841,1.77291 c -0.58212,0.97509 -0.96259,1.92793 -0.84549,2.11741 0.32195,0.52093 11.62837,0.022 12.4551,-0.54964 0.34716,-0.24003 1.24209,-0.43642 1.98874,-0.43642 1.08335,0 1.4333,0.14542 1.73263,0.72 0.20629,0.396 0.85936,1.12648 1.45125,1.62329 0.81828,0.68683 1.07618,1.15424 1.07618,1.95041 0,1.60222 -0.79173,2.1063 -3.30824,2.1063 h -2.13785 l -0.87696,1.30491 c -0.48232,0.7177 -1.88908,2.5537 -3.12613,4.08 -1.23704,1.5263 -2.63388,3.35109 -3.10409,4.05509 -0.4702,0.704 -1.71312,2.39082 -2.76205,3.74849 -1.04893,1.35766 -2.51615,3.58966 -3.2605,4.96 -0.74434,1.37033 -2.25038,3.85951 -3.34676,5.53151 -1.09637,1.672 -2.29659,3.616 -2.66716,4.32 -0.82469,1.56676 -1.73522,2.59249 -3.41026,3.84173 -1.55797,1.16193 -1.66994,1.30718 -2.09542,2.71827 -0.63059,2.09133 -1.85407,17.0693 -1.75037,21.42824 l 0.072,3.02824 1.01952,0.26418 c 0.61405,0.15912 1.12923,0.55275 1.29538,0.98976 0.54881,1.44349 4.33708,3.58629 10.1853,5.76122 3.60158,1.33941 4.48093,1.88761 4.75046,2.96152 0.15231,0.60685 0.024,1.00779 -0.48493,1.51595 -0.5831,0.58215 -0.98002,0.67238 -2.522,0.57333 -3.99535,-0.25666 -4.71252,-0.16646 -7.90998,0.99484 -4.82263,1.75155 -11.98395,2.72652 -15.68,2.13473 z m 8.64,-3.96822 c 2.67009,-0.35046 5.92,-1.15714 5.92,-1.46944 0,-0.1619 -0.18762,-0.29435 -0.41693,-0.29435 -0.22931,0 -1.60802,-0.576 -3.06381,-1.28 -1.45578,-0.704 -2.92879,-1.28 -3.27335,-1.28 -0.34456,0 -1.10712,-0.20083 -1.69458,-0.44629 -0.97529,-0.4075 -1.16575,-0.38664 -2.19173,0.24 -0.618,0.37746 -1.93696,1.17042 -2.93104,1.76215 -2.02202,1.20361 -2.00791,1.62894 0.077,2.3215 1.2573,0.41764 4.70213,0.88274 5.49441,0.74181 0.264,-0.047 1.2,-0.17988 2.08,-0.29538 z m -0.10845,-43.61805 c 1.03302,-1.23428 2.63683,-3.68419 5.48965,-8.38574 1.33492,-2.2 3.17249,-5.04977 4.08349,-6.33281 0.911,-1.28304 1.58673,-2.40243 1.50163,-2.48753 -0.52886,-0.52887 -2.48811,1.50179 -2.95272,3.06034 -0.13116,0.44 -0.64664,1.32005 -1.14551,1.95568 -0.49886,0.63562 -1.34419,2.08094 -1.8785,3.21182 -1.11238,2.35435 -2.87765,4.55406 -4.20582,5.24089 -2.17757,1.12606 -4.41631,0.24385 -7.22745,-2.84809 -1.03198,-1.13506 -2.77529,-2.65644 -3.87403,-3.38083 -2.38195,-1.57041 -6.03121,-4.91776 -6.63569,-6.08671 -0.5709,-1.10399 -0.91447,-3.0088 -0.67741,-3.75571 0.10449,-0.32922 0.60535,-0.84394 1.11302,-1.14383 0.81181,-0.47955 1.32273,-0.50712 4.24041,-0.22879 3.72154,0.35502 9.85072,0.0932 10.54341,-0.45032 0.71035,-0.55741 3.49397,-4.31372 3.49397,-4.71488 0,-0.263 -2.2618,-0.3006 -8.4,-0.13963 -4.62,0.12115 -10.05905,0.25444 -12.08678,0.2962 -2.02773,0.0418 -3.85449,0.17957 -4.05946,0.30625 -0.26971,0.16669 -0.16958,0.69284 0.36235,1.90414 0.40428,0.92059 0.98321,2.35851 1.28653,3.19536 0.50126,1.38301 1.1507,2.3491 4.66006,6.93223 1.67671,2.18972 14.55779,14.74622 15.12742,14.74622 0.27114,0 0.82978,-0.40242 1.24143,-0.89426 z m 16.05315,-23.31378 2.41636,-2.92804 -1.02053,-0.18196 c -0.82344,-0.14682 -6.50717,-0.30148 -8.12981,-0.22122 -0.2141,0.0106 -1.12599,0.99126 -2.02643,2.17926 l -1.63716,2.16 2.72011,0.16658 c 2.84558,0.17426 3.80367,0.62449 4.23748,1.9913 0.24019,0.75679 0.0846,0.89999 3.43998,-3.16592 z m 208.77957,69.33755 c -4.1962,-0.76197 -7.17343,-2.41461 -8.16662,-4.53322 -1.18696,-2.53196 -1.89316,-15.55581 -1.38575,-25.55629 0.39902,-7.86412 1.14307,-13.42126 2.58438,-19.30212 0.73406,-2.99509 0.91236,-4.21418 0.66071,-4.5174 -0.22239,-0.26796 -1.47846,-0.46988 -3.54077,-0.56919 -2.87282,-0.13834 -3.43652,-0.27273 -5.57301,-1.32863 -3.03096,-1.49799 -5.07515,-3.48344 -6.31553,-6.13406 -0.89202,-1.90621 -0.96202,-2.30303 -0.8594,-4.87192 0.0997,-2.49561 0.25259,-3.0895 1.42031,-5.51668 2.28957,-4.75902 7.12056,-10.04672 11.90129,-13.02642 2.10214,-1.31021 2.45512,-1.67831 3.28032,-3.42089 1.79156,-3.78324 7.28903,-9.803354 11.55157,-12.649772 3.27926,-2.1898 5.02814,-2.70131 9.23822,-2.70201 3.40197,-5.6e-4 3.95484,0.0907 7.31779,1.20748 4.06815,1.35102 5.50787,2.39773 7.56884,5.502708 0.63117,0.95089 1.25176,1.7289 1.37909,1.7289 0.12732,0 1.01963,-0.59593 1.98289,-1.3243 2.47088,-1.86832 5.73473,-3.36109 8.2919,-3.792418 6.59419,-1.11225 10.96309,2.623688 12.33848,10.550912 0.28652,1.65138 0.65771,3.25805 0.82487,3.57038 0.16748,0.31296 0.84087,0.65764 1.50003,0.76783 2.13785,0.35735 4.69384,1.15055 5.70505,1.77044 1.78538,1.09448 2.17262,2.56425 1.96709,7.46626 -0.25871,6.17021 -0.90295,7.4094 -4.39603,8.4558 -2.00058,0.5993 -6.53505,2.54024 -6.63499,2.84005 -0.16968,0.50905 1.24075,1.54148 5.35499,3.91987 4.64032,2.6825 5.19112,3.139 6.13162,5.08181 1.28485,2.65416 1.56915,4.73892 1.88346,13.81167 0.2571,7.42126 0.23164,9.04997 -0.16265,10.40628 -0.65974,2.26944 -2.25933,4.5443 -3.71897,5.28895 -0.78797,0.402 -1.88413,1.51592 -3.05704,3.10659 -1.00572,1.36393 -3.0766,3.77588 -4.60196,5.35988 -3.6014,3.73986 -3.72939,4.12496 -3.04269,9.15489 0.48108,3.52378 0.48283,3.92569 0.0201,4.63185 -0.27866,0.42529 -0.58418,0.77326 -0.67893,0.77326 -0.0948,0 -3.07944,0.64129 -6.63263,1.42508 -8.61805,1.90106 -14.9378,2.43453 -30.62034,2.58473 -6.6,0.0632 -12.68207,-0.009 -13.51572,-0.1603 z m 19.38069,-26.2643 c 0.21543,-15.16281 0.0388,-24.01542 -0.50006,-25.06255 -0.25949,-0.50425 -0.37448,-0.52918 -0.73794,-0.16 -0.35033,0.35585 -0.4382,4.07459 -0.47159,19.95734 -0.0226,10.736 -0.0308,19.628 -0.0182,19.76 0.0126,0.132 0.35934,0.24 0.77064,0.24 h 0.74781 z m -11.62497,8.17479 c -0.24149,-7.24462 -0.19186,-26.09695 0.0791,-30.03446 l 0.23906,-3.47445 -0.87906,0.2171 c -0.48348,0.1194 -1.02306,0.35802 -1.19906,0.53025 -0.55312,0.5413 -0.64471,4.56195 -0.48,21.06995 0.17174,17.21246 0.12607,16.78236 1.76,16.57344 0.61604,-0.0788 0.63401,-0.26153 0.48,-4.88183 z m 23.01693,2.74306 c 0.62317,-0.62316 1.10679,-2.76456 1.08927,-4.82306 -0.005,-0.616 -6.9e-4,-4.936 0.0101,-9.6 0.0252,-10.86813 -0.0644,-16.54047 -0.28124,-17.80911 -0.22836,-1.33591 -1.08815,-1.65336 -1.87006,-0.69047 -0.50434,0.62107 -0.56924,1.07287 -0.40508,2.81958 0.10753,1.144 0.19652,8.524 0.19777,16.4 10e-4,9.33181 0.11375,14.32 0.32228,14.32 0.176,0 0.59762,-0.27762 0.93693,-0.61694 z m 21.65346,-13.72786 c 1.03928,-0.67364 2.05039,-1.42964 2.24689,-1.68 0.19651,-0.25036 0.4534,-1.78348 0.57087,-3.40693 0.11748,-1.62344 0.6407,-5.28995 1.16272,-8.1478 1.13391,-6.20769 1.21115,-8.48106 0.32636,-9.60588 -0.68787,-0.87449 -3.69241,-2.32828 -5.49255,-2.65766 -1.476,-0.27007 -1.49065,-0.23172 -2.07944,5.44307 -0.59262,5.71166 -0.61779,9.06262 -0.11301,15.04 0.40481,4.79348 0.68535,6.24 1.21024,6.24 0.15307,0 1.12863,-0.55116 2.16792,-1.2248 z M 374.78901,135.998 c 4.14714,-1.24511 5.90854,-2.27845 9.38159,-5.50378 1.63193,-1.51553 3.47292,-2.99552 4.0911,-3.28887 1.64637,-0.78125 3.63951,-0.69092 4.83703,0.21922 0.54462,0.41391 1.42221,0.97159 1.95021,1.23927 1.30087,0.65952 7.65763,2.14533 10.19021,2.38182 4.06703,0.37979 8.70206,-1.80205 12.17161,-5.72951 1.01579,-1.14985 2.49412,-2.55545 3.28518,-3.12354 l 1.43828,-1.0329 4.72151,0.39999 c 5.32413,0.45105 7.66879,0.27015 9.68497,-0.7472 1.85202,-0.93453 1.96714,-1.85591 0.45291,-3.62495 -1.60171,-1.87124 -2.82252,-2.35555 -5.93765,-2.35555 -2.4719,0 -2.66847,-0.0522 -3.56262,-0.94637 l -0.94636,-0.94636 0.20903,-3.29364 c 0.33498,-5.27823 -0.39373,-6.80096 -4.16837,-8.71024 -1.73575,-0.87798 -1.94454,-0.91273 -3.33518,-0.55502 -2.62555,0.67535 -6.66592,2.87504 -8.64307,4.70553 -1.52439,1.41132 -2.09717,1.7461 -2.98744,1.7461 -1.66983,0 -2.36312,-0.98268 -3.26661,-4.63015 -1.22476,-4.944414 -2.19492,-5.870764 -6.64941,-6.349154 -3.41968,-0.36726 -6.92307,0.16662 -9.5049,1.44844 -1.93828,0.96231 -6.39403,6.760924 -8.82427,11.483724 -1.90412,3.70034 -3.43802,5.39141 -5.48599,6.04808 -2.1367,0.68512 -6.68627,3.16167 -7.64333,4.16062 -0.70813,0.73913 -0.96617,1.38425 -1.13859,2.84653 -0.12261,1.03994 -0.63626,2.73255 -1.14142,3.76135 -2.22162,4.52447 -0.52337,9.17904 3.94774,10.81999 1.85471,0.6807 3.54258,0.57673 6.87384,-0.42343 z M 249.93976,57.801088 c -0.43663,-0.23083 -0.92228,-0.88125 -1.08709,-1.45592 -0.40323,-1.40598 0.22846,-2.05553 3.04608,-3.1322 4.28068,-1.63574 7.8764,-4.67367 9.41375,-7.95342 1.78892,-3.81645 1.73502,-8.05668 -0.22115,-17.3978 l -1.02409,-4.89025 -1.54248,2.92025 c -1.96741,3.72474 -3.97991,6.53835 -6.80092,9.50814 -2.58181,2.71797 -4.29184,3.82798 -6.3269,4.10692 -2.81611,0.38599 -4.37963,-1.2339 -4.66887,-4.83721 -0.42814,-5.33368 4.05229,-14.86921 9.0913,-19.34867 3.69117,-3.28129 7.92399,-3.73456 9.06866,-0.9711 l 0.40924,0.98802 0.60829,-0.65293 c 0.72707,-0.78042 1.26108,-0.81533 2.51925,-0.1647 0.85428,0.44176 0.94411,0.64028 0.94411,2.08633 0,0.87897 0.73673,5.01527 1.63717,9.19179 1.30303,6.04383 1.67029,8.41004 1.79944,11.59366 0.19768,4.87264 -0.15964,6.80502 -1.91087,10.33414 -3.06942,6.18551 -11.5302,11.88544 -14.95492,10.07495 z m -2.93198,-23.26809 c 1.35255,-0.69002 4.19212,-3.62734 6.34913,-6.56769 1.41181,-1.92452 4.89203,-8.58676 4.89203,-9.36489 0,-0.22463 -0.28293,-0.40842 -0.62874,-0.40842 -0.34581,0 -0.79108,-0.30335 -0.98951,-0.6741 -0.48062,-0.89806 -1.78325,-0.64057 -3.69126,0.72966 -4.33872,3.11583 -9.32392,13.43656 -7.8345,16.21957 0.44525,0.83196 0.40398,0.83053 1.90285,0.0659 z m -162.198834,11.819 c -0.352,-0.352 -0.64,-0.9784 -0.64,-1.39201 0,-0.72884 3.07994,-10.12554 4.459688,-13.60622 0.464374,-1.17147 0.55022,-1.668 0.269779,-1.56038 -0.226231,0.0868 -1.460126,0.41275 -2.74199,0.72431 -1.806616,0.4391 -2.505948,0.4866 -3.110241,0.21126 -1.503331,-0.68496 -1.451374,-3.23182 0.07869,-3.85741 0.486239,-0.19881 2.252071,-0.65454 3.924071,-1.01273 4.191019,-0.89786 4.050149,-0.82892 4.407191,-2.15684 1.464067,-5.44518 5.000323,-17.0129104 5.377263,-17.5899804 0.33175,-0.50789 0.783593,-0.72 1.533758,-0.72 0.584903,0 1.50718,-0.22136 2.049505,-0.4919 1.29718,-0.64712 2.46106,-0.33067 3.41951,0.92975 1.37041,1.80218 3.36953,6.3537104 4.86749,11.0821504 0.80846,2.552 1.52605,4.70316 1.59463,4.78035 0.0686,0.0772 0.74836,-0.16264 1.51061,-0.53297 1.15524,-0.56126 1.51358,-0.60998 2.15298,-0.29273 0.61661,0.30595 0.78591,0.67022 0.86314,1.85711 0.0833,1.28004 -0.0183,1.56644 -0.76316,2.15237 -0.47257,0.37173 -1.1913,0.67587 -1.59718,0.67587 -0.40588,0 -0.81267,0.12088 -0.90399,0.26863 -0.0913,0.14775 0.40868,2.99175 1.11109,6.32 0.7024,3.32825 1.4346,6.79792 1.62709,7.71037 0.45044,2.1351 0.18993,3.124 -0.94701,3.59494 -1.2494,0.51752 -2.40161,0.0187 -3.03368,-1.31324 -0.2799,-0.58986 -0.88213,-3.15782 -1.33828,-5.70658 -1.12089,-6.26302 -1.78734,-9.38443 -2.06745,-9.68312 -0.12843,-0.13696 -3.05361,0.21049 -6.50039,0.77209 l -6.266893,1.02109 -2.257742,6.90791 c -1.241757,3.79935 -2.480478,7.72919 -2.752713,8.73299 -0.541568,1.99689 -1.354383,2.81492 -2.796971,2.81492 -0.488839,0 -1.176798,-0.288 -1.528798,-0.64 z m 16.526734,-23.06451 4.81072,-0.75684 -1.08078,-3.68933 c -1.09464,-3.73662 -3.66357,-9.6093204 -4.20348,-9.6093204 -0.42794,0 -1.363526,2.3610504 -3.233465,8.1600004 -0.908051,2.816 -1.786166,5.53232 -1.951366,6.03627 -0.261924,0.79902 -0.226903,0.89707 0.273647,0.76617 0.315706,-0.0826 2.738831,-0.49068 5.384724,-0.90695 z m 171.74093,19.86477 c -0.88384,-0.35639 -0.98585,-1.45384 -1.21962,-13.12026 -0.2194,-10.94984 -0.67871,-19.27246 -1.31326,-23.7966504 -0.45726,-3.2600698 -0.45278,-3.5151798 0.0719,-4.0949598 0.42825,-0.47321 0.90142,-0.59602 2.01642,-0.52334 1.36519,0.089 1.48098,0.16881 1.84001,1.26869 0.5644,1.7290298 1.05356,10.2490302 1.08058,18.8208002 0.013,4.139 0.12105,8.16087 0.24,8.93749 l 0.21628,1.41204 1.56242,-3.65204 c 4.11,-9.6068 8.51252,-15.90189 11.51504,-16.46516 1.79098,-0.33599 3.36282,0.64034 4.44694,2.76218 1.57011,3.07302 1.84699,5.29088 2.05629,16.47124 l 0.19207,10.26029 -0.88953,0.69971 c -1.04035,0.81834 -1.98997,0.88942 -2.94505,0.22046 -0.68034,-0.47653 -0.68325,-0.53517 -0.5116,-10.32 0.17727,-10.10526 0.0115,-12.4079 -1.05482,-14.65507 -0.28856,-0.60813 -0.71091,-1.10568 -0.93854,-1.10568 -1.05775,0 -3.50882,3.50283 -5.9338,8.48 -2.42252,4.97212 -6.49769,14.44492 -6.89476,16.02698 -0.23892,0.95193 -1.81777,2.70071 -2.41302,2.67273 -0.23739,-0.0112 -0.74317,-0.1459 -1.12395,-0.29945 z m 83.52384,10e-4 c -0.82696,-0.33361 -0.95416,-1.80565 -1.23058,-14.24168 -0.23015,-10.35426 -0.68816,-18.32756 -1.3026,-22.6766604 -0.46093,-3.2625798 -0.45672,-3.5147198 0.0684,-4.0949498 0.42825,-0.47321 0.90142,-0.59602 2.01642,-0.52335 1.36138,0.0887 1.48166,0.17089 1.83498,1.25335 0.54626,1.6735598 1.06163,9.9244402 1.06355,17.0270602 9.1e-4,3.374 0.095,7.54377 0.20902,9.26615 l 0.20737,3.13161 1.21051,-2.89111 c 4.27698,-10.21488 8.80635,-16.83722 11.91473,-17.42035 2.65047,-0.49723 4.58723,1.58567 5.73464,6.16735 0.51509,2.05677 0.63937,4.08117 0.78972,12.86382 l 0.17843,10.42291 -0.88619,0.69709 c -1.03522,0.8143 -1.98729,0.88633 -2.93561,0.2221 -0.67217,-0.47081 -0.67666,-0.56127 -0.51215,-10.32 0.17031,-10.10265 0.003,-12.41894 -1.06037,-14.65935 -0.2886,-0.6081 -0.71095,-1.10565 -0.93859,-1.10565 -1.01122,0 -3.44212,3.4382 -5.74241,8.12189 -2.35702,4.7992 -5.57869,12.20279 -6.75742,15.5289 -0.64142,1.80997 -2.00388,3.5636 -2.74175,3.52892 -0.23738,-0.0111 -0.74143,-0.14527 -1.1201,-0.29803 z m 74.55294,-1.29588 c -3.75736,-0.74295 -4.46993,-2.44084 -2.30208,-5.48531 0.53391,-0.74981 0.86639,-0.91648 1.67203,-0.8382 0.7592,0.0738 1.03044,0.27252 1.10699,0.81113 0.1443,1.01532 2.10971,1.46666 5.65861,1.29947 3.40408,-0.16037 5.411,-1.01772 7.31458,-3.12476 1.40621,-1.55651 1.80542,-2.48039 1.80542,-4.1783 0,-1.00198 -0.22283,-1.47132 -1.1285,-2.377 -1.53726,-1.53726 -2.69337,-2.07763 -9.26551,-4.33078 -6.30459,-2.16142 -8.23865,-3.04347 -9.93052,-4.52896 -1.58755,-1.39388 -2.07547,-2.49208 -2.07547,-4.67136 0,-1.54068 0.18317,-2.17552 1.04,-3.60448 2.53161,-4.2220204 10.2054,-8.2942002 17.48208,-9.2770302 4.73355,-0.63934002 6.11792,0.0259 6.11792,2.9397198 0,2.03177 -0.70011,2.45446 -2.76148,1.66721 -1.22993,-0.46971 -1.77024,-0.50188 -3.58341,-0.21331 -3.15304,0.50179 -7.32067,2.13967 -10.11901,3.97675 -3.7929,2.4900004 -4.60504,4.4012804 -2.6561,6.2508104 1.44013,1.36667 2.1387,1.67384 8.96203,3.9407 10.0065,3.32439 12.52799,5.40178 12.50194,10.30003 -0.0143,2.69347 -1.09367,5.05709 -3.33102,7.29444 -1.80601,1.80601 -5.40568,3.69451 -7.93663,4.16381 -2.01166,0.37302 -6.65156,0.36512 -8.57187,-0.0146 z m 55.10856,-0.0967 c -0.63807,-0.46657 -0.70984,-1.15185 -1.44628,-13.80909 -0.19456,-3.344 -0.57945,-7.9892 -0.85529,-10.32267 -0.465,-3.93348 -0.46265,-4.30203 0.0322,-5.0572 0.29353,-0.44799 0.74163,-0.89431 0.99577,-0.99183 0.84325,-0.32359 2.04271,0.20882 2.51112,1.11462 0.5499,1.06339 1.04981,6.15182 1.34919,13.73299 l 0.21782,5.5159 1.70649,-4.5559 c 4.02585,-10.74806 6.12992,-14.46202 8.66762,-15.29954 1.52377,-0.50288 2.82805,0.094 3.62689,1.65987 0.67821,1.32941 1.23066,5.52219 1.28122,9.72376 0.0266,2.20759 0.0771,2.42785 0.36734,1.6 1.17394,-3.34881 2.98378,-7.56977 3.77349,-8.80062 2.19902,-3.42741 5.30882,-3.39171 7.0806,0.0813 1.61585,3.16734 2.40336,8.19828 2.72436,17.40437 l 0.21357,6.12501 -0.83499,0.83499 c -0.94217,0.94216 -1.69759,1.04798 -2.66152,0.37282 -0.62207,-0.43572 -0.67214,-0.87995 -0.87457,-7.76001 -0.26383,-8.96666 -0.77964,-13.23677 -1.78837,-14.8051 -0.46249,-0.71905 -1.43378,0.33288 -2.61982,2.83731 -1.13184,2.39001 -4.07465,11.05883 -5.06149,14.90997 -0.7134,2.78402 -1.41814,3.68 -2.89458,3.68 -1.64759,0 -1.6666,-0.14023 -1.41941,-10.47206 0.1257,-5.25425 0.12462,-10.24624 -0.002,-11.09331 l -0.23096,-1.54013 -0.82301,0.75275 c -1.47007,1.34455 -6.02911,12.1135 -8.7656,20.70529 -1.10839,3.48002 -2.59321,4.68216 -4.26934,3.45654 z M 9.8073271,40.351998 c -0.2711797,-0.836 -1.2294203,-4.832 -2.1294231,-8.88 C 4.1610802,15.654158 2.4040218,9.4753476 0.95269632,7.8223776 -0.95869016,5.6454276 0.12743982,3.4719978 3.1267153,3.4719978 c 2.0092827,0 2.3858244,0.3424098 3.2497362,2.9551498 0.5896773,1.78338 4.0581925,15.7148004 5.7175715,22.9648504 l 0.622549,2.72 1.138555,-3.52 c 0.626205,-1.936 1.65925,-5.464 2.295655,-7.84 1.631936,-6.09279 3.294478,-11.2130604 4.037654,-12.4351204 0.724147,-1.19076 2.586935,-2.10292 3.715886,-1.81958 0.420463,0.10553 1.044375,0.65213 1.386471,1.21466 0.986394,1.622 3.367818,8.4052104 5.81383,16.5600404 1.240579,4.136 2.357965,7.70836 2.483081,7.93858 0.296374,0.54535 1.183254,-3.14665 1.784132,-7.42717 0.688504,-4.90475 1.210385,-15.1688404 0.985963,-19.3914104 -0.229885,-4.3253498 0.04355,-5.22320982 1.638068,-5.37874982 1.331173,-0.12986 2.914601,0.71433 3.15787,1.68360002 0.239199,0.95304 -0.362198,11.8177402 -1.001626,18.0951502 -1.08568,10.65835 -3.751354,19.44837 -6.07479,20.03151 -2.270266,0.5698 -2.764021,-0.20308 -5.437606,-8.51151 -2.517971,-7.82485 -4.819966,-14.64982 -5.448161,-16.15274 l -0.531983,-1.27275 -2.838051,9.57036 c -5.226138,17.62335 -5.580521,18.41513 -8.24224,18.41513 -1.243168,0 -1.292672,-0.0425 -1.7719529,-1.52 z m 224.6898029,0.32 c -1.40265,-1.59974 -2.47591,-5.38152 -2.48346,-8.75084 -0.003,-1.16096 -0.0987,-3.43522 -0.21363,-5.05391 l -0.20891,-2.94307 -1.51847,2.87479 c -3.03623,5.74825 -7.2755,11.65988 -9.38827,13.0919 -0.8395,0.56899 -1.43968,0.71613 -2.61058,0.64 -2.64735,-0.17215 -3.3248,-1.82393 -3.33723,-8.13695 -0.014,-7.13651 2.22325,-16.53574 4.39477,-18.46311 0.44586,-0.39572 1.03742,-0.5489 1.8538,-0.48 1.92994,0.16288 2.04877,0.78231 0.70511,3.67583 -2.32121,4.99865 -3.10758,8.66626 -3.11008,14.50536 -0.002,3.93158 0.23761,4.59965 1.31356,3.66727 3.38842,-2.93625 9.65211,-13.80061 11.14671,-19.33393 0.35457,-1.31266 0.83905,-2.58104 1.07664,-2.81863 0.56222,-0.56222 1.88124,-0.23271 2.69148,0.67236 0.564,0.63003 0.65279,1.53531 0.97812,9.97293 0.1968,5.104 0.52029,9.856 0.71888,10.56 0.19859,0.704 0.79154,1.95847 1.31769,2.7877 0.69048,1.08825 0.89449,1.71143 0.7333,2.24 -0.38835,1.27348 -1.13445,1.8523 -2.38762,1.8523 -0.72419,0 -1.37067,-0.21655 -1.67181,-0.56 z m -47.28818,-0.29997 c -1.35702,-0.70278 -2.23883,-2.34294 -2.23951,-4.16547 -0.002,-5.90971 10.21045,-19.86981 16.68529,-22.80786 1.81393,-0.8231 2.94052,-0.80775 4.48646,0.0611 1.89043,1.06248 2.58753,2.4068 2.456,4.73625 -0.0595,1.05441 -0.0114,1.91684 0.10694,1.91652 0.55536,-0.002 0.86335,2.63295 1.04298,8.92157 0.15742,5.51102 0.29748,7.01487 0.7199,7.72997 0.44265,0.74934 0.46198,1.03865 0.12395,1.85472 -0.59988,1.44824 -1.40379,2.03334 -2.63208,1.91567 -0.85605,-0.082 -1.18179,-0.32641 -1.62944,-1.22251 -0.46968,-0.9402 -0.55958,-2.03415 -0.56,-6.81439 l -5e-4,-5.69438 -2.55055,3.81568 c -4.27002,6.38802 -8.67811,9.82787 -13.04993,10.1835 -1.37514,0.11187 -2.12225,0.003 -2.95951,-0.43038 z m 6.39,-5.05497 c 2.101,-1.06465 5.90429,-5.20985 8.45514,-9.21521 3.16046,-4.9626 3.79051,-7.1942 2.41849,-8.56622 -0.82599,-0.82599 -1.5371,-0.63268 -3.66364,0.99591 -5.1363,3.93361 -12.49197,15.49001 -11.19507,17.58843 0.30968,0.50107 2.13926,0.13244 3.98508,-0.80291 z m 261.91356,5.11979 c -1.99698,-1.02917 -2.74554,-3.55594 -1.90748,-6.43876 1.39185,-4.78779 5.25641,-10.67476 10.39294,-15.83178 5.36491,-5.38631 8.04979,-6.47741 10.91632,-4.43626 1.37921,0.98208 2.34247,3.21413 2.08418,4.82941 -0.1335,0.83484 -0.0468,1.4757 0.26489,1.95695 0.35118,0.54228 0.51812,2.4981 0.68933,8.07559 0.16496,5.37397 0.34335,7.53032 0.66109,7.9912 0.60212,0.87339 0.54279,1.74835 -0.20134,2.9688 -0.51776,0.8492 -0.83624,1.04 -1.73594,1.04 -2.35909,0 -2.86926,-1.64338 -2.69449,-8.6796 l 0.13016,-5.2404 -2.45854,3.68594 c -2.91623,4.37213 -6.64025,8.1124 -9.35658,9.39744 -2.31017,1.09288 -5.38664,1.4019 -6.78454,0.68147 z m 6.25315,-5.05846 c 2.81312,-1.32707 7.68317,-7.17947 10.70735,-12.86716 1.12865,-2.12271 1.13804,-4.41342 0.0211,-5.14528 -0.75303,-0.4934 -0.86735,-0.47832 -2.17281,0.28673 -3.85497,2.25917 -10.65743,11.22672 -12.24425,16.14135 -0.89697,2.77807 0.17873,3.24012 3.68863,1.58436 z m -412.353401,4.71465 c -1.95788,-0.72193 -3.768777,-2.43607 -4.613625,-4.36712 -0.620714,-1.41875 -0.73703,-2.21374 -0.716043,-4.89392 0.04261,-5.44149 2.09903,-10.38965 5.947486,-14.31085 2.581466,-2.63027 5.044399,-3.76856 8.154761,-3.7689 1.436922,-1.5e-4 2.688357,0.18202 3.251745,0.47336 2.428757,1.25595 3.021066,4.1292 1.331913,6.46101 -1.720858,2.37557 -6.415865,4.85703 -11.496961,6.07649 -2.611365,0.62673 -2.611676,0.62725 -2.618219,4.36478 -0.0067,3.82261 1.264263,5.63397 4.147513,5.91102 4.257908,0.40913 7.160871,-1.9867 10.768053,-8.88691 0.720276,-1.37782 1.104754,-1.78137 1.770595,-1.85841 0.706765,-0.0818 0.883281,0.0534 1.044288,0.8 0.208983,0.96901 -0.0025,1.86884 -1.062065,4.51944 -1.495442,3.74091 -4.610959,7.44082 -7.525355,8.93692 -2.038107,1.04627 -6.275142,1.32073 -8.384086,0.54309 z m 5.482104,-19.31867 c 1.410979,-0.65502 3.111466,-1.67039 3.778861,-2.25637 1.080007,-0.94826 1.160525,-1.11834 0.732206,-1.54666 -0.641318,-0.64132 -3.02767,-0.5865 -4.355311,0.10005 -1.235415,0.63886 -3.439687,2.86072 -4.27922,4.31337 l -0.598047,1.0348 1.078047,-0.22711 c 0.592926,-0.12492 2.232485,-0.76305 3.643464,-1.41808 z m 334.733077,19.34015 c -2.611,-0.93013 -4.39565,-2.93239 -5.12486,-5.74975 -0.95966,-3.70774 -0.31508,-7.91283 1.92468,-12.55614 1.65155,-3.42389 4.69938,-6.78137 7.34168,-8.08759 1.86877,-0.92382 5.52652,-1.25415 7.32283,-0.66131 2.47041,0.81531 3.44297,3.43032 2.22802,5.99065 -1.0799,2.27573 -6.22571,5.2433 -11.4046,6.577 -3.22265,0.82992 -3.19742,0.79434 -3.23046,4.55617 -0.0347,3.94725 1.67028,5.92845 5.10184,5.92845 3.57059,0 6.68409,-2.69568 9.51433,-8.23752 1.17375,-2.29831 1.45733,-2.63977 2.19335,-2.64103 1.21793,-0.002 1.39835,1.13089 0.57229,3.59396 -1.72243,5.13584 -5.52398,9.80343 -9.0296,11.08666 -2.17047,0.7945 -5.48983,0.8843 -7.4095,0.20045 z m 4.16698,-18.75954 c 2.17197,-0.81264 5.69905,-3.13935 5.83016,-3.84598 0.13774,-0.74238 -1.50032,-1.24974 -2.96695,-0.91896 -2.08818,0.47096 -4.65044,2.67313 -5.91684,5.0853 -0.38253,0.72862 -0.36221,0.75366 0.44673,0.55063 0.46612,-0.11699 1.63922,-0.50893 2.6069,-0.87099 z m 135.17244,18.93803 c -2.58956,-0.78771 -4.76311,-2.92727 -5.48009,-5.39441 -0.54954,-1.89097 -0.53908,-6.07593 0.021,-8.3866 0.95675,-3.94744 3.83382,-8.80586 6.51641,-11.00404 2.27268,-1.86229 4.53935,-2.74924 7.03506,-2.75283 1.19366,-0.002 2.64548,0.19542 3.22628,0.43809 3.15674,1.31897 3.28065,5.37219 0.24172,7.90717 -1.78553,1.48943 -6.61365,3.74126 -9.71828,4.5326 -2.75944,0.70335 -2.80329,0.72996 -3.02593,1.83635 -0.12426,0.61746 -0.21303,2.0092 -0.19728,3.09274 0.0527,3.62231 1.83588,5.54992 5.1342,5.54992 3.51273,0 6.64833,-2.73012 9.46097,-8.23752 1.17376,-2.29831 1.45734,-2.63977 2.19336,-2.64103 1.14008,-0.002 1.36863,1.02629 0.71926,3.23595 -1.45219,4.94145 -5.62385,10.1442 -9.17658,11.44467 -1.89959,0.69535 -5.30033,0.88077 -6.95007,0.37894 z m 2.59917,-18.53873 c 2.48759,-0.85585 4.88056,-2.12417 6.20995,-3.2914 1.02414,-0.8992 1.09776,-1.06322 0.66944,-1.49154 -0.64022,-0.64022 -3.02687,-0.58691 -4.34971,0.0972 -1.31464,0.67983 -3.63895,2.99339 -4.30896,4.28904 -0.60215,1.16445 -0.5111,1.18475 1.77928,0.39675 z M 120.6849,39.596868 c -1.33061,-1.42824 -1.4305,-3.05281 -1.2079,-19.64487 0.12144,-9.052 0.34933,-16.1764204 0.53912,-16.8543902 0.61057,-2.18103002 2.39546,-3.32071002 3.70109,-2.36320002 0.72123,0.52894002 0.72919,1.05966002 0.18269,12.17759022 -0.19898,4.048 -0.39985,10.384 -0.44637,14.08 -0.0805,6.39428 -0.0475,6.82273 0.68028,8.83946 0.98297,2.72383 0.79194,3.64914 -0.84736,4.1044 -1.65657,0.46006 -1.88483,0.43032 -2.60155,-0.33899 z m 11.09447,0.29298 c -0.30226,-0.22982 -0.80192,-0.99385 -1.11036,-1.69785 -0.51064,-1.16553 -0.55252,-2.49623 -0.46836,-14.88 0.10587,-15.5774304 0.36313,-20.4160702 1.14925,-21.6158402 1.07464,-1.64011002 3.20051,-1.76005002 3.5952,-0.20283 0.1197,0.47227 0.0452,4.3146698 -0.16568,8.5386702 -0.21082,4.224 -0.47144,11.136 -0.57915,15.36 l -0.19585,7.68 0.84227,2.48674 c 0.46324,1.3677 0.84226,2.67738 0.84226,2.9104 0,1.17151 -2.86705,2.21337 -3.90958,1.42071 z m 201.02957,0.0689 c -0.41484,-0.26223 -0.48266,-2.30222 -0.49963,-15.02806 -0.0108,-8.09855 -0.0956,-14.80066 -0.18856,-14.89357 -0.22219,-0.2222004 -9.46314,1.01133 -12.05167,1.60871 -3.09671,0.71466 -4.36441,0.61899 -5.48367,-0.41385 -1.26322,-1.1657 -1.54509,-2.3913804 -0.736,-3.2004804 0.49807,-0.49806 1.2689,-0.65588 4.0281,-0.8247 3.31428,-0.20279 10.82777,-0.9845 12.93143,-1.3454 0.92444,-0.1586 1.04,-0.29447 1.04,-1.22276 0,-0.57439 0.19724,-1.3140798 0.4383,-1.6437498 0.64264,-0.87887 2.39876,-0.30779 3.2417,1.0541798 0.51349,0.82966 0.80266,1.00518 1.46285,0.88792 4.22756,-0.7509 8.52311,-1.18827 10.76575,-1.09617 2.50364,0.10282 2.7648,0.17856 3.47911,1.009 0.97168,1.12965 0.98104,2.18378 0.0292,3.29035 l -0.74309,0.86389 -2.14099,-0.42556 c -1.7367,-0.3452 -2.98225,-0.35351 -6.59607,-0.044 -5.14512,0.44066 -5.54826,0.54508 -5.28667,1.36929 0.10405,0.3278104 0.21634,6.6827604 0.24954,14.1221004 0.0472,10.58168 -0.0314,13.74343 -0.36127,14.52456 -0.60646,1.43622 -2.41082,2.14633 -3.57837,1.40829 z m -172.88547,-0.88675 c -0.89839,-0.9969 -1.00505,-2.18947 -0.26225,-2.93227 0.6485,-0.6485 0.66771,-0.9557 0.66734,-10.66773 -2.8e-4,-7.2797 -0.14273,-11.17517 -0.52366,-14.32 -0.72248,-5.9647304 -0.71152,-6.3629704 0.19543,-7.0973704 1.07263,-0.8685598 2.60758,-0.6671498 3.12091,0.40951 0.83688,1.75527 1.1151,5.6730904 1.27595,17.9678604 0.15034,11.49144 0.2169,12.7192 0.68909,12.71174 1.80685,-0.0285 7.64299,-0.75233 11.86288,-1.47123 l 4.94022,-0.84161 0.57978,0.716 c 1.27702,1.57705 0.1625,4.47703 -1.72567,4.49023 -0.404,0.003 -5.05454,0.36112 -10.33454,0.7962 -5.28,0.43508 -9.68569,0.79276 -9.79041,0.79486 -0.10472,0.002 -0.4175,-0.24819 -0.69507,-0.55619 z m 388.24547,-26 v -2.56 h -0.96 c -0.64,0 -0.96,-0.16 -0.96,-0.48 0,-0.3890204 0.51555,-0.4800004 2.72,-0.4800004 2.20444,0 2.72,0.091 2.72,0.4800004 0,0.33524 -0.33778,0.48 -1.12,0.48 h -1.12 v 2.56 c 0,2.34667 -0.0533,2.56 -0.64,2.56 -0.58667,0 -0.64,-0.21333 -0.64,-2.56 z m 3.84,-0.48 c 0,-2.6843204 0.0655,-3.0392604 0.56,-3.0336504 0.32947,0.004 0.95518,0.6730504 1.52,1.6259004 1.44722,2.44153 1.52018,2.44891 2.85353,0.2887 1.72695,-2.7978804 2.10647,-2.5962604 2.10647,1.11905 0,2.48889 -0.087,3.04 -0.48,3.04 -0.37432,0 -0.48238,-0.44035 -0.4908,-2 l -0.0108,-2 -1.02633,1.68 c -0.56448,0.924 -1.2108,1.68 -1.43626,1.68 -0.22545,0 -0.83875,-0.67619 -1.36287,-1.50265 l -0.95295,-1.50265 v 1.82265 c 0,1.60932 -0.0749,1.82265 -0.64,1.82265 -0.59509,0 -0.64,-0.21333 -0.64,-3.04 z"
       id="path1" />
  </g>
</svg>
