<?xml version="1.0" encoding="UTF-8" standalone="no"?>
<!-- Created with Inkscape (http://www.inkscape.org/) -->

<svg
   version="1.1"
   id="svg1"
   width="559.35999"
   height="269.12"
   viewBox="0 0 559.35999 269.12"
   sodipodi:docname="WALTS elephant donkey WHITE.svg"
   inkscape:version="1.4.2 (f4327f4, 2025-05-13)"
   xmlns:inkscape="http://www.inkscape.org/namespaces/inkscape"
   xmlns:sodipodi="http://sodipodi.sourceforge.net/DTD/sodipodi-0.dtd"
   xmlns="http://www.w3.org/2000/svg"
   xmlns:svg="http://www.w3.org/2000/svg">
  <defs
     id="defs1" />
  <sodipodi:namedview
     id="namedview1"
     pagecolor="#505050"
     bordercolor="#eeeeee"
     borderopacity="1"
     inkscape:showpageshadow="0"
     inkscape:pageopacity="0"
     inkscape:pagecheckerboard="0"
     inkscape:deskcolor="#505050"
     inkscape:zoom="2.25"
     inkscape:cx="279.77778"
     inkscape:cy="134.44444"
     inkscape:window-width="1920"
     inkscape:window-height="1057"
     inkscape:window-x="-8"
     inkscape:window-y="-8"
     inkscape:window-maximized="1"
     inkscape:current-layer="g1" />
  <g
     inkscape:groupmode="layer"
     inkscape:label="Image"
     id="g1">
    <path
       style="fill:#000000"
       d="m 259.14941,268.73782 c -0.29674,-0.1731 -1.03396,-1.14072 -1.63827,-2.15027 -1.59539,-2.66527 -1.75771,-5.11392 -0.65007,-9.80676 1.17423,-4.97496 1.10358,-7.48734 -0.3697,-13.14754 -0.64117,-2.46332 -1.36823,-4.70246 -1.61567,-4.97589 -0.24745,-0.27343 -0.65248,-1.06599 -0.90008,-1.76125 -0.24759,-0.69526 -1.40112,-3.3144 -2.56339,-5.82031 -1.16227,-2.5059 -2.24485,-5.3139 -2.40573,-6.24 -0.16089,-0.92609 -0.88132,-3.9878 -1.60097,-6.8038 -1.88499,-7.37605 -2.07637,-9.28619 -1.85952,-18.56 0.26506,-11.33605 -0.0362,-14.9361 -2.12876,-25.44 -0.96423,-4.84 -2.05355,-9.94312 -2.42072,-11.34027 -0.36717,-1.39715 -0.67144,-2.83715 -0.67616,-3.2 -0.005,-0.36285 -0.62447,-3.31907 -1.37723,-6.56937 -1.25716,-5.42822 -1.43026,-5.92418 -2.12475,-6.08813 l -0.7561,-0.17849 1.04648,-1.19187 c 0.86636,-0.98673 1.2577,-1.19187 2.27372,-1.19187 1.22155,0 1.2282,0.007 1.4352,1.52 0.11437,0.836 1.265,6.344 2.55693,12.24 4.83276,22.05521 4.68011,20.89714 4.9562,37.6 0.22949,13.88399 0.2449,14.129 1.10715,17.6 0.48093,1.936 1.13095,5.03816 1.44448,6.89369 0.65861,3.89774 2.44124,8.921 4.06865,11.46505 0.62101,0.97081 1.34151,2.49324 1.6011,3.38318 0.2596,0.88994 0.96028,2.70893 1.55707,4.0422 0.5968,1.33327 1.46467,3.99727 1.9286,5.92 1.1069,4.58753 0.98959,9.03061 -0.35423,13.41588 -1.72657,5.63428 -1.68636,5.02793 -0.45345,6.83762 l 1.09875,1.61277 1.0349,-1.1852 c 2.94715,-3.37518 3.64466,-5.7401 3.67779,-12.46947 0.0337,-6.8495 -0.94078,-12.27433 -4.04862,-22.53779 -3.20893,-10.59733 -3.81508,-14.30149 -3.81246,-23.29793 0.001,-4.05891 0.1983,-8.94506 0.45185,-11.2 0.28488,-2.53366 0.44487,-7.28462 0.43643,-12.96 -0.0149,-10.04718 -0.35652,-13.21195 -2.29672,-21.28 -0.83364,-3.46661 -1.15628,-5.61373 -1.27581,-8.49047 -0.24724,-5.95045 0.81932,-9.25636 4.43725,-13.75371 2.91033,-3.61775 3.27623,-4.65247 3.41805,-9.66574 0.11063,-3.91104 0.0691,-4.29425 -0.5515,-5.08316 -0.88608,-1.12646 -0.8481,-1.54759 0.24247,-2.68877 1.73465,-1.81514 1.5575,-5.70131 -0.4388,-9.62605 -1.6164,-3.17786 -5.99484,-8.02612 -8.33107,-9.22505 -3.20066,-1.64253 -9.40561,-1.67028 -16.73647,-0.0749 l -4.27271,0.92987 -1.8184,1.95897 c -2.51066,2.70476 -3.20977,2.69472 -5.89889,-0.0847 -2.22848,-2.30335 -7.55473,-5.92186 -10.44588,-7.096636 -2.62755,-1.06766 -5.80269,-1.4821 -8.28823,-1.08181 -4.2276,0.68083 -7.26097,2.343756 -11.99083,6.573496 -6.84074,6.11743 -7.58364,6.62464 -10.51818,7.18116 -1.98853,0.37712 -4.25418,0.0216 -8.47854,-1.33025 -3.26623,-1.04527 -4.09085,-0.99973 -5.38815,0.29757 l -0.83642,0.83642 0.10447,5.77189 c 0.11594,6.40529 -0.1343,5.54373 2.90974,10.01812 2.75947,4.0561 5.62342,6.03904 11.43474,7.91719 2.36152,0.76321 3.28934,0.88592 7.04,0.93111 4.25314,0.0512 4.35128,0.0688 6.34168,1.1349 2.63752,1.4127 5.94744,4.50337 7.95817,7.43101 0.88376,1.28676 2.72744,4.42756 4.09708,6.97956 3.08428,5.74686 4.71779,8.17976 6.02882,8.97917 1.88113,1.14702 3.45557,0.6427 5.60033,-1.79388 2.19617,-2.49498 3.24003,-6.77 3.24836,-13.30338 0.006,-4.82938 -0.40743,-7.73119 -2.08852,-14.65356 -1.37128,-5.64668 -2.06294,-9.79716 -2.06464,-12.38953 -0.001,-1.89779 0.0312,-1.97465 1.00472,-2.37788 0.8817,-0.36521 1.14861,-0.34035 2.16,0.20118 l 1.15399,0.61788 0.19593,2.72 c 0.10776,1.496 0.78771,5.168 1.51101,8.16 2.07182,8.57036 2.40415,11.04695 2.40465,17.92 5e-4,6.75704 -0.42782,9.14904 -2.30369,12.86512 -2.55823,5.06783 -8.34118,7.07978 -13.42091,4.66929 -2.58948,-1.22879 -4.54702,-4.22522 -7.87825,-12.05929 -1.86533,-4.38674 -5.7093,-9.3829 -8.46578,-11.00334 -1.40884,-0.82821 -1.69886,-0.87304 -5.80295,-0.8969 -3.6167,-0.021 -4.84097,-0.16426 -7.52,-0.8798 -6.21247,-1.65927 -12.33332,-5.42493 -13.94138,-8.57698 -1.06383,-2.08528 -3.50775,-9.34524 -3.33214,-9.89853 0.0916,-0.28854 -0.12341,-1.73399 -0.47775,-3.2121 -1.43408,-5.98221 -0.48963,-8.53905 3.88802,-10.52568 2.08822,-0.94766 4.28798,-0.82102 8.30691,0.47821 1.90548,0.616 3.83179,1.12 4.2807,1.12 1.64238,0 3.23773,-1.05378 6.69892,-4.42489 5.22147,-5.085556 10.5044,-8.36415 15.29912,-9.49465 2.91303,-0.68684 7.92419,-0.61627 10.93592,0.154 3.61543,0.92467 8.20635,2.849804 12.53054,5.254494 2.56615,1.427036 4.14386,2.111046 4.86926,2.111046 0.5902,0 2.27639,-0.42471 3.74709,-0.9438 3.08163,-1.087676 7.21957,-1.936196 9.4422,-1.936196 1.2121,0 1.88771,-0.23115 3.19824,-1.09424 2.71708,-1.78941 8.40697,-3.790444 10.89414,-3.831284 2.02525,-0.0332 2.21248,0.0337 5.27397,1.885524 6.50037,3.93195 9.62178,7.071816 12.28395,12.356586 3.32709,6.60471 2.76439,12.59153 -1.63601,17.40627 l -1.61252,1.76435 1.48784,2.9564 c 1.58223,3.14395 2.0689,5.21816 2.17399,9.2656 0.0548,2.11145 -0.0842,2.69215 -1.47752,6.17079 -2.00721,5.01134 -4.84622,10.44737 -6.35706,12.17224 -1.62385,1.85389 -4.03508,3.02776 -6.21927,3.02776 -1.48383,0 -1.69717,-0.0804 -1.69717,-0.64 0,-0.47085 0.21334,-0.64 0.80715,-0.64 0.49438,0 1.33533,-0.48686 2.17017,-1.25638 2.85705,-2.63355 8.2131,-13.21503 8.21975,-16.23907 0.002,-0.95467 0.23104,-1.60654 0.80293,-2.28619 0.44,-0.52291 0.79989,-1.21796 0.79975,-1.54456 -3.8e-4,-0.89722 -1.74338,-4.3967 -3.20999,-6.44479 -1.75329,-2.44844 -1.60359,-2.96364 2.11204,-7.26901 2.39449,-2.77453 3.09618,-4.33046 3.27074,-7.2525 0.27724,-4.6409 -1.78611,-9.16517 -6.17848,-13.54745 -3.42894,-3.42106 -5.67809,-4.734316 -8.40565,-4.907986 -2.23878,-0.14256 -7.66284,0.5106 -7.93804,0.95588 -0.0925,0.14964 0.0338,0.27206 0.28056,0.27206 0.72179,0 4.70879,2.946136 6.74552,4.984506 4.5272,4.53082 7.85967,11.86341 7.45695,16.40784 -0.0881,0.99421 -0.31492,3.94763 -0.50403,6.56317 -0.50076,6.92604 -0.98965,8.31544 -4.51964,12.84448 -3.54937,4.55389 -4.34544,7.30272 -4.0591,14.01595 0.0991,2.32323 0.5455,6.31205 0.99203,8.86405 1.26229,7.21433 1.59095,12.28791 1.3785,21.28 -0.10396,4.4 -0.35579,10.304 -0.55963,13.12 -0.46991,6.49181 -0.23416,15.98024 0.49692,20 0.30409,1.672 1.24591,5.488 2.09293,8.48 3.83175,13.53525 5.42312,21.10592 5.42674,25.81684 0.006,7.53692 -2.00859,12.76869 -6.02317,15.64347 -1.81845,1.30216 -2.39349,1.46273 -3.31448,0.92551 z m -102.90636,-1.94536 c -0.57524,-0.166 -3.3015,-1.73701 -6.05836,-3.49114 -5.30156,-3.37327 -6.01973,-3.61739 -7.85294,-2.6694 -1.93972,1.00306 -2.86423,1.11616 -4.62204,0.5654 -0.91258,-0.28593 -1.98364,-0.86519 -2.38014,-1.28724 l -0.7209,-0.76736 0.55562,-2.79536 c 0.51131,-2.57244 0.51576,-2.94848 0.0558,-4.71536 -0.47948,-1.8418 -2.0847,-5.25562 -5.72524,-12.17585 -0.93938,-1.78566 -1.85946,-4.05085 -2.06882,-5.09337 -0.21505,-1.07081 -0.3949,-5.05135 -0.41858,-9.26415 -0.0334,-5.94542 -0.0954,-6.91837 -0.31794,-4.98663 -0.15203,1.32 -0.63682,4.344 -1.0773,6.72 -0.44049,2.376 -0.94293,5.688 -1.11652,7.36 -0.67322,6.48413 -0.18649,15.24559 0.91461,16.46359 0.81836,0.90525 1.95867,4.49065 1.95867,6.15854 0,0.97749 -0.19726,1.57513 -0.67887,2.05673 -0.62572,0.62572 -0.8825,0.66017 -3.28,0.44 -2.85385,-0.26208 -6.17704,-0.29879 -10.60113,-0.11713 -3.72118,0.15281 -5.67135,-0.19382 -6.89814,-1.2261 -0.54184,-0.45593 -1.68881,-2.23573 -2.56152,-3.97481 -1.46944,-2.92819 -1.58034,-3.31606 -1.58034,-5.52686 0,-1.30772 0.21566,-3.50482 0.47924,-4.88246 1.08684,-5.68036 2.63014,-8.82147 6.91098,-14.06603 4.00323,-4.90444 5.80033,-9.28229 6.22543,-15.16547 0.39461,-5.4614 0.35583,-11.46536 -0.12569,-19.45854 -0.23652,-3.9262 -0.34178,-7.4902 -0.2339,-7.92 0.16688,-0.6649 0.38614,-0.78146 1.47003,-0.78146 h 1.27389 v 2.51866 c 0,1.38527 0.22349,5.52527 0.49664,9.2 0.54476,7.32851 0.39577,16.65283 -0.33428,20.92134 -0.67655,3.95569 -1.53687,5.47122 -8.62852,15.2 -2.6445,3.62789 -3.50965,5.74018 -4.63436,11.31494 -0.53872,2.67022 -0.97948,5.07259 -0.97948,5.33861 0,0.26602 0.89099,1.65183 1.97998,3.07959 1.51506,1.98637 2.32233,2.74735 3.43797,3.24085 1.41407,0.62551 1.53518,0.62894 4.02002,0.11399 3.13285,-0.64925 4.77427,-0.65831 7.68191,-0.0424 1.23193,0.26095 2.63763,0.47445 3.12378,0.47445 0.85828,0 0.87804,-0.0394 0.68164,-1.36 -0.11124,-0.748 -0.60629,-2.12191 -1.10011,-3.05312 -0.55176,-1.04048 -1.17155,-3.09244 -1.60793,-5.32339 -0.70701,-3.6146 -0.70784,-3.65978 -0.1922,-10.46688 0.28483,-3.76014 0.87585,-8.73272 1.31337,-11.05019 0.43752,-2.31747 0.96983,-6.7334 1.1829,-9.81319 0.35261,-5.09659 0.33941,-5.67287 -0.14696,-6.41516 -0.82509,-1.25925 -0.6942,-2.39315 0.32081,-2.77905 0.47035,-0.17883 1.03343,-0.25675 1.25128,-0.17315 0.98359,0.37744 -2.1382,-9.01176 -6.26603,-18.84587 -1.55138,-3.696 -3.43356,-8.448 -4.18261,-10.56 -0.74906,-2.112 -2.26321,-6.22363 -3.36477,-9.13695 -2.28558,-6.04467 -2.76752,-7.74898 -3.62675,-12.82534 -1.73193,-10.23226 -0.92874,-17.33417 2.83614,-25.07771 4.14213,-8.51945 10.89037,-15.07939 20.46084,-19.8899 9.63226,-4.84157 22.25689,-6.49351 30.01365,-3.92731 l 1.97693,0.65404 -0.33059,0.94834 c -0.62959,1.80605 -1.79329,1.92451 -6.47446,0.65907 -7.95818,-2.1513 -20.75719,1.19739 -29.99309,7.84729 -5.52316,3.97671 -11.01046,10.69984 -13.28349,16.27515 -2.12467,5.21141 -2.45532,7.03046 -2.47081,13.59332 -0.0164,6.94875 0.34074,8.98321 3.16729,18.04263 2.46156,7.88957 4.44926,13.1215 8.46357,22.27737 6.75138,15.39863 8.49551,23.63601 7.75836,36.64212 -0.20551,3.62583 -0.23278,6.78793 -0.0676,7.83788 0.19474,1.23789 1.22241,3.61108 3.46428,8 1.75308,3.432 3.4944,7.24107 3.8696,8.4646 0.93629,3.05324 1.14668,6.24028 0.58722,8.8954 -0.54705,2.59622 -0.43372,2.65115 2.47588,1.2 1.056,-0.52668 2.3201,-0.95814 2.80912,-0.9588 1.05686,-10e-4 3.01414,0.96169 9.03088,4.44382 2.464,1.42601 4.66274,2.59326 4.88609,2.59387 0.50401,0.001 0.2952,-0.98715 -0.81091,-3.83889 -0.95689,-2.46703 -1.78617,-3.73054 -2.62275,-3.99606 -0.34049,-0.10806 -0.84921,-0.81781 -1.14918,-1.60326 -0.55838,-1.46211 -1.23786,-2.25049 -2.46546,-2.86062 -0.39479,-0.19621 -0.86179,-0.785 -1.03779,-1.30841 -0.176,-0.52341 -0.96902,-1.59965 -1.76226,-2.39165 -2.51971,-2.51577 -4.78385,-7.77079 -5.79067,-13.44 -0.55322,-3.11505 -0.55403,-10.10618 -0.001,-12.96 0.23853,-1.232 1.04974,-4.256 1.8027,-6.72 3.09852,-10.1397 6.25405,-20.96734 6.85451,-23.52 1.80366,-7.66774 1.52548,-16.68419 -0.82131,-26.62016 -0.4443,-1.88109 -0.76139,-3.82509 -0.70464,-4.32 0.0963,-0.84022 0.21107,-0.90613 1.73159,-0.99478 1.99975,-0.11658 2.31941,0.2062 2.6871,2.71333 0.15016,1.02388 0.64006,3.96809 1.08867,6.54268 1.52642,8.76017 1.43495,16.24943 -0.28674,23.47893 -0.89616,3.76302 -1.96195,7.09233 -5.73664,17.92 -3.84619,11.03275 -4.1406,12.33405 -4.12666,18.24 0.0194,8.21805 0.82416,10.21304 8.02603,19.89622 2.7719,3.72693 5.5357,7.59594 6.14179,8.59781 2.84192,4.69773 2.96806,8.78118 0.3,9.71127 -1.14959,0.40075 -1.04162,0.40096 -2.44787,-0.005 z m 200.00589,-0.63437 c -0.60248,-0.62371 -0.49535,-1.29542 0.58949,-3.69627 0.54422,-1.2044 1.25824,-2.86398 1.58671,-3.68794 l 0.59721,-1.49812 -1.07695,0.44998 c -0.78535,0.32814 -2.18079,0.42263 -5.15382,0.34896 -4.55937,-0.11298 -4.94264,-0.29718 -4.94264,-2.37548 0,-0.8081 0.25828,-1.33172 0.99749,-2.02224 0.91279,-0.85268 1.07491,-1.33228 1.90941,-5.64839 0.68305,-3.53277 0.91459,-5.68448 0.92252,-8.57282 0.009,-3.21332 -1.07477,-16.65087 -1.79991,-22.3208 l -0.19658,-1.53702 0.92354,0.22193 c 1.61024,0.38695 2.58272,1.03437 2.93964,1.95703 0.60756,1.57059 1.49556,14.98403 1.49981,22.65509 l 0.004,7.36 -0.8918,1.26204 c -0.66127,0.93581 -0.84214,1.48812 -0.6997,2.13664 0.11592,0.52778 -0.0115,1.26828 -0.32128,1.86736 -0.28236,0.54601 -0.43961,1.1121 -0.34946,1.25797 0.0901,0.14587 1.28404,0.44101 2.65308,0.65587 1.36904,0.21486 2.79671,0.46277 3.17261,0.5509 0.65481,0.15354 0.67116,0.0955 0.38997,-1.38527 -0.19091,-1.00539 -0.16291,-2.82769 0.0801,-5.21436 0.4141,-4.06628 0.27816,-7.18531 -0.68188,-15.64634 -0.69992,-6.16843 -1.43437,-9.55516 -3.02842,-13.96481 -1.69692,-4.69421 -2.3179,-5.73653 -5.14261,-8.63207 -4.89347,-5.01616 -9.18154,-12.52421 -11.63348,-20.36923 -0.73551,-2.35329 -1.68261,-5.3587 -2.10466,-6.6787 -0.65996,-2.06407 -0.72108,-2.61432 -0.43664,-3.93117 0.47028,-2.17725 1.30814,-2.6699 3.72274,-2.18892 2.14237,0.42676 2.63139,0.94803 2.63139,2.80491 0,1.95676 1.3964,8.50389 2.41335,11.31518 1.12638,3.11379 4.00549,8.875 5.76545,11.53685 0.76252,1.15327 2.62664,3.31327 4.1425,4.8 4.26845,4.18642 4.52936,4.75263 6.92274,15.02315 1.50181,6.44461 1.62396,7.29513 1.9303,13.44 0.17987,3.608 0.24225,8.25559 0.13862,10.32798 -0.13138,2.62739 -0.0747,3.94999 0.18711,4.36928 0.49399,0.791 -0.0274,3.14179 -1.69242,7.62993 -0.68621,1.84977 -1.24765,3.48687 -1.24765,3.63801 0,0.43585 3.65747,0.31882 4.2808,-0.13697 0.42223,-0.30874 0.79354,-1.76994 1.48405,-5.84 0.5065,-2.98553 1.33215,-7.37223 1.83477,-9.74823 0.82925,-3.92009 0.89142,-4.64586 0.67158,-7.84 -0.41787,-6.07123 -0.92335,-16.53954 -0.91715,-18.99381 0.008,-3.2253 1.03691,-7.08619 1.88816,-7.08619 0.79424,0 1.03103,1.90236 1.48366,11.91974 0.26443,5.85214 0.61984,11.21626 0.78982,11.92026 0.61617,2.55207 0.3787,6.72619 -0.62574,10.99877 -1.34119,5.70497 -1.65441,8.28072 -1.55048,12.75004 0.0652,2.80395 -0.0221,4.02183 -0.30892,4.30864 -0.34234,0.34234 -3.68901,0.84059 -11.59055,1.72561 -1.24166,0.13907 -1.8778,0.0752 -2.16,-0.21697 z M 201.55372,265.3452 c -1.04993,-0.1853 -2.44662,-1.5236 -3.02958,-2.90293 -0.23936,-0.56634 -0.4352,-1.94009 -0.4352,-3.05277 0,-3.77947 1.19656,-6.91285 4.68147,-12.25917 0.99544,-1.52714 2.16066,-3.78526 2.58938,-5.01803 0.71089,-2.04417 0.77983,-2.73765 0.78342,-7.88086 0.004,-6.41991 -0.68946,-12.07432 -1.67857,-13.67721 -0.81134,-1.31483 -0.78632,-2.49088 0.065,-3.05615 l 0.68071,-0.45197 -0.72282,-1.42706 c -1.21889,-2.40643 -3.44753,-5.70188 -7.02453,-10.38705 -1.8812,-2.464 -3.9261,-5.23467 -4.54422,-6.15704 l -1.12386,-1.67703 -0.773,0.82351 c -2.36911,2.52392 -7.43456,4.70696 -13.29209,5.72843 -3.478,0.60651 -10.46995,0.61747 -13.28492,0.0208 -4.58154,-0.97109 -9.23598,-3.56289 -9.23598,-5.143 0,-0.69769 0.68061,-0.56894 4.99755,0.9454 6.09944,2.13961 12.13169,2.24639 19.25229,0.34079 3.88858,-1.04065 5.68063,-1.99258 7.47011,-3.96808 0.93762,-1.03508 1.74171,-1.63379 2.19424,-1.63379 0.45089,0 0.65011,-0.1475 0.54027,-0.4 -3.02679,-6.9577 -4.68823,-10.97541 -5.67761,-13.72961 -2.97612,-8.28475 -2.92246,-15.66041 0.1217,-16.73099 1.28674,-0.45252 1.56146,0.0528 1.84978,3.4026 0.62842,7.30103 3.1684,15.66786 7.1935,23.69576 1.69351,3.37765 2.90521,5.20066 7.50485,11.29108 5.06985,6.71305 11.44755,18.4642 13.7154,25.27116 2.7641,8.29641 3.48107,19.66322 1.98587,31.48358 -0.51598,4.07909 0.0926,4.5574 4.94988,3.89051 3.02818,-0.41576 3.20944,-0.39905 8.08518,0.74514 1.89636,0.44502 2.05978,0.43797 2.61043,-0.11268 0.32308,-0.32308 0.759,-1.35673 0.96871,-2.29699 0.33929,-1.52123 0.3054,-1.9387 -0.30765,-3.78956 -0.37891,-1.144 -0.96769,-2.46814 -1.30838,-2.94253 -0.3407,-0.47439 -0.55249,-1.05039 -0.47065,-1.28 0.0904,-0.25352 -0.61394,-0.85403 -1.79335,-1.52906 -2.19479,-1.25617 -2.55069,-1.80541 -4.09535,-6.32004 -1.17267,-3.4274 -1.48404,-6.50278 -1.93673,-19.12837 -0.44022,-12.2778 -0.30794,-12.84959 5.52328,-23.87423 l 2.47231,-4.67422 0.65195,-4.70377 c 0.35856,-2.58708 0.81089,-5.09168 1.00517,-5.56578 0.19428,-0.4741 0.46958,-2.59 0.61178,-4.702 0.1422,-2.112 0.49257,-6.62344 0.7786,-10.02542 0.47785,-5.68353 0.47828,-6.23157 0.005,-6.75412 -0.42887,-0.4739 -0.44254,-0.62855 -0.0821,-0.92774 1.4901,-1.23667 4.79029,-1.7621 5.15173,-0.82021 0.10817,0.28188 -0.16028,3.34188 -0.59656,6.8 -0.43627,3.45812 -1.08466,9.09549 -1.44087,12.52749 -0.82655,7.96381 -1.24504,10.803 -1.76877,12 -0.23102,0.528 -0.50913,1.464 -0.61801,2.08 -0.10889,0.616 -1.83624,4.432 -3.83857,8.48 -3.67316,7.42586 -4.05048,8.47426 -4.72191,13.12 -0.3883,2.68673 -0.36223,10.04371 0.0539,15.2 0.38174,4.73055 1.88135,10.02951 3.53987,12.50832 0.755,1.12842 1.67198,2.38728 2.03774,2.79746 0.62494,0.70086 0.63157,0.77025 0.10999,1.15165 -0.30527,0.22321 -0.46252,0.49836 -0.34945,0.61143 0.11308,0.11307 0.40404,0.0409 0.6466,-0.16043 0.34504,-0.28635 0.64916,-0.16658 1.39745,0.55032 1.25706,1.20434 2.19408,4.27922 2.43866,8.0026 0.22821,3.47414 -0.14238,4.29233 -2.32107,5.12437 -1.13406,0.4331 -1.89819,0.4904 -3.89405,0.29196 -1.36571,-0.13578 -4.45224,-0.28903 -6.85894,-0.34056 -2.40671,-0.0515 -4.92671,-0.24666 -5.6,-0.43362 -0.6733,-0.18697 -1.59265,-0.34074 -2.04301,-0.34172 -0.45037,-9.8e-4 -1.09615,-0.20455 -1.43508,-0.45238 -0.58576,-0.42832 -0.61188,-0.87535 -0.52836,-9.04 0.14943,-14.60705 -0.5574,-19.82834 -3.76201,-27.7894 l -1.28812,-3.2 0.2133,2.72 c 0.11732,1.496 0.21595,5.312 0.21919,8.48 0.006,5.40739 -0.0467,5.91671 -0.85255,8.32 -0.53678,1.60077 -1.57944,3.63145 -2.78268,5.41953 -2.22023,3.29936 -3.57715,6.57538 -4.29765,10.37582 -0.77753,4.1012 -0.77949,4.09322 1.10359,4.49707 2.00303,0.42957 3.80708,0.0658 6.4213,-1.29473 1.50541,-0.78349 2.12711,-0.94404 3.0124,-0.77796 1.99455,0.37418 1.21122,1.80662 -1.71354,3.13348 -1.69413,0.76856 -2.65574,0.98561 -4.69096,1.05883 -1.408,0.0506 -2.94485,0.0242 -3.41522,-0.0588 z m 222.25821,-5.37221 c -0.60111,-0.26163 -1.12505,-0.80123 -1.31945,-1.3589 -0.44843,-1.28637 0.22502,-6.01859 1.5401,-10.82209 1.02288,-3.73617 1.05068,-4.00441 1.0281,-9.92 -0.0217,-5.68713 -0.0791,-6.25577 -0.88777,-8.8 -0.97476,-3.06672 -2.79386,-6.8941 -4.36459,-9.18308 -0.58006,-0.84531 -2.53528,-3.39933 -4.34493,-5.67561 -1.86433,-2.34505 -3.9234,-5.36453 -4.75118,-6.96726 -0.96998,-1.87807 -1.58899,-2.75108 -1.84208,-2.59798 -0.20966,0.12683 -1.3539,0.85753 -2.54276,1.62378 -7.11036,4.58281 -16.87248,6.76685 -26.37266,5.90027 -6.57163,-0.59944 -17.77301,-3.21239 -19.32866,-4.5088 -0.93016,-0.77515 -0.19114,-1.97489 1.52202,-2.47089 1.23178,-0.35664 1.48424,-0.31476 3.31122,0.54927 3.95156,1.86879 12.71792,3.4903 18.86965,3.4903 6.99456,0 12.18968,-1.16259 19.44343,-4.35114 2.24211,-0.98557 4.25238,-1.9587 4.46725,-2.16252 0.30664,-0.29085 0.25995,-0.79065 -0.21706,-2.32327 -0.59334,-1.90642 -1.32847,-6.40584 -1.86492,-11.41446 -0.30794,-2.87513 -0.17614,-3.10298 1.93229,-3.34063 2.06602,-0.23287 2.37071,0.30203 3.61613,6.3483 1.15864,5.62497 3.25115,12.61036 4.54237,15.16372 1.03064,2.03807 2.75842,4.59589 5.86416,8.68133 1.35523,1.78274 2.84507,3.89149 3.31075,4.68612 1.25006,2.13306 3.69553,8.40514 4.208,10.79255 0.59413,2.76784 0.57413,7.09659 -0.0461,9.97908 -0.27704,1.2875 -0.61714,3.53158 -0.75577,4.98684 -0.17007,1.78526 -0.43321,2.8461 -0.80896,3.2613 -0.45179,0.49923 -2.09156,6.3015 -2.09156,7.40094 0,0.54794 2.10173,0.29317 3.53219,-0.42816 1.89978,-0.958 2.08794,-1.62982 2.53698,-9.05776 0.44676,-7.39025 0.783,-9.93225 1.83699,-13.88791 0.98936,-3.71307 1.06674,-6.50227 0.46526,-16.77184 -0.23572,-4.02462 -0.33284,-7.84062 -0.21584,-8.48 0.11701,-0.63937 0.58168,-1.99082 1.03261,-3.00323 0.75983,-1.70594 0.79321,-1.97347 0.45584,-3.65337 -0.20022,-0.99695 -0.36653,-3.84062 -0.36958,-6.31926 -0.0111,-9.02286 -1.29265,-15.94442 -4.03941,-21.81652 -1.19141,-2.54704 -4.41103,-5.73037 -7.31504,-7.23259 -4.04532,-2.09261 -6.45503,-2.65388 -11.36,-2.64597 -5.14142,0.008 -6.23194,0.27539 -15.38355,3.76785 -7.69057,2.9349 -10.74902,3.5893 -16.61645,3.55537 -4.92782,-0.0285 -8.05424,-0.57829 -12.92048,-2.27212 -5.26818,-1.83373 -12.14177,-5.53267 -16.4595,-8.85748 -3.95036,-3.04192 -11.76479,-9.90541 -12.18883,-10.70558 -0.57221,-1.07976 -0.26763,-2.6367 1.87424,-9.58078 1.6702,-5.4149 2.90015,-11.081 2.88596,-13.29506 l -0.009,-1.34375 -0.96039,1.12 c -1.34032,1.56306 -3.56049,5.33046 -6.82936,11.5887 -1.59314,3.05007 -3.18777,5.68021 -3.71054,6.1201 -3.01795,2.53944 -7.88932,0.31127 -9.12891,-4.17557 -1.86118,-6.73675 -2.92583,-9.89811 -4.22218,-12.53728 -1.35497,-2.75851 -1.5117,-2.95467 -1.91758,-2.4 -0.8706,1.18977 -1.49796,4.10852 -1.51594,7.05284 l -0.0179,2.92879 2.68504,5.26997 c 2.21903,4.35532 2.64555,5.42734 2.45747,6.17668 -0.12516,0.49868 -1.09766,2.41715 -2.16111,4.26325 -2.44094,4.23735 -2.72644,5.06908 -3.19906,9.31946 -0.44386,3.99166 -0.42035,4.08664 3.12603,12.63306 2.24048,5.3993 2.39952,6.72909 1.44298,12.06498 -0.96835,5.40173 -0.90459,7.05604 0.36865,9.56537 1.15767,2.28155 2.19218,3.07158 3.56945,2.72591 1.38404,-0.34737 2.20835,-1.49013 4.54529,-6.30117 1.68321,-3.46523 2.33966,-4.51679 2.90881,-4.65964 1.95288,-0.49014 2.4074,1.19909 1.40164,5.20921 -0.81241,3.23918 -1.55999,4.80712 -3.10997,6.52277 -2.1548,2.38511 -4.81873,3.39721 -7.87472,2.99182 -2.16181,-0.28678 -3.66024,-1.65303 -4.99943,-4.55845 -2.09778,-4.55119 -2.37788,-8.41415 -0.9731,-13.42047 1.03741,-3.69711 0.79319,-5.17822 -1.73482,-10.52103 -2.53161,-5.35042 -3.09315,-7.19868 -3.09315,-10.18079 0,-4.01228 1.79777,-11.82265 3.48054,-15.12116 0.9285,-1.82001 0.85486,-2.87703 -0.32988,-4.7347 -0.55513,-0.87046 -1.45513,-2.51865 -2,-3.66265 -0.8995,-1.88861 -0.98876,-2.35972 -0.97005,-5.12 0.0212,-3.13378 1.03825,-9.31522 1.93543,-11.76365 0.61536,-1.67934 1.35625,-2.11371 3.10792,-1.82208 2.97371,0.49506 3.44927,0.9748 6.72427,6.78321 2.90485,5.15192 3.76226,7.10315 4.82756,10.98619 0.26914,0.98102 0.76696,2.03492 1.10627,2.34199 0.59514,0.53859 0.64987,0.50949 1.54917,-0.82367 0.51273,-0.7601 2.43445,-3.89614 4.2705,-6.96898 2.72063,-4.55329 3.84669,-6.10745 6.08618,-8.4 2.64349,-2.70612 2.80156,-2.81263 4.16,-2.80284 1.52982,0.011 2.20871,0.37906 2.82167,1.52962 0.80869,1.51796 -1.92074,15.36939 -4.1954,21.29103 -0.66581,1.73331 -0.87927,2.69236 -0.68933,3.09705 0.35875,0.76434 5.84969,5.8037 7.74357,7.10672 0.80931,0.55682 2.86686,1.6181 4.57232,2.35839 1.70546,0.74029 5.23798,2.57348 7.85005,4.07377 9.38628,5.39118 12.80848,6.61325 18.51937,6.61325 3.97734,0 7.65654,-0.85793 12.83746,-2.99348 7.17279,-2.95659 12.4509,-4.04151 19.67703,-4.04464 7.00778,-0.003 11.93779,1.27235 16.56419,4.28511 4.82167,3.13992 6.85023,6.42128 9.31821,15.07301 0.22424,0.78607 0.41473,5.1697 0.49366,11.36 0.0759,5.95143 0.28397,10.85374 0.50805,11.96911 0.2291,1.14032 1.50864,4.18119 3.22814,7.67173 1.56673,3.18044 3.06321,6.57834 3.32552,7.55089 0.4682,1.73589 1.05497,13.80371 0.65325,13.43507 -0.1038,-0.0953 -1.33398,-3.19126 -2.73373,-6.88 -1.39975,-3.68874 -3.07081,-7.9308 -3.71347,-9.4268 -1.38701,-3.22873 -3.87918,-7.88232 -4.39049,-8.19833 -0.44669,-0.27607 -0.14173,8.99263 0.42331,12.86578 0.2032,1.3929 0.37669,4.54855 0.38553,7.01255 0.0148,4.11784 -0.0634,4.73868 -0.9666,7.68 -1.36763,4.45361 -1.37256,4.49306 -1.68495,13.48194 -0.31186,8.97359 -0.41895,9.43298 -2.4639,10.569 -1.46091,0.81158 -6.24661,2.35436 -7.24789,2.33653 -0.38691,-0.007 -1.15214,-0.2078 -1.70049,-0.44648 z M 103.11295,221.008 c -0.52229,-0.52229 -0.48874,-9.12157 0.0558,-14.30254 0.31807,-3.0262 0.54584,-4.06081 0.96081,-4.36424 0.86577,-0.63307 1.57285,-10.16829 1.37551,-18.54922 -0.13737,-5.8342 -0.31399,-7.6269 -1.33986,-13.6 -1.17197,-6.82374 -1.18022,-6.93496 -1.00932,-13.6 0.0948,-3.696 0.27068,-7.04558 0.39092,-7.4435 0.34997,-1.15828 3.01236,-1.39742 3.43036,-0.30813 0.0874,0.22765 -0.10673,1.97273 -0.43131,3.87797 -0.67195,3.94431 -0.63424,4.47424 1.07252,15.07366 1.02377,6.35784 1.03042,6.47377 1.00917,17.6 -0.0187,9.78856 -0.0981,11.54277 -0.6299,13.92 -0.49935,2.23199 -0.61033,4.04049 -0.61862,10.08 -0.0111,8.07788 -0.20117,9.273 -1.74332,10.96 -0.99005,1.08304 -1.86755,1.31122 -2.52277,0.656 z M 249.93976,57.80109 c -0.43663,-0.23082 -0.92228,-0.88125 -1.08709,-1.45592 -0.40323,-1.40598 0.22846,-2.05553 3.04608,-3.1322 4.28068,-1.63574 7.8764,-4.67366 9.41375,-7.95341 1.78892,-3.81645 1.73502,-8.05669 -0.22115,-17.39781 l -1.02409,-4.890244 -1.54248,2.920252 c -1.96741,3.724742 -3.97991,6.538342 -6.80092,9.508132 -2.58181,2.71797 -4.29184,3.82799 -6.3269,4.10692 -2.81611,0.386 -4.37963,-1.2339 -4.66887,-4.83721 -0.42814,-5.33368 4.05229,-14.869205 9.0913,-19.348664 3.69117,-3.281296 7.92399,-3.734559 9.06866,-0.971101 l 0.40924,0.988014 0.60829,-0.652923 c 0.72707,-0.780419 1.26108,-0.815332 2.51925,-0.164706 0.85428,0.441764 0.94411,0.640279 0.94411,2.086337 0,0.878965 0.73673,5.015267 1.63717,9.191782 1.30303,6.043841 1.67029,8.410041 1.79944,11.593661 0.19768,4.87264 -0.15964,6.80503 -1.91087,10.33414 -3.06942,6.18552 -11.5302,11.88544 -14.95492,10.07495 z M 247.00778,34.533 c 1.35255,-0.69002 4.19212,-3.62734 6.34913,-6.56769 1.41181,-1.924515 4.89203,-8.58676 4.89203,-9.364884 0,-0.224633 -0.28293,-0.408423 -0.62874,-0.408423 -0.34581,0 -0.79108,-0.303345 -0.98951,-0.674099 -0.48062,-0.898063 -1.78325,-0.64057 -3.69126,0.729659 -4.33872,3.115831 -9.32392,13.436567 -7.8345,16.219567 0.44525,0.83197 0.40398,0.83054 1.90285,0.0659 z M 84.808946,46.352 c -0.352,-0.352 -0.64,-0.9784 -0.64,-1.392 0,-0.72884 3.07994,-10.12555 4.459688,-13.60622 0.464374,-1.17148 0.55022,-1.668 0.269779,-1.56039 -0.226231,0.0868 -1.460126,0.41275 -2.74199,0.72431 -1.806616,0.4391 -2.505948,0.4866 -3.110241,0.21127 -1.503331,-0.68496 -1.451374,-3.23182 0.07869,-3.85742 0.486239,-0.1988 2.252071,-0.654534 3.924071,-1.012731 4.191019,-0.897854 4.050149,-0.828914 4.407191,-2.156833 1.464067,-5.445187 5.000321,-17.0129111 5.377261,-17.5899831 0.33175,-0.507888 0.7836,-0.72 1.53376,-0.72 0.5849,0 1.507183,-0.221355 2.049505,-0.4919014 1.29718,-0.647122 2.46106,-0.330669 3.41951,0.9297504 1.37041,1.80218 3.36953,6.3537141 4.86749,11.0821511 0.80846,2.552 1.52605,4.703159 1.59463,4.780354 0.0686,0.07719 0.74836,-0.162644 1.51061,-0.532974 1.15524,-0.561259 1.51358,-0.60998 2.15298,-0.292725 0.61661,0.30595 0.78591,0.670217 0.86314,1.857109 0.0833,1.280034 -0.0183,1.56644 -0.76316,2.15237 -0.47257,0.371726 -1.1913,0.675866 -1.59718,0.675866 -0.40588,0 -0.81267,0.120884 -0.90399,0.268631 -0.0913,0.147748 0.40868,2.991746 1.11109,6.319996 0.7024,3.32826 1.4346,6.79792 1.62709,7.71038 0.45044,2.1351 0.18993,3.124 -0.94701,3.59493 -1.2494,0.51752 -2.40161,0.0187 -3.03368,-1.31324 -0.2799,-0.58985 -0.88213,-3.15781 -1.33828,-5.70658 -1.12089,-6.26301 -1.78734,-9.38442 -2.06745,-9.68312 -0.12843,-0.136952 -3.05361,0.21049 -6.50039,0.77209 l -6.266893,1.0211 -2.257742,6.9079 c -1.241757,3.79935 -2.480478,7.7292 -2.752713,8.73299 -0.541568,1.99689 -1.354383,2.81492 -2.796971,2.81492 -0.488839,0 -1.176798,-0.288 -1.528798,-0.64 z m 16.526734,-23.064503 4.81072,-0.756843 -1.08078,-3.689326 c -1.09464,-3.736623 -3.66357,-9.6093251 -4.20348,-9.6093251 -0.42794,0 -1.363525,2.3610491 -3.233465,8.1600001 -0.90805,2.816 -1.78617,5.532324 -1.95137,6.036275 -0.26192,0.799015 -0.2269,0.897066 0.27365,0.766169 0.31571,-0.08256 2.73883,-0.490686 5.384725,-0.90695 z M 273.07661,43.15227 c -0.88384,-0.35639 -0.98585,-1.45385 -1.21962,-13.12027 -0.2194,-10.949838 -0.67871,-19.272456 -1.31326,-23.7966511 -0.45726,-3.2600694 -0.45278,-3.5151724 0.0719,-4.0949554 0.42825,-0.47321 0.90142,-0.596018 2.01642,-0.523346 1.36519,0.08898 1.48098,0.168819 1.84001,1.268696 0.5644,1.729026 1.05356,10.2490265 1.08058,18.8207975 0.013,4.139004 0.12105,8.160879 0.24,8.937499 l 0.21628,1.41203 1.56242,-3.65203 c 4.11,-9.606806 8.51252,-15.901892 11.51504,-16.465169 1.79098,-0.335991 3.36282,0.640345 4.44694,2.762186 1.57011,3.073018 1.84699,5.290881 2.05629,16.471233 l 0.19207,10.26029 -0.88953,0.69971 c -1.04035,0.81834 -1.98997,0.88943 -2.94505,0.22046 -0.68034,-0.47653 -0.68325,-0.53517 -0.5116,-10.32 0.17727,-10.105256 0.0115,-12.407893 -1.05482,-14.655071 -0.28856,-0.608122 -0.71091,-1.105676 -0.93854,-1.105676 -1.05775,0 -3.50882,3.502828 -5.9338,8.48 -2.42252,4.972117 -6.49769,14.444917 -6.89476,16.026977 -0.23892,0.95193 -1.81777,2.70071 -2.41302,2.67274 -0.23739,-0.0112 -0.74317,-0.14591 -1.12395,-0.29945 z m 83.52384,10e-4 c -0.82696,-0.33361 -0.95416,-1.80565 -1.23058,-14.24169 -0.23015,-10.354254 -0.68816,-18.327552 -1.3026,-22.6766521 -0.46093,-3.2625824 -0.45672,-3.5147254 0.0684,-4.0949554 0.42825,-0.47321 0.90142,-0.596018 2.01642,-0.523346 1.36138,0.08873 1.48166,0.170886 1.83498,1.253349 0.54626,1.673554 1.06163,9.9244405 1.06355,17.0270625 9.1e-4,3.373999 0.095,7.543762 0.20902,9.266152 l 0.20737,3.1316 1.21051,-2.89111 c 4.27698,-10.214878 8.80635,-16.837212 11.91473,-17.420347 2.65047,-0.49723 4.58723,1.585674 5.73464,6.167354 0.51509,2.056767 0.63937,4.081166 0.78972,12.863813 l 0.17843,10.42292 -0.88619,0.69708 c -1.03522,0.8143 -1.98729,0.88634 -2.93561,0.22211 -0.67217,-0.47081 -0.67666,-0.56127 -0.51215,-10.32 0.17031,-10.102661 0.003,-12.418951 -1.06037,-14.659352 -0.2886,-0.608101 -0.71095,-1.105655 -0.93859,-1.105655 -1.01122,0 -3.44212,3.438198 -5.74241,8.121894 -2.35702,4.799193 -5.57869,12.202783 -6.75742,15.528893 -0.64142,1.80997 -2.00388,3.56361 -2.74175,3.52893 -0.23738,-0.0112 -0.74143,-0.14527 -1.1201,-0.29803 z m 74.55294,-1.29589 c -3.75736,-0.74294 -4.46993,-2.44083 -2.30208,-5.4853 0.53391,-0.74981 0.86639,-0.91649 1.67203,-0.83821 0.7592,0.0738 1.03044,0.27252 1.10699,0.81114 0.1443,1.01531 2.10971,1.46666 5.65861,1.29946 3.40408,-0.16037 5.411,-1.01772 7.31458,-3.12476 1.40621,-1.5565 1.80542,-2.48039 1.80542,-4.17829 0,-1.00199 -0.22283,-1.47133 -1.1285,-2.377 -1.53726,-1.537266 -2.69337,-2.077639 -9.26551,-4.330786 -6.30459,-2.161418 -8.23865,-3.043475 -9.93052,-4.528959 -1.58755,-1.393879 -2.07547,-2.492078 -2.07547,-4.671358 0,-1.540682 0.18317,-2.175527 1.04,-3.604481 2.53161,-4.2220281 10.2054,-8.2942005 17.48208,-9.2770325 4.73355,-0.63934199 6.11792,0.02586 6.11792,2.939721 0,2.0317724 -0.70011,2.4544534 -2.76148,1.6672104 -1.22993,-0.469715 -1.77024,-0.501879 -3.58341,-0.213317 -3.15304,0.5018 -7.32067,2.139675 -10.11901,3.976757 -3.7929,2.4900001 -4.60504,4.4012831 -2.6561,6.2508081 1.44013,1.366669 2.1387,1.673838 8.96203,3.940703 10.0065,3.324391 12.52799,5.401778 12.50194,10.300034 -0.0143,2.69347 -1.09367,5.05708 -3.33102,7.29444 -1.80601,1.80601 -5.40568,3.69451 -7.93663,4.16381 -2.01166,0.37301 -6.65156,0.36512 -8.57187,-0.0146 z m 55.10856,-0.0967 c -0.63807,-0.46657 -0.70984,-1.15185 -1.44628,-13.80908 -0.19456,-3.344003 -0.57945,-7.989206 -0.85529,-10.322676 -0.465,-3.933479 -0.46265,-4.302032 0.0322,-5.057198 0.29353,-0.447989 0.74163,-0.894316 0.99577,-0.991838 0.84325,-0.323585 2.04271,0.208828 2.51112,1.114624 0.5499,1.063393 1.04981,6.151825 1.34919,13.732986 l 0.21782,5.515902 1.70649,-4.5559 c 4.02585,-10.748059 6.12992,-14.462017 8.66762,-15.299534 1.52377,-0.502888 2.82805,0.09403 3.62689,1.659871 0.67821,1.32941 1.23066,5.522181 1.28122,9.72376 0.0266,2.207591 0.0771,2.427846 0.36734,1.6 1.17394,-3.348813 2.98378,-7.569776 3.77349,-8.800622 2.19902,-3.427409 5.30882,-3.391716 7.0806,0.08127 1.61585,3.167333 2.40336,8.198279 2.72436,17.404365 l 0.21357,6.12501 -0.83499,0.83499 c -0.94217,0.94216 -1.69759,1.04798 -2.66152,0.37282 -0.62207,-0.43572 -0.67214,-0.87994 -0.87457,-7.76 -0.26383,-8.966668 -0.77964,-13.236783 -1.78837,-14.805106 -0.46249,-0.71905 -1.43378,0.332876 -2.61982,2.837309 -1.13184,2.39001 -4.07465,11.058827 -5.06149,14.909967 -0.7134,2.78403 -1.41814,3.68 -2.89458,3.68 -1.64759,0 -1.6666,-0.14022 -1.41941,-10.47206 0.1257,-5.254246 0.12462,-10.246234 -0.002,-11.093305 l -0.23096,-1.540129 -0.82301,0.752747 c -1.47007,1.344554 -6.02911,12.113497 -8.7656,20.705297 -1.10839,3.48001 -2.59321,4.68215 -4.26934,3.45653 z M 9.8073272,40.352 C 9.5361479,39.516 8.5779069,35.52 7.6779039,31.472 4.1610803,15.654159 2.4040219,9.4753519 0.95269642,7.8223829 -0.95869031,5.6454339 0.12743999,3.4720025 3.1267154,3.4720025 c 2.0092825,0 2.3858245,0.342409 3.2497365,2.9551554 C 6.9661289,8.2105309 10.434644,22.141953 12.094023,29.392 l 0.622549,2.72 1.138555,-3.52 c 0.626205,-1.936 1.65925,-5.463997 2.295655,-7.839997 1.631936,-6.092788 3.294478,-11.2130641 4.037654,-12.4351181 0.724147,-1.190765 2.586935,-2.102926 3.715886,-1.819578 0.420463,0.10553 1.044375,0.652126 1.386471,1.214659 0.986394,1.621995 3.367818,8.4052111 5.81383,16.5600371 1.240579,4.135997 2.357965,7.708357 2.483081,7.938577 0.296374,0.54535 1.183254,-3.14665 1.784132,-7.427165 0.688504,-4.904748 1.210385,-15.1688381 0.985963,-19.3914121 -0.229885,-4.3253464 0.04355,-5.22320639 1.638068,-5.37875539 1.331173,-0.129859 2.914601,0.714337 3.15787,1.68360099 C 41.392936,2.6498925 40.791539,13.514596 40.152111,19.792003 39.066431,30.45036 36.400757,39.24037 34.077321,39.82351 31.807055,40.39332 31.3133,39.62044 28.639715,31.312 26.121744,23.487156 23.819749,16.662187 23.191554,15.15926 L 22.659571,13.886518 19.82152,23.45687 C 14.595382,41.08023 14.240999,41.872 11.57928,41.872 c -1.243168,0 -1.292672,-0.0425 -1.7719528,-1.52 z m 224.6898028,0.32 c -1.40265,-1.59974 -2.47591,-5.38151 -2.48346,-8.75084 -0.003,-1.16096 -0.0987,-3.43522 -0.21363,-5.05391 l -0.20891,-2.943068 -1.51847,2.874788 c -3.03623,5.74825 -7.2755,11.65988 -9.38827,13.0919 -0.8395,0.569 -1.43968,0.71614 -2.61058,0.64 -2.64735,-0.17214 -3.3248,-1.82393 -3.33723,-8.13695 -0.014,-7.136508 2.22325,-16.53574 4.39477,-18.463106 0.44586,-0.395724 1.03742,-0.548897 1.8538,-0.48 1.92994,0.162879 2.04877,0.782311 0.70511,3.675825 -2.32121,4.998653 -3.10758,8.666262 -3.11008,14.505361 -0.002,3.93158 0.23761,4.59965 1.31356,3.66728 3.38842,-2.93625 9.65211,-13.800617 11.14671,-19.333933 0.35457,-1.312661 0.83905,-2.581045 1.07664,-2.818631 0.56222,-0.562222 1.88124,-0.232715 2.69148,0.672361 0.564,0.630026 0.65279,1.535311 0.97812,9.972926 0.1968,5.103997 0.52029,9.855997 0.71888,10.559997 0.19859,0.704 0.79154,1.95847 1.31769,2.78771 0.69048,1.08825 0.89449,1.71143 0.7333,2.24 -0.38835,1.27347 -1.13445,1.85229 -2.38762,1.85229 -0.72419,0 -1.37067,-0.21655 -1.67181,-0.56 z m -47.28818,-0.29997 c -1.35702,-0.70277 -2.23883,-2.34294 -2.23951,-4.16547 -0.002,-5.90971 10.21045,-19.869803 16.68529,-22.807856 1.81393,-0.823098 2.94052,-0.807753 4.48646,0.06111 1.89043,1.062484 2.58753,2.406797 2.456,4.736248 -0.0595,1.054409 -0.0114,1.916844 0.10694,1.916524 0.55536,-0.0015 0.86335,2.632949 1.04298,8.921564 0.15742,5.51102 0.29748,7.01488 0.7199,7.72998 0.44265,0.74934 0.46198,1.03865 0.12395,1.85471 -0.59988,1.44825 -1.40379,2.03335 -2.63208,1.91567 -0.85605,-0.082 -1.18179,-0.32641 -1.62944,-1.22251 -0.46968,-0.9402 -0.55958,-2.03415 -0.56,-6.81438 l -5e-4,-5.69439 -2.55055,3.81568 c -4.27002,6.38802 -8.67811,9.82788 -13.04993,10.18351 -1.37514,0.11186 -2.12225,0.003 -2.95951,-0.43039 z m 6.39,-5.05496 c 2.101,-1.06466 5.90429,-5.20985 8.45514,-9.215216 3.16046,-4.9626 3.79051,-7.194198 2.41849,-8.56622 -0.82599,-0.82599 -1.5371,-0.632684 -3.66364,0.99591 -5.1363,3.933614 -12.49197,15.490006 -11.19507,17.588436 0.30968,0.50106 2.13926,0.13244 3.98508,-0.80291 z m 261.91356,5.11979 c -1.99698,-1.02917 -2.74554,-3.55595 -1.90748,-6.43876 1.39185,-4.78779 5.25641,-10.674762 10.39294,-15.831785 5.36491,-5.386312 8.04979,-6.477411 10.91632,-4.436259 1.37921,0.982081 2.34247,3.214131 2.08418,4.829403 -0.1335,0.834849 -0.0468,1.475703 0.26489,1.956954 0.35118,0.542282 0.51812,2.498097 0.68933,8.075587 0.16496,5.37398 0.34335,7.53033 0.66109,7.9912 0.60212,0.87339 0.54279,1.74835 -0.20134,2.9688 -0.51776,0.84921 -0.83624,1.04 -1.73594,1.04 -2.35909,0 -2.86926,-1.64337 -2.69449,-8.67959 l 0.13016,-5.24041 -2.45854,3.68594 c -2.91623,4.37213 -6.64025,8.11241 -9.35658,9.39744 -2.31017,1.09288 -5.38664,1.4019 -6.78454,0.68148 z m 6.25315,-5.05847 c 2.81312,-1.32706 7.68317,-7.17946 10.70735,-12.867157 1.12865,-2.122711 1.13804,-4.41342 0.0211,-5.14528 -0.75303,-0.493402 -0.86735,-0.478316 -2.17281,0.286735 -3.85497,2.259163 -10.65743,11.226712 -12.24425,16.141342 -0.89697,2.77808 0.17873,3.24012 3.68863,1.58436 z M 49.412259,40.09305 c -1.95788,-0.72193 -3.768777,-2.43608 -4.613625,-4.36713 -0.620714,-1.41875 -0.73703,-2.21374 -0.716043,-4.89392 0.04261,-5.441491 2.09903,-10.389649 5.947486,-14.31085 2.581466,-2.630262 5.044399,-3.768559 8.154761,-3.768895 1.436922,-1.55e-4 2.688357,0.182015 3.251745,0.473354 2.428757,1.255959 3.021066,4.129206 1.331913,6.461014 -1.720858,2.375575 -6.415865,4.857029 -11.496961,6.076492 -2.611365,0.626727 -2.611676,0.627245 -2.618219,4.364775 -0.0067,3.82262 1.264263,5.63398 4.147513,5.91102 4.257908,0.40913 7.160871,-1.98669 10.768053,-8.88691 0.720276,-1.37782 1.104754,-1.781367 1.770595,-1.858409 0.706765,-0.08178 0.883281,0.05345 1.044288,0.8 0.208983,0.969009 -0.0025,1.868839 -1.062065,4.519439 -1.495442,3.74091 -4.610959,7.44082 -7.525355,8.93693 -2.038107,1.04626 -6.275142,1.32072 -8.384086,0.54309 z m 5.482104,-19.318675 c 1.410979,-0.655025 3.111466,-1.670393 3.778861,-2.256373 1.080007,-0.948259 1.160525,-1.11834 0.732206,-1.546659 -0.641318,-0.641317 -3.02767,-0.586496 -4.355311,0.100054 -1.235415,0.638858 -3.439687,2.860718 -4.27922,4.313366 l -0.598047,1.034804 1.078047,-0.227118 c 0.592926,-0.124915 2.232485,-0.763048 3.643464,-1.418074 z M 389.62744,40.11452 c -2.611,-0.93012 -4.39565,-2.93239 -5.12486,-5.74975 -0.95966,-3.70774 -0.31508,-7.91283 1.92468,-12.556133 1.65155,-3.423893 4.69938,-6.781375 7.34168,-8.087592 1.86877,-0.923823 5.52652,-1.254147 7.32283,-0.66131 2.47041,0.815309 3.44297,3.430321 2.22802,5.99065 -1.0799,2.275724 -6.22571,5.243298 -11.4046,6.577001 -3.22265,0.829918 -3.19742,0.794336 -3.23046,4.556164 -0.0347,3.94726 1.67028,5.92845 5.10184,5.92845 3.57059,0 6.68409,-2.69568 9.51433,-8.23752 1.17375,-2.298308 1.45733,-2.63977 2.19335,-2.64103 1.21793,-0.0021 1.39835,1.13089 0.57229,3.59397 -1.72243,5.13583 -5.52398,9.80342 -9.0296,11.08666 -2.17047,0.79449 -5.48983,0.88429 -7.4095,0.20044 z m 4.16698,-18.759535 c 2.17197,-0.812638 5.69905,-3.139347 5.83016,-3.845983 0.13774,-0.742378 -1.50032,-1.249738 -2.96695,-0.91896 -2.08818,0.470962 -4.65044,2.673129 -5.91684,5.085298 -0.38253,0.72862 -0.36221,0.753664 0.44673,0.550632 0.46612,-0.116988 1.63922,-0.508932 2.6069,-0.870987 z M 528.96686,40.29301 c -2.58956,-0.78771 -4.76311,-2.92727 -5.48009,-5.3944 -0.54954,-1.89098 -0.53908,-6.07593 0.021,-8.386607 0.95675,-3.94744 3.83382,-8.80586 6.51641,-11.004038 2.27268,-1.862289 4.53935,-2.749241 7.03506,-2.752836 1.19366,-0.0017 2.64548,0.195424 3.22628,0.438096 3.15674,1.318972 3.28065,5.372191 0.24172,7.907167 -1.78553,1.489429 -6.61365,3.741262 -9.71828,4.532599 -2.75944,0.70335 -2.80329,0.729959 -3.02593,1.836349 -0.12426,0.61747 -0.21303,2.0092 -0.19728,3.09275 0.0527,3.62231 1.83588,5.54991 5.1342,5.54991 3.51273,0 6.64833,-2.73012 9.46097,-8.23752 1.17376,-2.298308 1.45734,-2.63977 2.19336,-2.64103 1.14008,-0.002 1.36863,1.026296 0.71926,3.23595 -1.45219,4.94146 -5.62385,10.1442 -9.17658,11.44468 -1.89959,0.69534 -5.30033,0.88076 -6.95007,0.37893 z m 2.59917,-18.538722 c 2.48759,-0.855857 4.88056,-2.124179 6.20995,-3.2914 1.02414,-0.899206 1.09776,-1.063226 0.66944,-1.491545 -0.64022,-0.640219 -3.02687,-0.586909 -4.34971,0.09716 -1.31464,0.679826 -3.63895,2.993393 -4.30896,4.289043 -0.60215,1.164446 -0.5111,1.18475 1.77928,0.396743 z M 120.6849,39.59688 c -1.33061,-1.42825 -1.4305,-3.05281 -1.2079,-19.644877 0.12144,-9.052004 0.34933,-16.1764205 0.53912,-16.8543925 0.61057,-2.18102899 2.39546,-3.32070799 3.70109,-2.36319399 0.72123,0.52893199 0.72919,1.05965299 0.18269,12.17758649 -0.19898,4.048 -0.39985,10.384 -0.44637,14.079997 -0.0805,6.39429 -0.0475,6.82273 0.68028,8.83946 0.98297,2.72383 0.79194,3.64914 -0.84736,4.10441 -1.65657,0.46005 -1.88483,0.43031 -2.60155,-0.33899 z m 11.09447,0.29298 c -0.30226,-0.22982 -0.80192,-0.99386 -1.11036,-1.69786 -0.51064,-1.16553 -0.55252,-2.49623 -0.46836,-14.879997 0.10587,-15.5774311 0.36313,-20.4160675 1.14925,-21.6158425 1.07464,-1.64011099 3.20051,-1.76004499 3.5952,-0.20283 0.1197,0.47227 0.0452,4.3146724 -0.16568,8.5386725 -0.21082,4.224 -0.47144,11.136 -0.57915,15.36 l -0.19585,7.679997 0.84227,2.48674 c 0.46324,1.36771 0.84226,2.67739 0.84226,2.9104 0,1.17151 -2.86705,2.21338 -3.90958,1.42072 z m 201.02957,0.0689 c -0.41484,-0.26224 -0.48266,-2.30223 -0.49963,-15.028065 -0.0108,-8.098552 -0.0956,-14.80066 -0.18856,-14.893573 -0.22219,-0.2221961 -9.46314,1.011326 -12.05167,1.60871 -3.09671,0.714664 -4.36441,0.618991 -5.48367,-0.413855 -1.26322,-1.165697 -1.54509,-2.3913781 -0.736,-3.2004711 0.49807,-0.498064 1.2689,-0.655884 4.0281,-0.824707 3.31428,-0.202786 10.82777,-0.984498 12.93143,-1.345401 0.92444,-0.158596 1.04,-0.294464 1.04,-1.2227594 0,-0.574387 0.19724,-1.314074 0.4383,-1.643751 0.64264,-0.878864 2.39876,-0.307782 3.2417,1.054188 0.51349,0.829657 0.80266,1.005178 1.46285,0.887916 4.22756,-0.750896 8.52311,-1.188268 10.76575,-1.096167 2.50364,0.102819 2.7648,0.178559 3.47911,1.009002 0.97168,1.1296464 0.98104,2.1837784 0.0292,3.2903504 l -0.74309,0.863888 -2.14099,-0.42556 c -1.7367,-0.345201 -2.98225,-0.353509 -6.59607,-0.044 -5.14512,0.440662 -5.54826,0.54508 -5.28667,1.369292 0.10405,0.3278161 0.21634,6.6827631 0.24954,14.1221031 0.0472,10.581677 -0.0314,13.743427 -0.36127,14.524567 -0.60646,1.43621 -2.41082,2.14632 -3.57837,1.40829 z M 159.92347,39.07198 c -0.89839,-0.9969 -1.00505,-2.18948 -0.26225,-2.93227 0.6485,-0.6485 0.66771,-0.9557 0.66734,-10.667733 -2.8e-4,-7.279694 -0.14273,-11.175172 -0.52366,-14.32 -0.72248,-5.9647281 -0.71152,-6.3629705 0.19543,-7.0973725 1.07263,-0.868563 2.60758,-0.667151 3.12091,0.409517 0.83688,1.7552694 1.1151,5.6730845 1.27595,17.9678555 0.15034,11.491443 0.2169,12.719203 0.68909,12.711743 1.80685,-0.0285 7.64299,-0.75233 11.86288,-1.47123 l 4.94022,-0.84161 0.57978,0.716 c 1.27702,1.57704 0.1625,4.47703 -1.72567,4.49023 -0.404,0.003 -5.05454,0.36111 -10.33454,0.79619 -5.28,0.43508 -9.68569,0.79277 -9.79041,0.79487 -0.10472,0.002 -0.4175,-0.24819 -0.69507,-0.55619 z M 548.16894,13.072003 v -2.56 h -0.96 c -0.64,0 -0.96,-0.16 -0.96,-0.48 0,-0.3890191 0.51555,-0.4800001 2.72,-0.4800001 2.20444,0 2.72,0.09098 2.72,0.4800001 0,0.335238 -0.33778,0.48 -1.12,0.48 h -1.12 v 2.56 c 0,2.346666 -0.0533,2.56 -0.64,2.56 -0.58667,0 -0.64,-0.213334 -0.64,-2.56 z m 3.84,-0.48 c 0,-2.6843241 0.0655,-3.0392571 0.56,-3.0336501 0.32947,0.0037 0.95518,0.6730481 1.52,1.6259051 1.44722,2.441523 1.52018,2.448904 2.85353,0.288693 1.72695,-2.7978751 2.10647,-2.5962601 2.10647,1.119052 0,2.488889 -0.087,3.04 -0.48,3.04 -0.37432,0 -0.48238,-0.440352 -0.4908,-2 l -0.0108,-2 -1.02633,1.68 c -0.56448,0.924 -1.2108,1.68 -1.43626,1.68 -0.22545,0 -0.83875,-0.676193 -1.36287,-1.50265 l -0.95295,-1.50265 v 1.82265 c 0,1.609316 -0.0749,1.82265 -0.64,1.82265 -0.59509,0 -0.64,-0.213334 -0.64,-3.04 z"
       id="path1" />
  </g>
</svg>
