<?xml version="1.0" encoding="UTF-8" standalone="no"?>
<!-- Created with Inkscape (http://www.inkscape.org/) -->

<svg
   version="1.1"
   id="svg1"
   width="559.35999"
   height="220.48"
   viewBox="0 0 559.35999 220.48"
   sodipodi:docname="WALTS gender WHITE.svg"
   inkscape:version="1.4.2 (f4327f4, 2025-05-13)"
   xmlns:inkscape="http://www.inkscape.org/namespaces/inkscape"
   xmlns:sodipodi="http://sodipodi.sourceforge.net/DTD/sodipodi-0.dtd"
   xmlns="http://www.w3.org/2000/svg"
   xmlns:svg="http://www.w3.org/2000/svg">
  <defs
     id="defs1" />
  <sodipodi:namedview
     id="namedview1"
     pagecolor="#505050"
     bordercolor="#eeeeee"
     borderopacity="1"
     inkscape:showpageshadow="0"
     inkscape:pageopacity="0"
     inkscape:pagecheckerboard="0"
     inkscape:deskcolor="#505050"
     inkscape:zoom="2.1"
     inkscape:cx="279.7619"
     inkscape:cy="110.2381"
     inkscape:window-width="1920"
     inkscape:window-height="1057"
     inkscape:window-x="-8"
     inkscape:window-y="-8"
     inkscape:window-maximized="1"
     inkscape:current-layer="g1" />
  <g
     inkscape:groupmode="layer"
     inkscape:label="Image"
     id="g1">
    <path
       style="fill:#000000"
       d="m 267.86457,219.48872 c -1.53835,-1.64681 -1.58119,-2.26709 -1.59219,-23.05672 -0.003,-6.6 -0.10124,-13.12113 -0.21721,-14.49139 -0.27511,-3.25056 -0.38803,-3.31398 -4.9375,-2.77295 -2.97708,0.35404 -4.08856,0.33614 -8.30868,-0.13382 -8.20168,-0.91334 -8.7713,-1.71537 -6.40556,-9.01903 3.01282,-9.30133 10.63377,-31.62676 12.17377,-35.66281 4.75357,-12.45825 6.08188,-16.15202 5.9407,-16.51994 -0.18325,-0.47754 -1.73039,-0.12171 -2.9525,0.67904 -1.07019,0.70121 -2.80911,3.18217 -3.57649,5.10264 -3.81403,9.54513 -5.14651,13.27002 -7.10375,19.85826 -2.97507,10.01429 -3.41977,11.21216 -4.64453,12.51079 -0.80859,0.85736 -1.27912,1.08921 -2.21051,1.08921 -3.34797,0 -4.32576,-2.64228 -2.44722,-6.61314 0.5134,-1.08522 1.6119,-4.25322 2.44112,-7.04 2.63939,-8.87031 6.46633,-18.6343 9.28697,-23.69464 1.66616,-2.98915 4.63897,-5.91739 6.69795,-6.59755 4.27184,-1.41114 17.0793,-2.61941 25.37205,-2.39363 4.20275,0.11442 5.26998,0.2457 6.50266,0.79989 2.63686,1.18549 3.89636,3.49007 5.4049,9.8896 0.53538,2.27121 2.03669,7.51347 3.33624,11.64947 1.29955,4.136 2.74699,8.816 3.21654,10.4 0.46954,1.584 1.50772,4.29214 2.30705,6.01809 1.13511,2.451 1.40949,3.35725 1.25314,4.13901 -0.30231,1.51153 -1.05946,2.1629 -2.51417,2.1629 -1.77126,0 -3.17118,-1.44511 -3.87773,-4.00287 -0.29127,-1.05443 -2.46147,-7.82113 -4.82267,-15.03713 -4.01634,-12.27424 -4.72767,-14.55509 -5.60912,-17.98545 -0.64104,-2.49474 -2.65329,-4.04215 -3.78489,-2.91055 -0.67172,0.67172 -0.41672,2.75508 0.68885,5.62806 0.59007,1.53337 1.17752,3.36394 1.30545,4.06794 0.57574,3.16835 3.78368,16.28601 4.46902,18.27439 0.41812,1.21308 1.98487,5.44913 3.48168,9.41344 1.49681,3.96431 3.18335,8.86031 3.74788,10.88 0.56452,2.01969 1.30017,4.58733 1.63476,5.70587 0.68128,2.27748 0.78046,4.2468 0.2626,5.21442 -0.70441,1.31621 -2.29701,1.62429 -9.85133,1.90569 -3.93639,0.14663 -7.42997,0.35321 -7.76351,0.45907 -1.26459,0.40137 -1.65846,1.91978 -1.44523,5.57143 0.10842,1.85663 0.21409,7.40769 0.23483,12.33569 0.0207,4.928 0.18237,11.06816 0.3592,13.64482 0.42113,6.13667 0.0204,8.89058 -1.51747,10.42845 -0.84395,0.84394 -1.30243,1.04673 -2.36665,1.04673 -1.9615,0 -2.03744,-0.41204 -1.587,-8.61048 0.29283,-5.32986 0.29283,-8.9214 -10e-6,-15.70952 -0.2088,-4.84 -0.41055,-10.76535 -0.44835,-13.16744 -0.0853,-5.42182 -0.25239,-5.71256 -3.28286,-5.71256 -1.4877,0 -2.18704,0.15558 -2.75041,0.61189 l -0.75545,0.6119 0.0715,15.43965 0.0715,15.43966 0.83949,2.85319 c 0.60029,2.0402 0.77726,3.18492 0.62109,4.01739 -0.42312,2.25545 -1.50603,3.64491 -3.14453,4.0347 -0.73967,0.17597 -1.06258,0.0414 -1.80338,-0.75166 z m -7.75938,-47.08299 c 1.81293,-0.33755 4.48272,-0.61373 5.93285,-0.61373 1.45013,0 4.21482,-0.2045 6.14375,-0.45445 5.45428,-0.70675 11.6571,-1.21561 17.42715,-1.42967 l 5.28,-0.19588 0.0995,-1.02957 c 0.14494,-1.49981 -1.21029,-6.24283 -3.4546,-12.09043 -4.32323,-11.26425 -5.39792,-14.48342 -6.24718,-18.71315 -0.4763,-2.37223 -1.49712,-6.176 -2.26849,-8.45282 -0.77137,-2.27682 -1.77655,-5.66254 -2.23373,-7.52382 -1.14639,-4.66726 -1.49578,-5.40271 -2.83185,-5.96095 -1.42317,-0.59464 -3.96527,-0.12357 -4.90511,0.90896 -0.95453,1.04867 -5.88926,10.7376 -7.60685,14.93543 -2.23193,5.45488 -5.50864,15.26961 -9.45691,28.32635 -3.77975,12.49942 -3.82664,12.73509 -2.59974,13.06572 0.73404,0.19781 2.76607,-0.0356 6.72121,-0.77199 z m -132.50437,45.54568 c -1.45791,-1.61097 -1.37826,0.11687 -1.86966,-40.55941 -0.29763,-24.63755 -0.28881,-33.44443 0.0446,-44.48 0.50425,-16.69086 0.51294,-15.4574 -0.11339,-16.08373 -0.47469,-0.4747 -0.77773,-0.47354 -3.78386,0.0144 -1.79732,0.29175 -3.47827,0.74088 -3.73546,0.99806 -0.25719,0.25719 -0.73933,1.66543 -1.07142,3.12943 -0.93071,4.10289 -1.08655,11.48471 -0.43657,20.67856 0.30239,4.27721 0.57322,10.20418 0.60185,13.17105 0.0484,5.01358 0.005,5.45846 -0.61673,6.30325 -1.5012,2.0403 -3.42925,2.08523 -4.4539,0.10377 -0.87229,-1.68682 -1.46914,-7.75299 -1.65911,-16.86263 -0.2251,-10.79391 0.0839,-14.57825 2.16284,-26.49219 0.40427,-2.3167 1.70121,-5.1357 2.64828,-5.7562 1.02579,-0.67209 8.2013,-2.66763 11.53837,-3.20888 3.42737,-0.55589 19.56143,-0.66903 22.2659,-0.15613 0.92453,0.17533 2.5374,0.70313 3.58416,1.17289 1.48819,0.66786 2.03757,1.11749 2.51943,2.06202 0.80502,1.57796 1.49519,5.85941 1.74843,10.8463 0.11172,2.2 0.47712,6.304 0.81201,9.12 0.71872,6.0437 1.45876,14.65718 1.76152,20.50261 0.18163,3.50684 0.13385,4.34269 -0.2957,5.17336 -0.95538,1.8475 -3.69452,1.65645 -4.50083,-0.31394 -0.28239,-0.69008 -0.48299,-3.20369 -0.5939,-7.44203 -0.11623,-4.44113 -0.46819,-8.70168 -1.14991,-13.92 -0.54033,-4.136 -1.1265,-9.68 -1.3026,-12.32 -0.36791,-5.51551 -0.93497,-7.8294 -2.15367,-8.78803 -1.63513,-1.28619 -3.03503,-0.13999 -3.58577,2.93591 -0.51355,2.86822 -0.52375,5.43305 -0.0958,24.09212 0.2099,9.152 0.52714,24.632 0.70496,34.4 0.33682,18.50118 0.29941,18.00978 2.05878,27.04 1.53656,7.88661 1.41924,12.26878 -0.37656,14.06458 -0.86579,0.86579 -2.22326,1.06533 -3.30587,0.48593 -1.33678,-0.71542 -1.65932,-2.07451 -1.75289,-7.38609 -0.0487,-2.7658 -0.16713,-5.29326 -0.26313,-5.61658 -0.42194,-1.421 -2.36372,-24.3912 -2.72776,-32.26784 -0.13302,-2.87824 -0.40292,-5.42511 -0.61642,-5.81683 -0.49486,-0.90796 -3.04659,-1.25375 -5.6713,-0.76855 -2.46664,0.45598 -3.36014,1.307 -3.40524,3.24332 -0.0839,3.6019 0.7281,32.13619 1.06489,37.42206 0.50103,7.86334 0.50175,8.94303 0.007,10.11849 -0.68157,1.61856 -2.96834,2.28469 -3.98533,1.16092 z m 8.72813,-56.10656 c 4.22874,-0.49046 3.91769,0.4511 4.13522,-12.5173 0.23735,-14.15066 0.1945,-16.86258 -0.31248,-19.77555 -0.22974,-1.32 -0.44266,-4.992 -0.47317,-8.16 -0.0305,-3.168 -0.0766,-5.92592 -0.10252,-6.1287 -0.0774,-0.60678 -1.92234,-1.0713 -4.2548,-1.0713 -3.06119,0 -3.47225,0.44671 -3.47225,3.77329 0,1.37131 -0.21147,4.14331 -0.46992,6.16 -0.49186,3.83795 -1.12688,21.59544 -1.1289,31.56856 -0.001,5.67226 0.0173,5.83508 0.71882,6.33667 0.47399,0.33892 1.048,0.44904 1.68,0.32231 0.528,-0.10588 2.184,-0.33447 3.68,-0.50798 z m 257.92633,53.31479 c -0.40179,-0.48413 -0.57353,-22.37583 -0.36156,-46.08764 0.0503,-5.632 -0.0827,-13.768 -0.29559,-18.08 -0.44179,-8.947 -0.36431,-10.58543 0.96549,-20.41657 0.53092,-3.92512 0.96532,-8.49712 0.96532,-10.16 V 117.392 h -1.13028 c -1.80513,0 -3.31218,0.79198 -3.82006,2.00751 -1.1978,2.86675 -4.64966,30.85569 -4.64966,37.70117 0,3.06465 -0.0782,3.56953 -0.64,4.13132 -0.71319,0.71318 -2.13369,0.8256 -2.90404,0.22982 -0.27723,-0.2144 -0.78123,-0.81567 -1.12,-1.33614 -0.57374,-0.88146 -0.60976,-1.50657 -0.52548,-9.12 0.0968,-8.74753 0.36032,-12.25316 1.39604,-18.57368 1.71222,-10.44893 4.54892,-17.93039 7.34722,-19.37745 3.40097,-1.75871 9.95854,-2.32122 20.92626,-1.79507 7.60715,0.36494 9.25815,0.72765 11.3112,2.48499 2.64636,2.26518 6.9831,12.05194 13.59836,30.68753 2.34714,6.61204 2.69169,8.19303 1.94769,8.93703 -1.44183,1.44183 -3.81491,-0.63177 -4.91765,-4.29703 -2.06247,-6.85528 -5.20348,-14.51149 -9.84614,-24 -3.16067,-6.45967 -4.51736,-8.64 -5.37613,-8.64 -0.57106,0 -0.0389,3.41923 1.3995,8.99175 0.70082,2.7151 1.37202,5.87068 1.49154,7.0124 0.34699,3.31447 1.27232,7.24229 2.98866,12.68617 0.8791,2.78832 2.19905,7.01368 2.93323,9.38968 1.95349,6.32202 3.64846,10.38468 5.2955,12.69281 1.99143,2.79074 2.80325,4.7058 2.55524,6.02779 -0.34713,1.85037 -0.60834,1.9177 -7.51044,1.9362 -6.74511,0.0181 -8.00373,0.24745 -8.60558,1.56836 -0.20116,0.44151 -0.42715,4.50772 -0.54598,9.82407 -0.11152,4.98892 -0.40874,11.87877 -0.6605,15.31077 -0.25175,3.432 -0.4579,7.48058 -0.45811,8.99684 -3.3e-4,2.30411 -0.10931,2.89531 -0.66362,3.6 -1.31852,1.67623 -3.46949,0.82504 -4.09367,-1.61996 -0.56907,-2.22914 -0.7224,-12.92805 -0.32241,-22.49688 0.56739,-13.57344 0.56536,-13.71792 -0.20069,-14.29154 -0.46188,-0.34586 -1.08531,-0.42811 -2.24,-0.29554 -0.88,0.10104 -2.752,0.26769 -4.16,0.37033 -2.90078,0.21148 -4.16934,0.59604 -4.50614,1.36604 -0.12768,0.29189 -0.33085,8.37871 -0.45151,17.97071 -0.14393,11.44247 -0.34018,17.73152 -0.57066,18.2877 -0.19321,0.46624 -0.68042,1.07824 -1.08269,1.36 -0.91738,0.64256 -2.94313,0.66593 -3.46266,0.0399 z m 21.35957,-44.48506 c 5.85524,-0.10296 10.85924,-0.26907 11.12,-0.36913 0.78684,-0.30194 0.54208,-1.59244 -0.81336,-4.28827 -1.71926,-3.41943 -4.44396,-10.20605 -5.87598,-14.63571 -0.63963,-1.9786 -1.65123,-4.78365 -2.24798,-6.23346 -1.54174,-3.74565 -2.28971,-6.34655 -3.07271,-10.68465 -0.94992,-5.26295 -3.95574,-16.32963 -4.71205,-17.34859 -0.88164,-1.18784 -1.91188,-1.63261 -3.79423,-1.63805 -1.22111,-0.004 -1.77396,0.1539 -2.20225,0.62715 -0.89554,0.98957 -2.67198,8.81616 -3.04416,13.4119 -0.17977,2.21993 -0.46224,5.18823 -0.62771,6.59623 -0.71827,6.11211 -1.06187,15.01637 -0.89946,23.30987 0.18543,9.46941 0.42968,10.91034 1.90289,11.22628 1.66566,0.35721 2.05622,0.39997 2.82109,0.3089 0.44,-0.0524 5.59066,-0.1795 11.44591,-0.28247 z m -11.79499,-62.73253 c -1.75234,-0.54837 -4.16071,-2.58085 -5.23945,-4.4217 -1.03493,-1.7661 -1.28083,-3.545809 -0.80675,-5.838799 0.83164,-4.02233 2.9638,-6.83964 6.51593,-8.60974 2.78955,-1.39009 7.5422,-0.88997 9.82909,1.03432 1.6245,1.36693 2.8497,4.30983 2.85001,6.84564 4.5e-4,3.776889 -1.3681,6.391599 -4.49248,8.583229 -3.53618,2.48049 -6.12303,3.1998 -8.65635,2.40705 z m 5.88879,-5.83672 c 1.43225,-1.38613 2.00109,-2.365899 2.30064,-3.962669 0.41038,-2.18748 -2.00635,-5.39066 -4.06712,-5.39066 -1.30575,0 -2.87837,1.68172 -3.74925,4.00936 -0.8226,2.19859 -0.82673,2.73713 -0.0329,4.293139 1.45063,2.84347 3.32882,3.19917 5.54864,1.05083 z m -139.18264,4.43272 c -1.29242,-0.78808 -2.53828,-2.43222 -3.14404,-4.14913 -1.22971,-3.485369 -0.87406,-8.406209 0.79813,-11.042979 2.47074,-3.89594 9.09842,-6.6761 12.14019,-5.09252 1.63191,0.84959 3.09437,2.96663 3.54333,5.1293 0.50841,2.44895 0.16974,5.86895 -0.78843,7.96186 -0.94395,2.061859 -4.89525,6.271359 -6.71239,7.151029 -1.7739,0.85873 -4.46601,0.8783 -5.83679,0.0424 z m 6.04916,-6.45342 c 1.9314,-2.003789 3.10644,-4.422509 3.11065,-6.403029 0.004,-1.98929 -0.74548,-2.68378 -2.6297,-2.43603 -1.09992,0.14463 -1.62371,0.46158 -2.67952,1.62142 -1.55435,1.70751 -2.18612,3.65097 -1.98301,6.10021 0.27244,3.285249 1.71939,3.671919 4.18158,1.117429 z m -145.54209,5.99394 c -0.53672,-0.24296 -1.35899,-0.89707 -1.82726,-1.45358 -1.78885,-2.12592 -1.55541,-5.393059 0.72259,-10.112989 1.63032,-3.37798 3.03148,-5.02686 5.2758,-6.20855 1.86807,-0.98358 3.08094,-0.85149 5.96655,0.64976 3.65114,1.89953 5.07819,3.92652 5.07819,7.21309 0,2.96741 -3.44025,7.081119 -7.65857,9.157789 -2.41072,1.18679 -5.84489,1.52964 -7.5573,0.75448 z m 6.73587,-5.1481 c 1.93766,-0.85996 3.87854,-2.623149 4.17125,-3.789359 0.45244,-1.80268 -1.90305,-4.0848 -4.70468,-4.55814 -2.51542,-0.42497 -4.73178,1.6118 -5.44284,5.0018 -0.82644,3.940059 1.58952,5.292579 5.97627,3.345699 z M 249.93976,57.801091 c -0.43663,-0.23082 -0.92228,-0.88125 -1.08709,-1.45592 -0.40323,-1.40598 0.22846,-2.05553 3.04608,-3.1322 4.28068,-1.63574 7.8764,-4.67367 9.41375,-7.95342 1.78892,-3.81645 1.73502,-8.05668 -0.22115,-17.3978 l -1.02409,-4.89025 -1.54248,2.92026 c -1.96741,3.72473 -3.97991,6.53834 -6.80092,9.50813 -2.58181,2.71797 -4.29184,3.82799 -6.3269,4.10692 -2.81611,0.38599 -4.37963,-1.2339 -4.66887,-4.83721 -0.42814,-5.33368 4.05229,-14.86921 9.0913,-19.348665 3.69117,-3.281296 7.92399,-3.734559 9.06866,-0.971101 l 0.40924,0.988014 0.60829,-0.652923 c 0.72707,-0.780419 1.26108,-0.815332 2.51925,-0.164706 0.85428,0.441764 0.94411,0.640279 0.94411,2.086337 0,0.878965 0.73673,5.015264 1.63717,9.191784 1.30303,6.04384 1.67029,8.41004 1.79944,11.59366 0.19768,4.87264 -0.15964,6.80503 -1.91087,10.33414 -3.06942,6.18551 -11.5302,11.88544 -14.95492,10.07495 z m -2.93198,-23.26809 c 1.35255,-0.69002 4.19212,-3.62734 6.34913,-6.56769 1.41181,-1.92452 4.89203,-8.58676 4.89203,-9.36489 0,-0.22463 -0.28293,-0.40842 -0.62874,-0.40842 -0.34581,0 -0.79108,-0.303343 -0.98951,-0.674097 -0.48062,-0.898063 -1.78325,-0.64057 -3.69126,0.729657 -4.33872,3.11583 -9.32392,13.43657 -7.8345,16.21957 0.44525,0.83196 0.40398,0.83054 1.90285,0.0659 z m -162.198834,11.819 c -0.352,-0.352 -0.64,-0.9784 -0.64,-1.392 0,-0.72885 3.07994,-10.12555 4.459688,-13.60623 0.464374,-1.17147 0.55022,-1.668 0.269779,-1.56038 -0.226231,0.0868 -1.460126,0.41275 -2.74199,0.72431 -1.806616,0.4391 -2.505948,0.4866 -3.110241,0.21127 -1.503331,-0.68497 -1.451374,-3.23183 0.07869,-3.85742 0.486239,-0.1988 2.252071,-0.65454 3.924071,-1.01273 4.191019,-0.89786 4.050149,-0.82892 4.407191,-2.15684 1.464067,-5.44518 5.000323,-17.0129065 5.377263,-17.5899785 0.33175,-0.507889 0.783593,-0.72 1.533758,-0.72 0.584903,0 1.507183,-0.221356 2.049505,-0.491901 1.29718,-0.647122 2.46106,-0.330669 3.41951,0.92975 1.37041,1.80218 3.36953,6.3537145 4.86749,11.0821515 0.80846,2.551998 1.52605,4.703158 1.59463,4.780358 0.0686,0.0772 0.74836,-0.16265 1.51061,-0.53298 1.15524,-0.56126 1.51358,-0.60998 2.15298,-0.29272 0.61661,0.30595 0.78591,0.67021 0.86314,1.85711 0.0833,1.28003 -0.0183,1.56644 -0.76316,2.15237 -0.47257,0.37172 -1.1913,0.67586 -1.59718,0.67586 -0.40588,0 -0.81267,0.12089 -0.90399,0.26863 -0.0913,0.14775 0.40868,2.99175 1.11109,6.32 0.7024,3.32826 1.4346,6.79792 1.62709,7.71037 0.45044,2.1351 0.18993,3.12401 -0.94701,3.59494 -1.2494,0.51752 -2.40161,0.0187 -3.03368,-1.31324 -0.2799,-0.58986 -0.88213,-3.15782 -1.33828,-5.70658 -1.12089,-6.26302 -1.78734,-9.38442 -2.06745,-9.68312 -0.12843,-0.13695 -3.05361,0.21049 -6.50039,0.77209 l -6.266893,1.02109 -2.257742,6.90791 c -1.241757,3.79935 -2.480478,7.7292 -2.752713,8.73299 -0.541568,1.99689 -1.354383,2.81492 -2.796971,2.81492 -0.488839,0 -1.176798,-0.288 -1.528798,-0.64 z m 16.526734,-23.0645 4.81072,-0.75685 -1.08078,-3.68932 c -1.09464,-3.736626 -3.66357,-9.6093285 -4.20348,-9.6093285 -0.42794,0 -1.363526,2.3610495 -3.233465,8.1600005 -0.908051,2.815998 -1.786166,5.532328 -1.951366,6.036278 -0.261924,0.79901 -0.226903,0.89706 0.273647,0.76617 0.315706,-0.0826 2.738831,-0.49069 5.384724,-0.90695 z m 171.74093,19.86476 c -0.88384,-0.35639 -0.98585,-1.45384 -1.21962,-13.12026 -0.2194,-10.94984 -0.67871,-19.272457 -1.31326,-23.7966525 -0.45726,-3.26007 -0.45278,-3.515173 0.0719,-4.094955 0.42825,-0.473211 0.90142,-0.596019 2.01642,-0.523346 1.36519,0.08898 1.48098,0.168819 1.84001,1.268696 0.5644,1.729025 1.05356,10.2490265 1.08058,18.8207975 0.013,4.139 0.12105,8.16088 0.24,8.9375 l 0.21628,1.41203 1.56242,-3.65203 c 4.11,-9.60681 8.51252,-15.901893 11.51504,-16.46517 1.79098,-0.335991 3.36282,0.640345 4.44694,2.762186 1.57011,3.073018 1.84699,5.290884 2.05629,16.471234 l 0.19207,10.26029 -0.88953,0.69971 c -1.04035,0.81834 -1.98997,0.88942 -2.94505,0.22046 -0.68034,-0.47653 -0.68325,-0.53517 -0.5116,-10.32 0.17727,-10.10526 0.0115,-12.40789 -1.05482,-14.655072 -0.28856,-0.608122 -0.71091,-1.105676 -0.93854,-1.105676 -1.05775,0 -3.50882,3.502828 -5.9338,8.479998 -2.42252,4.97212 -6.49769,14.44492 -6.89476,16.02698 -0.23892,0.95193 -1.81777,2.70071 -2.41302,2.67274 -0.23739,-0.0112 -0.74317,-0.14591 -1.12395,-0.29946 z m 83.52384,10e-4 c -0.82696,-0.33361 -0.95416,-1.80564 -1.23058,-14.24168 -0.23015,-10.35426 -0.68816,-18.327553 -1.3026,-22.6766535 -0.46093,-3.262582 -0.45672,-3.514726 0.0684,-4.094955 0.42825,-0.473211 0.90142,-0.596019 2.01642,-0.523346 1.36138,0.08873 1.48166,0.170886 1.83498,1.253349 0.54626,1.673553 1.06163,9.9244405 1.06355,17.0270655 9.1e-4,3.374 0.095,7.54376 0.20902,9.26615 l 0.20737,3.1316 1.21051,-2.89111 c 4.27698,-10.21488 8.80635,-16.837213 11.91473,-17.420348 2.65047,-0.49723 4.58723,1.585674 5.73464,6.167358 0.51509,2.05676 0.63937,4.08116 0.78972,12.86381 l 0.17843,10.42292 -0.88619,0.69708 c -1.03522,0.8143 -1.98729,0.88633 -2.93561,0.22211 -0.67217,-0.47081 -0.67666,-0.56128 -0.51215,-10.32 0.17031,-10.10266 0.003,-12.41895 -1.06037,-14.659353 -0.2886,-0.608101 -0.71095,-1.105655 -0.93859,-1.105655 -1.01122,0 -3.44212,3.438198 -5.74241,8.121898 -2.35702,4.79919 -5.57869,12.20278 -6.75742,15.52889 -0.64142,1.80997 -2.00388,3.5636 -2.74175,3.52893 -0.23738,-0.0112 -0.74143,-0.14527 -1.1201,-0.29803 z m 74.55294,-1.29588 c -3.75736,-0.74294 -4.46993,-2.44084 -2.30208,-5.4853 0.53391,-0.74982 0.86639,-0.91649 1.67203,-0.83821 0.7592,0.0738 1.03044,0.27252 1.10699,0.81114 0.1443,1.01531 2.10971,1.46666 5.65861,1.29946 3.40408,-0.16037 5.411,-1.01772 7.31458,-3.12476 1.40621,-1.5565 1.80542,-2.48039 1.80542,-4.1783 0,-1.00198 -0.22283,-1.47132 -1.1285,-2.377 -1.53726,-1.53726 -2.69337,-2.07763 -9.26551,-4.33078 -6.30459,-2.16142 -8.23865,-3.04347 -9.93052,-4.52896 -1.58755,-1.393875 -2.07547,-2.492074 -2.07547,-4.671354 0,-1.540682 0.18317,-2.175527 1.04,-3.604481 2.53161,-4.2220285 10.2054,-8.2942005 17.48208,-9.2770325 4.73355,-0.63934299 6.11792,0.02586 6.11792,2.939721 0,2.031772 -0.70011,2.454453 -2.76148,1.667209 -1.22993,-0.469715 -1.77024,-0.501879 -3.58341,-0.213316 -3.15304,0.501799 -7.32067,2.139674 -10.11901,3.976756 -3.7929,2.4900015 -4.60504,4.4012845 -2.6561,6.2508095 1.44013,1.366669 2.1387,1.673838 8.96203,3.940698 10.0065,3.3244 12.52799,5.40178 12.50194,10.30004 -0.0143,2.69347 -1.09367,5.05708 -3.33102,7.29443 -1.80601,1.80601 -5.40568,3.69452 -7.93663,4.16382 -2.01166,0.37301 -6.65156,0.36511 -8.57187,-0.0146 z m 55.10856,-0.0967 c -0.63807,-0.46657 -0.70984,-1.15185 -1.44628,-13.80909 -0.19456,-3.34399 -0.57945,-7.9892 -0.85529,-10.322667 -0.465,-3.933479 -0.46265,-4.302032 0.0322,-5.057198 0.29353,-0.447989 0.74163,-0.894316 0.99577,-0.991838 0.84325,-0.323585 2.04271,0.208828 2.51112,1.114624 0.5499,1.063393 1.04981,6.151829 1.34919,13.732989 l 0.21782,5.5159 1.70649,-4.5559 c 4.02585,-10.74806 6.12992,-14.462018 8.66762,-15.299535 1.52377,-0.502888 2.82805,0.09403 3.62689,1.659871 0.67821,1.32941 1.23066,5.522184 1.28122,9.723764 0.0266,2.20759 0.0771,2.42784 0.36734,1.6 1.17394,-3.34882 2.98378,-7.56978 3.77349,-8.800626 2.19902,-3.427409 5.30882,-3.391716 7.0806,0.08127 1.61585,3.167336 2.40336,8.198276 2.72436,17.404366 l 0.21357,6.12501 -0.83499,0.83499 c -0.94217,0.94216 -1.69759,1.04798 -2.66152,0.37282 -0.62207,-0.43572 -0.67214,-0.87995 -0.87457,-7.76 -0.26383,-8.96667 -0.77964,-13.23678 -1.78837,-14.80511 -0.46249,-0.719047 -1.43378,0.33288 -2.61982,2.83731 -1.13184,2.39001 -4.07465,11.05883 -5.06149,14.90997 -0.7134,2.78402 -1.41814,3.68 -2.89458,3.68 -1.64759,0 -1.6666,-0.14023 -1.41941,-10.47206 0.1257,-5.25425 0.12462,-10.24624 -0.002,-11.09331 l -0.23096,-1.540125 -0.82301,0.752747 c -1.47007,1.344558 -6.02911,12.113498 -8.7656,20.705298 -1.10839,3.48001 -2.59321,4.68215 -4.26934,3.45653 z M 9.8073272,40.352001 c -0.2711797,-0.836 -1.2294203,-4.832 -2.1294231,-8.88 C 4.1610803,15.654159 2.4040219,9.4753515 0.95269644,7.8223825 c -1.91138678,-2.176949 -0.82525645,-4.35038 2.17401896,-4.35038 2.0092827,0 2.3858244,0.342409 3.2497362,2.955155 0.5896773,1.783373 4.0581924,15.7147935 5.7175714,22.9648435 l 0.622549,2.72 1.138555,-3.52 c 0.626205,-1.936 1.65925,-5.464 2.295655,-7.84 1.631936,-6.092786 3.294478,-11.2130625 4.037654,-12.4351175 0.724147,-1.190765 2.586935,-2.102926 3.715886,-1.819577 0.420463,0.105529 1.044375,0.652126 1.386471,1.214658 0.986394,1.621995 3.367818,8.4052125 5.81383,16.5600365 1.240579,4.136 2.357965,7.70836 2.483081,7.93858 0.296374,0.54535 1.183254,-3.14665 1.784132,-7.42717 0.688504,-4.90474 1.210385,-15.1688355 0.985963,-19.3914085 -0.229885,-4.325346 0.04355,-5.22320599 1.638068,-5.37875499 1.331173,-0.129859 2.914601,0.714337 3.15787,1.68360099 0.239199,0.953043 -0.362198,11.8177475 -1.001626,18.0951525 -1.08568,10.65835 -3.751354,19.44837 -6.07479,20.03151 -2.270266,0.5698 -2.764021,-0.20307 -5.437606,-8.51151 -2.517971,-7.82485 -4.819966,-14.649814 -5.448161,-16.152741 l -0.531983,-1.272742 -2.838051,9.570353 c -5.226138,17.62335 -5.580521,18.41513 -8.24224,18.41513 -1.243168,0 -1.292672,-0.0425 -1.7719528,-1.52 z m 224.6898028,0.32 c -1.40265,-1.59974 -2.47591,-5.38152 -2.48346,-8.75084 -0.003,-1.16096 -0.0987,-3.43522 -0.21363,-5.05391 l -0.20891,-2.94307 -1.51847,2.87479 c -3.03623,5.74825 -7.2755,11.65988 -9.38827,13.0919 -0.8395,0.569 -1.43968,0.71614 -2.61058,0.64 -2.64735,-0.17214 -3.3248,-1.82393 -3.33723,-8.13695 -0.014,-7.13651 2.22325,-16.535741 4.39477,-18.463107 0.44586,-0.395724 1.03742,-0.548897 1.8538,-0.48 1.92994,0.162879 2.04877,0.782311 0.70511,3.675825 -2.32121,4.998652 -3.10758,8.666262 -3.11008,14.505362 -0.002,3.93158 0.23761,4.59965 1.31356,3.66728 3.38842,-2.93626 9.65211,-13.80062 11.14671,-19.333934 0.35457,-1.312661 0.83905,-2.581045 1.07664,-2.818631 0.56222,-0.562222 1.88124,-0.232715 2.69148,0.672361 0.564,0.630026 0.65279,1.535311 0.97812,9.972924 0.1968,5.104 0.52029,9.856 0.71888,10.56 0.19859,0.704 0.79154,1.95847 1.31769,2.7877 0.69048,1.08825 0.89449,1.71143 0.7333,2.24 -0.38835,1.27348 -1.13445,1.8523 -2.38762,1.8523 -0.72419,0 -1.37067,-0.21655 -1.67181,-0.56 z m -47.28818,-0.29997 c -1.35702,-0.70278 -2.23883,-2.34294 -2.23951,-4.16547 -0.002,-5.90971 10.21045,-19.869804 16.68529,-22.807857 1.81393,-0.823098 2.94052,-0.807753 4.48646,0.06111 1.89043,1.062484 2.58753,2.406797 2.456,4.736247 -0.0595,1.05441 -0.0114,1.91684 0.10694,1.91652 0.55536,-0.002 0.86335,2.63295 1.04298,8.92157 0.15742,5.51102 0.29748,7.01487 0.7199,7.72998 0.44265,0.74933 0.46198,1.03864 0.12395,1.85471 -0.59988,1.44825 -1.40379,2.03335 -2.63208,1.91567 -0.85605,-0.082 -1.18179,-0.32641 -1.62944,-1.22251 -0.46968,-0.9402 -0.55958,-2.03415 -0.56,-6.81438 l -5e-4,-5.69439 -2.55055,3.81568 c -4.27002,6.38802 -8.67811,9.82787 -13.04993,10.18351 -1.37514,0.11186 -2.12225,0.003 -2.95951,-0.43039 z m 6.39,-5.05496 c 2.101,-1.06466 5.90429,-5.20985 8.45514,-9.21522 3.16046,-4.9626 3.79051,-7.1942 2.41849,-8.566217 -0.82599,-0.82599 -1.5371,-0.632684 -3.66364,0.995907 -5.1363,3.93362 -12.49197,15.49001 -11.19507,17.58844 0.30968,0.50106 2.13926,0.13243 3.98508,-0.80291 z m 261.91356,5.11978 c -1.99698,-1.02916 -2.74554,-3.55594 -1.90748,-6.43875 1.39185,-4.78779 5.25641,-10.67476 10.39294,-15.83179 5.36491,-5.386308 8.04979,-6.477407 10.91632,-4.436255 1.37921,0.982081 2.34247,3.21413 2.08418,4.829405 -0.1335,0.83485 -0.0468,1.4757 0.26489,1.95695 0.35118,0.54228 0.51812,2.4981 0.68933,8.07559 0.16496,5.37397 0.34335,7.53032 0.66109,7.9912 0.60212,0.87339 0.54279,1.74835 -0.20134,2.9688 -0.51776,0.8492 -0.83624,1.04 -1.73594,1.04 -2.35909,0 -2.86926,-1.64338 -2.69449,-8.67959 l 0.13016,-5.24041 -2.45854,3.68594 c -2.91623,4.37213 -6.64025,8.1124 -9.35658,9.39744 -2.31017,1.09288 -5.38664,1.4019 -6.78454,0.68147 z m 6.25315,-5.05846 c 2.81312,-1.32707 7.68317,-7.17947 10.70735,-12.86716 1.12865,-2.12271 1.13804,-4.41342 0.0211,-5.145278 -0.75303,-0.493402 -0.86735,-0.478316 -2.17281,0.286735 -3.85497,2.259163 -10.65743,11.226713 -12.24425,16.141343 -0.89697,2.77808 0.17873,3.24012 3.68863,1.58436 z m -412.353401,4.71466 c -1.95788,-0.72194 -3.768777,-2.43608 -4.613625,-4.36713 -0.620714,-1.41875 -0.73703,-2.21374 -0.716043,-4.89392 0.04261,-5.44149 2.09903,-10.38965 5.947486,-14.310851 2.581466,-2.630262 5.044399,-3.768559 8.154761,-3.768895 1.436922,-1.55e-4 2.688357,0.182015 3.251745,0.473354 2.428757,1.255959 3.021066,4.129206 1.331913,6.461012 -1.720858,2.37558 -6.415865,4.85703 -11.496961,6.07649 -2.611365,0.62673 -2.611676,0.62725 -2.618219,4.36478 -0.0067,3.82261 1.264263,5.63397 4.147513,5.91102 4.257908,0.40913 7.160871,-1.9867 10.768053,-8.88691 0.720276,-1.37782 1.104754,-1.78137 1.770595,-1.85841 0.706765,-0.0818 0.883281,0.0534 1.044288,0.8 0.208983,0.96901 -0.0025,1.86884 -1.062065,4.51944 -1.495442,3.74091 -4.610959,7.44082 -7.525355,8.93693 -2.038107,1.04626 -6.275142,1.32072 -8.384086,0.54309 z m 5.482104,-19.31868 c 1.410979,-0.65502 3.111466,-1.67039 3.778861,-2.25637 1.080007,-0.948258 1.160525,-1.118339 0.732206,-1.546658 -0.641318,-0.641317 -3.02767,-0.586496 -4.355311,0.100054 -1.235415,0.638858 -3.439687,2.860714 -4.27922,4.313364 l -0.598047,1.03481 1.078047,-0.22712 c 0.592926,-0.12492 2.232485,-0.76305 3.643464,-1.41808 z m 334.733077,19.34015 c -2.611,-0.93012 -4.39565,-2.93239 -5.12486,-5.74975 -0.95966,-3.70774 -0.31508,-7.91283 1.92468,-12.55613 1.65155,-3.4239 4.69938,-6.781379 7.34168,-8.087596 1.86877,-0.923823 5.52652,-1.254147 7.32283,-0.66131 2.47041,0.815309 3.44297,3.43032 2.22802,5.990646 -1.0799,2.27573 -6.22571,5.2433 -11.4046,6.577 -3.22265,0.82992 -3.19742,0.79434 -3.23046,4.55617 -0.0347,3.94725 1.67028,5.92845 5.10184,5.92845 3.57059,0 6.68409,-2.69568 9.51433,-8.23752 1.17375,-2.29831 1.45733,-2.63977 2.19335,-2.64103 1.21793,-0.002 1.39835,1.13089 0.57229,3.59396 -1.72243,5.13584 -5.52398,9.80343 -9.0296,11.08666 -2.17047,0.7945 -5.48983,0.8843 -7.4095,0.20045 z m 4.16698,-18.75954 c 2.17197,-0.81263 5.69905,-3.13934 5.83016,-3.845979 0.13774,-0.742378 -1.50032,-1.249738 -2.96695,-0.91896 -2.08818,0.470962 -4.65044,2.673129 -5.91684,5.085299 -0.38253,0.72862 -0.36221,0.75366 0.44673,0.55063 0.46612,-0.11699 1.63922,-0.50893 2.6069,-0.87099 z m 135.17244,18.93803 c -2.58956,-0.78771 -4.76311,-2.92727 -5.48009,-5.3944 -0.54954,-1.89098 -0.53908,-6.07594 0.021,-8.38661 0.95675,-3.94744 3.83382,-8.805858 6.51641,-11.004036 2.27268,-1.862289 4.53935,-2.749241 7.03506,-2.752836 1.19366,-0.0017 2.64548,0.195424 3.22628,0.438096 3.15674,1.318972 3.28065,5.372186 0.24172,7.907166 -1.78553,1.48943 -6.61365,3.74126 -9.71828,4.5326 -2.75944,0.70335 -2.80329,0.72996 -3.02593,1.83635 -0.12426,0.61746 -0.21303,2.0092 -0.19728,3.09275 0.0527,3.62231 1.83588,5.54991 5.1342,5.54991 3.51273,0 6.64833,-2.73012 9.46097,-8.23752 1.17376,-2.29831 1.45734,-2.63977 2.19336,-2.64103 1.14008,-0.002 1.36863,1.02629 0.71926,3.23595 -1.45219,4.94146 -5.62385,10.1442 -9.17658,11.44467 -1.89959,0.69535 -5.30033,0.88077 -6.95007,0.37894 z m 2.59917,-18.53872 c 2.48759,-0.85586 4.88056,-2.12418 6.20995,-3.2914 1.02414,-0.899209 1.09776,-1.063229 0.66944,-1.491548 -0.64022,-0.640219 -3.02687,-0.586909 -4.34971,0.09716 -1.31464,0.679826 -3.63895,2.993388 -4.30896,4.289038 -0.60215,1.16445 -0.5111,1.18475 1.77928,0.39675 z M 120.6849,39.596881 c -1.33061,-1.42825 -1.4305,-3.05282 -1.2079,-19.64488 0.12144,-9.052002 0.34933,-16.1764185 0.53912,-16.8543915 0.61057,-2.18102899 2.39546,-3.32070699 3.70109,-2.36319399 0.72123,0.52893299 0.72919,1.05965399 0.18269,12.17758749 -0.19898,4.048 -0.39985,10.383998 -0.44637,14.079998 -0.0805,6.39428 -0.0475,6.82273 0.68028,8.83946 0.98297,2.72383 0.79194,3.64914 -0.84736,4.1044 -1.65657,0.46006 -1.88483,0.43032 -2.60155,-0.33898 z m 11.09447,0.29297 c -0.30226,-0.22982 -0.80192,-0.99385 -1.11036,-1.69785 -0.51064,-1.16553 -0.55252,-2.49623 -0.46836,-14.88 0.10587,-15.5774295 0.36313,-20.4160655 1.14925,-21.6158405 1.07464,-1.64011099 3.20051,-1.76004599 3.5952,-0.20283 0.1197,0.47227 0.0452,4.314672 -0.16568,8.5386725 -0.21082,4.224 -0.47144,11.135998 -0.57915,15.359998 l -0.19585,7.68 0.84227,2.48674 c 0.46324,1.3677 0.84226,2.67739 0.84226,2.9104 0,1.17151 -2.86705,2.21337 -3.90958,1.42071 z m 201.02957,0.0689 c -0.41484,-0.26223 -0.48266,-2.30222 -0.49963,-15.02806 -0.0108,-8.098548 -0.0956,-14.800656 -0.18856,-14.893569 -0.22219,-0.2221965 -9.46314,1.011326 -12.05167,1.60871 -3.09671,0.714664 -4.36441,0.618991 -5.48367,-0.413855 -1.26322,-1.165697 -1.54509,-2.3913795 -0.736,-3.2004715 0.49807,-0.498065 1.2689,-0.655884 4.0281,-0.824707 3.31428,-0.202786 10.82777,-0.984498 12.93143,-1.345401 0.92444,-0.158596 1.04,-0.294465 1.04,-1.22276 0,-0.574386 0.19724,-1.314074 0.4383,-1.64375 0.64264,-0.878865 2.39876,-0.307783 3.2417,1.054187 0.51349,0.829657 0.80266,1.005179 1.46285,0.887917 4.22756,-0.750897 8.52311,-1.188268 10.76575,-1.096167 2.50364,0.102819 2.7648,0.178559 3.47911,1.009002 0.97168,1.129646 0.98104,2.183777 0.0292,3.29035 l -0.74309,0.863888 -2.14099,-0.42556 c -1.7367,-0.345201 -2.98225,-0.353509 -6.59607,-0.044 -5.14512,0.440661 -5.54826,0.545079 -5.28667,1.369291 0.10405,0.3278175 0.21634,6.6827645 0.24954,14.1221055 0.0472,10.58168 -0.0314,13.74343 -0.36127,14.52457 -0.60646,1.43621 -2.41082,2.14632 -3.57837,1.40829 z m -172.88547,-0.88678 c -0.89839,-0.9969 -1.00505,-2.18947 -0.26225,-2.93226 0.6485,-0.64851 0.66771,-0.95571 0.66734,-10.66773 -2.8e-4,-7.2797 -0.14273,-11.175176 -0.52366,-14.320004 -0.72248,-5.9647295 -0.71152,-6.3629705 0.19543,-7.0973735 1.07263,-0.868562 2.60758,-0.66715 3.12091,0.409517 0.83688,1.755269 1.1151,5.6730855 1.27595,17.9678605 0.15034,11.49144 0.2169,12.7192 0.68909,12.71174 1.80685,-0.0285 7.64299,-0.75234 11.86288,-1.47123 l 4.94022,-0.84161 0.57978,0.716 c 1.27702,1.57704 0.1625,4.47703 -1.72567,4.49023 -0.404,0.003 -5.05454,0.36111 -10.33454,0.79619 -5.28,0.43508 -9.68569,0.79277 -9.79041,0.79487 -0.10472,0.002 -0.4175,-0.2482 -0.69507,-0.5562 z M 548.16894,13.072003 v -2.56 h -0.96 c -0.64,0 -0.96,-0.16 -0.96,-0.48 0,-0.3890205 0.51555,-0.4800005 2.72,-0.4800005 2.20444,0 2.72,0.09098 2.72,0.4800005 0,0.335238 -0.33778,0.48 -1.12,0.48 h -1.12 v 2.56 c 0,2.346666 -0.0533,2.56 -0.64,2.56 -0.58667,0 -0.64,-0.213334 -0.64,-2.56 z m 3.84,-0.48 c 0,-2.6843245 0.0655,-3.0392575 0.56,-3.0336505 0.32947,0.0037 0.95518,0.6730485 1.52,1.6259055 1.44722,2.441523 1.52018,2.448903 2.85353,0.288693 1.72695,-2.7978765 2.10647,-2.5962605 2.10647,1.119052 0,2.488889 -0.087,3.04 -0.48,3.04 -0.37432,0 -0.48238,-0.440352 -0.4908,-2 l -0.0108,-2 -1.02633,1.68 c -0.56448,0.924 -1.2108,1.68 -1.43626,1.68 -0.22545,0 -0.83875,-0.676193 -1.36287,-1.50265 l -0.95295,-1.50265 v 1.82265 c 0,1.609316 -0.0749,1.82265 -0.64,1.82265 -0.59509,0 -0.64,-0.213334 -0.64,-3.04 z"
       id="path1" />
  </g>
</svg>
