{
	"asset":{
		"generator":"Khronos glTF Blender I/O v4.4.56",
		"version":"2.0"
	},
	"extensionsUsed":[
		"KHR_materials_specular"
	],
	"scene":0,
	"scenes":[
		{
			"name":"Scene",
			"nodes":[
				0
			]
		}
	],
	"nodes":[
		{
			"mesh":0,
			"name":"Male_Tshirt",
			"rotation":[
				0.7071068286895752,
				0,
				0,
				0.7071068286895752
			]
		}
	],
	"materials":[
		{
			"doubleSided":true,
			"extensions":{
				"KHR_materials_specular":{
					"specularFactor":0
				}
			},
			"name":"initialShadingGroup",
			"pbrMetallicRoughness":{
				"baseColorFactor":[
					0.800000011920929,
					0.800000011920929,
					0.800000011920929,
					1
				],
				"metallicFactor":0
			}
		}
	],
	"meshes":[
		{
			"name":"Male_Tshirt",
			"primitives":[
				{
					"attributes":{
						"POSITION":0,
						"NORMAL":1,
						"TEXCOORD_0":2
					},
					"indices":3,
					"material":0
				}
			]
		}
	],
	"accessors":[
		{
			"bufferView":0,
			"componentType":5126,
			"count":11400,
			"max":[
				33.237056732177734,
				67.83618927001953,
				10.366930961608887
			],
			"min":[
				-33.771934509277344,
				-1.8361890316009521,
				-17.525327682495117
			],
			"type":"VEC3"
		},
		{
			"bufferView":1,
			"componentType":5126,
			"count":11400,
			"type":"VEC3"
		},
		{
			"bufferView":2,
			"componentType":5126,
			"count":11400,
			"type":"VEC2"
		},
		{
			"bufferView":3,
			"componentType":5123,
			"count":65559,
			"type":"SCALAR"
		}
	],
	"bufferViews":[
		{
			"buffer":0,
			"byteLength":136800,
			"byteOffset":0,
			"target":34962
		},
		{
			"buffer":0,
			"byteLength":136800,
			"byteOffset":136800,
			"target":34962
		},
		{
			"buffer":0,
			"byteLength":91200,
			"byteOffset":273600,
			"target":34962
		},
		{
			"buffer":0,
			"byteLength":131118,
			"byteOffset":364800,
			"target":34963
		}
	],
	"buffers":[
		{
			"byteLength":495920,
			"uri":"scene.bin"
		}
	]
}
