<svg xmlns="http://www.w3.org/2000/svg" version="1.1" xmlns:xlink="http://www.w3.org/1999/xlink" xmlns:svgjs="http://svgjs.dev/svgjs" viewBox="0 0 800 800" opacity="1"><defs><linearGradient x1="50%" y1="0%" x2="50%" y2="100%" id="vvvortex-grad"><stop stop-color="#00cc4b" stop-opacity="1" offset="0%"></stop><stop stop-color="#E7000B" stop-opacity="1" offset="100%"></stop></linearGradient></defs><g stroke="url(#vvvortex-grad)" fill="none" stroke-linecap="round"><circle r="346.5" cx="400" cy="400" stroke-width="12" stroke-dasharray="14 29" stroke-dashoffset="25" transform="rotate(299, 400, 400)" opacity="0.24"></circle><circle r="330" cx="400" cy="400" stroke-width="11" stroke-dasharray="33 17" stroke-dashoffset="25" transform="rotate(341, 400, 400)" opacity="0.42"></circle><circle r="313.5" cx="400" cy="400" stroke-width="11" stroke-dasharray="34 48" stroke-dashoffset="25" transform="rotate(281, 400, 400)" opacity="0.25"></circle><circle r="297" cx="400" cy="400" stroke-width="11" stroke-dasharray="17 24" stroke-dashoffset="25" transform="rotate(250, 400, 400)" opacity="0.30"></circle><circle r="280.5" cx="400" cy="400" stroke-width="10" stroke-dasharray="30 39" stroke-dashoffset="25" transform="rotate(59, 400, 400)" opacity="0.23"></circle><circle r="264" cx="400" cy="400" stroke-width="10" stroke-dasharray="11 15" stroke-dashoffset="25" transform="rotate(92, 400, 400)" opacity="0.27"></circle><circle r="247.5" cx="400" cy="400" stroke-width="10" stroke-dasharray="50 33" stroke-dashoffset="25" transform="rotate(267, 400, 400)" opacity="0.68"></circle><circle r="231" cx="400" cy="400" stroke-width="9" stroke-dasharray="47 22" stroke-dashoffset="25" transform="rotate(230, 400, 400)" opacity="0.74"></circle><circle r="214.5" cx="400" cy="400" stroke-width="9" stroke-dasharray="38 38" stroke-dashoffset="25" transform="rotate(135, 400, 400)" opacity="0.59"></circle><circle r="198" cx="400" cy="400" stroke-width="9" stroke-dasharray="53 52" stroke-dashoffset="25" transform="rotate(307, 400, 400)" opacity="0.93"></circle><circle r="181.5" cx="400" cy="400" stroke-width="9" stroke-dasharray="14 51" stroke-dashoffset="25" transform="rotate(346, 400, 400)" opacity="0.97"></circle><circle r="165" cx="400" cy="400" stroke-width="8" stroke-dasharray="54 48" stroke-dashoffset="25" transform="rotate(80, 400, 400)" opacity="0.22"></circle><circle r="148.5" cx="400" cy="400" stroke-width="8" stroke-dasharray="42 22" stroke-dashoffset="25" transform="rotate(124, 400, 400)" opacity="0.43"></circle><circle r="132" cx="400" cy="400" stroke-width="8" stroke-dasharray="48 17" stroke-dashoffset="25" transform="rotate(284, 400, 400)" opacity="0.96"></circle><circle r="115.5" cx="400" cy="400" stroke-width="7" stroke-dasharray="39 26" stroke-dashoffset="25" transform="rotate(94, 400, 400)" opacity="0.11"></circle><circle r="99" cx="400" cy="400" stroke-width="7" stroke-dasharray="31 22" stroke-dashoffset="25" transform="rotate(10, 400, 400)" opacity="0.13"></circle><circle r="82.5" cx="400" cy="400" stroke-width="7" stroke-dasharray="53 39" stroke-dashoffset="25" transform="rotate(38, 400, 400)" opacity="0.29"></circle><circle r="66" cx="400" cy="400" stroke-width="6" stroke-dasharray="51 49" stroke-dashoffset="25" transform="rotate(22, 400, 400)" opacity="0.31"></circle><circle r="49.5" cx="400" cy="400" stroke-width="6" stroke-dasharray="17 15" stroke-dashoffset="25" transform="rotate(291, 400, 400)" opacity="0.11"></circle><circle r="33" cx="400" cy="400" stroke-width="6" stroke-dasharray="27 46" stroke-dashoffset="25" transform="rotate(219, 400, 400)" opacity="0.86"></circle><circle r="16.5" cx="400" cy="400" stroke-width="6" stroke-dasharray="31 47" stroke-dashoffset="25" transform="rotate(354, 400, 400)" opacity="0.57"></circle></g></svg>